<svg width="20" height="25" viewBox="0 0 20 25" fill="none" xmlns="http://www.w3.org/2000/svg">
<path d="M8.29731 21.2123C6.81686 19.3996 5.20182 18.5925 3.06339 18.5925C2.48018 18.5925 1.84143 18.6544 1.16422 18.774C1.03604 18.7975 0.907865 18.8082 0.777551 18.8082C0.508377 18.8082 0.245613 18.7591 -0.00219727 18.6651C0.00207533 18.7826 0.00848421 18.8978 0.0148931 19.0089C0.121708 20.86 0.497696 22.8094 1.0745 24.5004C1.1749 24.7972 1.45476 24.9957 1.76879 24.9957H9.26719V21.8913C8.8912 21.7589 8.5558 21.5262 8.29731 21.208V21.2123Z" fill="#525252"/>
<path d="M18.8356 18.774C18.1584 18.6523 17.5197 18.5925 16.9365 18.5925C14.798 18.5925 13.183 19.3996 11.7025 21.2123C11.4441 21.5283 11.1065 21.7632 10.7327 21.8934V24.9979H18.2311C18.5451 24.9979 18.8228 24.7993 18.9254 24.5025C19.5022 22.8115 19.8781 20.86 19.985 19.011C19.9914 18.9 19.9978 18.7847 20.0021 18.6673C19.7542 18.7612 19.4915 18.8103 19.2223 18.8103C19.0941 18.8103 18.9638 18.7996 18.8356 18.7761V18.774Z" fill="#525252"/>
<path d="M1.26044 12.2555H18.7417C18.3572 11.2349 17.9385 10.1183 17.601 9.20873C16.8618 7.21667 16.8661 5.11359 17.6159 3.12794C17.8509 2.50448 18.4128 1.11453 18.4512 1.02058C18.5473 0.796396 18.526 0.538048 18.3914 0.333077C18.2568 0.123836 18.0239 0 17.7761 0H2.22391C1.9761 0 1.74538 0.125971 1.60865 0.333077C1.4762 0.538048 1.4527 0.796396 1.54884 1.02058C1.58729 1.11453 2.14914 2.50448 2.38413 3.12794C3.13397 5.11359 3.13824 7.21667 2.39908 9.20873C2.06155 10.1183 1.64497 11.2349 1.2583 12.2555H1.26044ZM10 8.59382C10.4038 8.59382 10.7328 8.92262 10.7328 9.32616C10.7328 9.7297 10.4038 10.0585 10 10.0585C9.59626 10.0585 9.26727 9.7297 9.26727 9.32616C9.26727 8.92262 9.59626 8.59382 10 8.59382Z" fill="#525252"/>
<path d="M19.0921 17.3328C19.2886 17.367 19.4894 17.3221 19.6518 17.2047C19.812 17.0873 19.9188 16.9101 19.9466 16.7115V16.7008C19.9551 16.6453 19.9573 16.5898 19.9509 16.5343C19.859 15.5457 19.671 14.681 19.3912 13.9593C19.3612 13.8825 19.3313 13.8035 19.2972 13.7202H0.700702C0.668658 13.8035 0.636613 13.8846 0.606705 13.9593C0.326851 14.6789 0.13672 15.5457 0.0469959 16.5343C0.0427233 16.5898 0.0427233 16.6453 0.0512685 16.7008V16.7115C0.0790404 16.9079 0.185855 17.0873 0.348214 17.2047C0.510572 17.3221 0.711384 17.3691 0.907923 17.3328C4.59731 16.6752 7.22495 17.5869 9.43174 20.2857C9.5706 20.4565 9.77996 20.5547 10 20.5547C10.22 20.5547 10.4294 20.4565 10.5683 20.2857C12.775 17.5848 15.4048 16.6752 19.0921 17.3328Z" fill="#525252"/>
</svg>
