<svg width="42" height="52" viewBox="0 0 42 52" fill="none" xmlns="http://www.w3.org/2000/svg">
<path d="M40.0313 34.957L24.6652 37.2964L19.4874 35.9767L4.08875 34.957L0.0341797 39.6783C0.249054 43.6198 1.48665 47.4819 3.68519 50.8606C3.93059 51.2377 4.35279 51.4623 4.80272 51.4623H20.8271H37.1009C37.4597 51.4623 37.795 51.2821 37.9927 50.9825C40.2404 47.576 41.5062 43.6693 41.7237 39.6814L40.0313 34.957Z" fill="#0353E9"/>
<path d="M10.026 50.8606C7.82732 47.4819 6.58972 43.6198 6.37495 39.6783L10.0883 35.3542L4.08875 34.9569L0.0341797 39.6783C0.249054 43.6198 1.48665 47.4819 3.68519 50.8606C3.93059 51.2377 4.35279 51.4623 4.80272 51.4623H11.1434C10.6936 51.4623 10.2713 51.2377 10.026 50.8606Z" fill="#0040B7"/>
<path d="M36.3462 17.6433C34.7885 12.6575 34.3941 7.38088 35.1942 2.22016L35.3678 1.10201C35.4577 0.522903 35.0097 0 34.4236 0H7.33345C6.74731 0 6.29934 0.522903 6.38929 1.10201L6.56286 2.22016C7.36295 7.38088 6.9686 12.6575 5.41086 17.6433L1.7168 29.4666L5.48135 37.5315H36.2444L40.031 29.4376L36.3462 17.6433Z" fill="#FFE0D1"/>
<path d="M36.3462 17.6433C34.7885 12.6575 34.3941 7.38088 35.1942 2.22016L35.3678 1.10201C35.4577 0.522903 35.0097 0 34.4236 0H7.33345C6.74731 0 6.29934 0.522903 6.38929 1.10201L6.56286 2.22016C7.36295 7.38088 6.9686 12.6575 5.41086 17.6433L1.7168 29.4666L5.48135 37.5315H36.2444L40.031 29.4376L36.3462 17.6433Z" fill="#0353E9"/>
<path d="M7.65669 35.8247L12.1617 18.3511C13.7195 12.9375 14.1138 7.20803 13.3137 1.60442C13.3137 1.60442 13.1276 0.124208 13.1538 0.000106812H7.33345C6.74731 0.000106812 6.29934 0.52301 6.38929 1.10212L6.56286 2.22027C7.36295 7.38099 6.9686 12.6576 5.41086 17.6434L1.7168 29.4666L5.48135 37.5316H9.55175L7.65669 35.8247Z" fill="#0040B7"/>
<path d="M20.0508 42.5553V51.4623H20.8271H21.6033V42.5553H20.0508Z" fill="white"/>
<path d="M20.8271 47.7661C20.1191 47.7661 19.4111 47.4629 18.9195 46.8574L18.5769 46.4361C15.1033 42.1604 9.8877 39.6783 4.37817 39.6783H0.0341C-0.112876 36.9955 0.214197 34.2764 1.03602 31.6474L1.71708 29.4666L2.15801 29.6374C14.1697 34.2868 27.4844 34.2868 39.4961 29.6374L39.937 29.4666L40.0312 29.4376L40.7216 31.6474C41.4161 33.8717 41.7577 36.1613 41.7577 38.4383C41.7577 38.8534 41.7463 39.2684 41.7235 39.6814L41.6552 39.6783H37.2759C31.7664 39.6783 26.5508 42.1604 23.0772 46.4361L22.7346 46.8574C22.243 47.4629 21.535 47.7661 20.8271 47.7661Z" fill="white"/>
<path d="M8.21538 32.8875L8.72297 31.6882C6.51305 31.1549 4.29982 30.4664 2.15801 29.6373L1.71708 29.4665L1.03602 31.6473C0.214197 34.2763 -0.112876 36.9954 0.0341 39.6782H4.37817C5.09235 39.6782 5.67994 39.707 6.38108 39.789C6.63932 37.4392 7.32918 35.1247 8.21538 32.8875Z" fill="#E2E2E2"/>
<path d="M20.8788 27.2835C20.4501 27.2835 20.1025 26.9359 20.1025 26.5072V25.7311C20.1025 25.3024 20.4501 24.9549 20.8788 24.9549C21.3075 24.9549 21.6551 25.3024 21.6551 25.7311V26.5073C21.6551 26.9359 21.3075 27.2835 20.8788 27.2835Z" fill="#0040B7"/>
</svg>
