<svg width="23" height="24" viewBox="0 0 23 24" fill="none" xmlns="http://www.w3.org/2000/svg">
<path d="M22.0418 21H21.0832C20.5565 21 19.7242 20.8329 19.2349 20.6289L16.2233 19.371C15.734 19.1667 15.002 18.7119 14.597 18.3594L11.0564 15.2805C10.2459 14.5761 9.58324 13.0995 9.58324 12V11.0001C9.58324 7.1085 9.92565 3.3957 10.5415 0H0.958238C2.1436 3.0723 2.875 7.3143 2.875 12C2.87529 13.4481 2.39631 14.8953 1.43779 15.9999C0.549413 17.0223 0 18.4365 0 20.0001C0 22.209 1.71695 24 3.83324 24C4.95823 24 5.97396 23.7606 6.70824 23.3751C7.44251 22.9893 8.45969 22.7499 9.58324 22.7499C10.7062 22.7499 11.7245 22.9893 12.4582 23.3751C13.1922 23.7606 14.2094 24 15.3332 24C16.0595 24 16.7512 23.8719 17.3869 23.6427C17.9351 23.4456 18.5228 23.4603 19.0302 23.6427C19.6653 23.8719 20.3573 24 21.0832 24C22.1418 24 23 23.1045 23 21.9999C23 21.4473 22.5713 21 22.0418 21ZM3.83324 16.965L4.84955 15.9045C5.61028 16.6974 6.84768 16.6974 7.6084 15.9045L8.625 16.965C7.30164 18.3456 5.1566 18.3456 3.83324 16.965Z" fill="#525252"/>
</svg>
