<svg width="97" height="97" viewBox="0 0 97 97" fill="none" xmlns="http://www.w3.org/2000/svg">
<path fill-rule="evenodd" clip-rule="evenodd" d="M27.7143 0C12.3905 0 0 12.3906 0 27.7143V69.2857C0 84.6094 12.3905 97 27.7143 97H69.2857C84.6095 97 97 84.6094 97 69.2857V27.7143C97 12.3906 84.6095 0 69.2857 0H27.7143ZM29.4464 31.1786C34.2091 31.1786 38.1071 35.0766 38.1071 39.8393C38.1071 44.6019 34.2091 48.5 29.4464 48.5C24.6838 48.5 20.7857 44.6019 20.7857 39.8393C20.7857 35.0766 24.6838 31.1786 29.4464 31.1786ZM67.5536 31.1786C72.3162 31.1786 76.2143 35.0766 76.2143 39.8393C76.2143 44.6019 72.3162 48.5 67.5536 48.5C62.7909 48.5 58.8929 44.6019 58.8929 39.8393C58.8929 35.0766 62.7909 31.1786 67.5536 31.1786ZM35.0218 62.2421C35.2039 62.2315 35.3866 62.2498 35.5631 62.2963L62.3301 69.4684C62.773 69.5874 63.1506 69.8772 63.3802 70.2742C63.6098 70.6712 63.6726 71.143 63.5548 71.5862C63.4358 72.0291 63.1461 72.4068 62.7491 72.6364C62.352 72.866 61.8802 72.9287 61.4369 72.8109L34.6699 65.6388C34.227 65.5198 33.8494 65.23 33.6198 64.833C33.3902 64.436 33.3274 63.9642 33.4452 63.521C33.5401 63.169 33.7435 62.856 34.0266 62.6264C34.3097 62.3968 34.6579 62.2623 35.0218 62.2421Z" fill="#939393"/>
</svg>
