<svg width="19" height="21" viewBox="0 0 19 21" fill="none" xmlns="http://www.w3.org/2000/svg">
<path d="M8.26087 3.09638C8.26047 1.64157 7.04139 0.458008 5.54298 0.458008C5.04051 0.45824 4.55303 0.592686 4.13043 0.842835C3.70784 0.592686 3.22032 0.45824 2.71757 0.458008C1.21948 0.458008 0.000358939 1.64157 0 3.09654C0 4.35189 0.907758 5.40534 2.11934 5.67067V15.0714C0.907758 15.3368 0 16.3902 0 17.6456C0 19.1005 1.21908 20.2841 2.71785 20.2841C3.22028 20.2839 3.7078 20.1494 4.1304 19.8993C4.55299 20.1493 5.04051 20.2838 5.54294 20.2841H5.54326C7.04135 20.2841 8.26043 19.1005 8.26083 17.6456C8.26083 16.3902 7.35307 15.3368 6.14149 15.0714V5.67067C7.35311 5.40534 8.26087 4.35189 8.26087 3.09638Z" fill="#525252"/>
<path d="M16.8805 15.171V12.3584C16.8805 12.2124 16.8217 12.0721 16.7162 11.9662L15.3032 10.5484C15.0901 10.3346 14.741 10.3108 14.4983 10.4936L13.0856 11.5571C12.942 11.6652 12.8584 11.8298 12.8584 12.004V15.171C11.6468 15.4313 10.739 16.4645 10.739 17.6959C10.739 19.1229 11.9581 20.2839 13.457 20.2839C13.9596 20.2836 14.447 20.1516 14.8694 19.9064C15.292 20.1516 15.7795 20.2836 16.2822 20.2839C17.7803 20.2839 18.9994 19.123 18.9999 17.6961C18.9999 17.696 18.9999 17.6959 18.9999 17.6959C18.9999 16.4645 18.0921 15.4313 16.8805 15.171Z" fill="#525252"/>
<path d="M16.2721 9.86374C16.1105 9.86374 15.9521 9.79849 15.8364 9.67663L15.0596 8.80982C14.943 8.67971 14.7464 8.66013 14.6065 8.76462L13.808 9.36076C13.5976 9.5271 13.2981 9.53623 13.075 9.37005C12.9204 9.25483 12.8352 9.06839 12.8352 8.87551V5.51148C11.619 5.23717 10.7078 4.14806 10.7078 2.85021C10.7082 1.34594 11.9319 0.122314 13.4356 0.122314C13.9403 0.122675 14.4297 0.261672 14.8537 0.520209C15.2779 0.261672 15.7672 0.122675 16.2715 0.122314C17.7756 0.122314 18.9994 1.34594 18.9999 2.85001V2.85021C18.9999 4.14806 18.0886 5.23717 16.8724 5.51148V9.24827C16.8724 9.46325 16.7654 9.66834 16.5807 9.77835C16.4838 9.83604 16.3773 9.86374 16.2721 9.86374Z" fill="#525252"/>
</svg>
