<svg width="34" height="31" viewBox="0 0 34 31" fill="none" xmlns="http://www.w3.org/2000/svg">
<path d="M28.8901 1.21274H26.014V1.02678C26.014 0.459768 25.5542 0 24.9872 0C24.4202 0 23.9604 0.459768 23.9604 1.02678V1.21274H18.0279V1.02678C18.0279 0.459768 17.5681 0 17.0011 0C16.4341 0 15.9744 0.459768 15.9744 1.02678V1.21274H10.0419V1.02678C10.0419 0.459768 9.58211 0 9.0151 0C8.44809 0 7.98832 0.459768 7.98832 1.02678V1.21274H5.10993C2.29199 1.21274 0 3.50473 0 6.32266V25.5074C0 28.3253 2.29199 30.6173 5.10993 30.6173H28.8901C31.708 30.6173 34 28.3253 34 25.5074V6.32152C33.9989 3.50359 31.708 1.21274 28.8901 1.21274ZM17 23.8144C12.9785 23.8144 9.70532 20.5424 9.70532 16.5208C9.70532 12.4993 12.9773 9.2273 17 9.2273C21.0227 9.2273 24.2947 12.4993 24.2947 16.5208C24.2947 20.5424 21.0215 23.8144 17 23.8144Z" fill="#525252"/>
<path d="M17 11.2808C14.1113 11.2808 11.76 13.6321 11.76 16.5207C11.76 19.4106 14.1113 21.7607 17 21.7607C19.8887 21.7607 22.24 19.4094 22.24 16.5207C22.24 13.6309 19.8887 11.2808 17 11.2808ZM19.7757 16.2526L16.7159 18.718C16.5334 18.8664 16.3052 18.9451 16.0725 18.9451C16.0337 18.9451 15.9949 18.9428 15.955 18.9382C15.6834 18.9074 15.4336 18.7682 15.2647 18.5526L14.0611 17.0193C13.7109 16.5732 13.7896 15.9275 14.2345 15.5773C14.6818 15.2259 15.3252 15.3046 15.6766 15.7507L16.2379 16.466L18.4877 14.6543C18.9292 14.2972 19.5772 14.3691 19.932 14.8095C20.2868 15.251 20.2172 15.8978 19.7757 16.2526Z" fill="#525252"/>
</svg>
