<svg width="24" height="24" viewBox="0 0 24 24" fill="none" xmlns="http://www.w3.org/2000/svg">
<path d="M14.8188 12.043C13.888 12.043 13.1306 12.8003 13.1306 13.7312C13.1306 14.6621 13.8879 15.4195 14.8188 15.4195C15.7497 15.4195 16.5071 14.6621 16.5071 13.7312C16.5071 12.8003 15.7498 12.043 14.8188 12.043Z" fill="#525252"/>
<path d="M20.4853 3.51469C18.2188 1.24823 15.2053 0 12 0C8.79469 0 5.78123 1.24823 3.51473 3.51469C1.24823 5.78119 0 8.79469 0 12C0 15.2053 1.24819 18.2188 3.51469 20.4853C5.78123 22.7518 8.79469 24 12 24C15.2053 24 18.2188 22.7518 20.4853 20.4853C22.7518 18.2188 24 15.2053 24 12C24 8.79469 22.7518 5.78119 20.4853 3.51469ZM14.8189 16.8255C13.9777 16.8255 13.2143 16.4877 12.6559 15.9412C11.9144 16.5202 10.9935 16.8255 9.97453 16.8255C7.15866 16.8255 4.86773 14.5347 4.86773 11.7188C4.86773 8.90283 7.15866 6.61195 9.97453 6.61195C10.9979 6.61195 11.9853 6.91369 12.8303 7.48453L12.043 8.64975C11.4315 8.23659 10.7162 8.01816 9.97453 8.01816C7.93406 8.01816 6.27398 9.67823 6.27398 11.7187C6.27398 13.7592 7.93406 15.4193 9.97453 15.4193C10.7357 15.4193 11.3819 15.1925 11.8963 14.7462C11.7855 14.4279 11.7244 14.0865 11.7244 13.731C11.7244 12.0247 13.1126 10.6365 14.8189 10.6365C15.4414 10.6365 16.0212 10.8219 16.5071 11.1396V10.6365H17.9134V16.8255H16.5071V16.3224C16.0212 16.6401 15.4415 16.8255 14.8189 16.8255Z" fill="#525252"/>
</svg>
