<svg width="24" height="29" viewBox="0 0 24 29" fill="none" xmlns="http://www.w3.org/2000/svg">
<path d="M22.1141 13.0322C21.8728 12.6707 21.6001 12.3312 21.2992 12.0176C19.0941 9.79817 17.2788 10.1486 16.4513 8.18618C16.247 7.75304 16.1557 7.2752 16.1859 6.79724C16.2161 6.31927 16.3669 5.85674 16.6242 5.4528L16.6312 5.43878C16.922 4.91441 17.3813 4.50361 17.9348 4.27301C18.2207 4.16414 18.464 3.96606 18.6285 3.70811C18.7931 3.45016 18.8701 3.14607 18.8483 2.8409L18.8459 2.80586C18.8313 2.6105 18.7757 2.42041 18.6827 2.24796C18.5898 2.07551 18.4615 1.92455 18.3064 1.8049C18.1513 1.68525 17.9727 1.59959 17.7823 1.55348C17.5919 1.50738 17.3939 1.50186 17.2012 1.53729C15.9093 1.77599 14.7406 2.45683 13.8957 3.46304C13.593 3.8668 13.313 4.28703 13.0568 4.7218C12.7368 5.3474 12.4797 6.0032 12.2891 6.67955C12.2609 6.75632 12.2131 6.82434 12.1503 6.87681C12.0876 6.92929 12.0122 6.96438 11.9317 6.97859C9.64216 7.34304 7.94606 9.28678 7.21716 11.0623C5.57947 15.0549 8.10493 18.9891 9.75664 20.9819C9.78593 21.0168 9.80802 21.0572 9.82165 21.1007C9.83528 21.1441 9.84017 21.1899 9.83605 21.2353C9.83192 21.2807 9.81886 21.3248 9.79761 21.3651C9.77637 21.4054 9.74735 21.4411 9.71225 21.4702C9.64966 21.5215 9.57124 21.5496 9.49031 21.5496C9.43928 21.55 9.38881 21.5389 9.3427 21.517C9.29657 21.4952 9.25599 21.4632 9.22398 21.4235C8.28809 20.2965 7.09194 18.5791 6.44901 16.5641C6.44215 16.5417 6.42844 16.522 6.40982 16.5077C6.39119 16.4935 6.36857 16.4854 6.34514 16.4847C6.3217 16.4839 6.29862 16.4905 6.27912 16.5036C6.25962 16.5166 6.24469 16.5354 6.23641 16.5573C6.12826 16.8128 6.07268 17.0875 6.073 17.3649C6.07332 17.6424 6.12954 17.9169 6.23828 18.1721C6.25618 18.2149 6.26534 18.2608 6.26522 18.3071C6.26511 18.3535 6.25573 18.3993 6.23762 18.442C6.21952 18.4846 6.19307 18.5232 6.15982 18.5555C6.12657 18.5878 6.0872 18.6131 6.04402 18.6299C6.00085 18.6468 5.95474 18.6548 5.90841 18.6535C5.86209 18.6523 5.81648 18.6418 5.77428 18.6226C5.73208 18.6035 5.69414 18.5761 5.66269 18.542C5.63124 18.508 5.60691 18.468 5.59115 18.4244C5.16829 17.3334 5.46499 16.6045 5.72432 15.9597C5.93265 15.5402 6.03986 15.0778 6.03737 14.6094C5.89686 13.3151 6.08155 12.0062 6.5747 10.8013C7.33397 8.95106 9.12586 6.92789 11.4808 6.36953C11.5226 6.35921 11.5608 6.33765 11.5913 6.30718C11.6218 6.27671 11.6433 6.23849 11.6537 6.19665C11.859 5.37687 12.4823 4.14078 12.7337 3.66208C12.8056 3.52495 13.4813 1.61999 13.6651 1.20905C13.753 1.01511 13.7651 0.795284 13.6989 0.592898C13.6328 0.390512 13.4932 0.220257 13.3077 0.115698L13.289 0.106353C13.1894 0.0511534 13.0798 0.0165669 12.9666 0.004655C12.8533 -0.00725691 12.7389 0.00374968 12.63 0.0370186C12.5211 0.0702875 12.4201 0.125138 12.3328 0.198299C12.2456 0.271461 12.174 0.361436 12.1223 0.46286C11.5795 1.52199 11.232 2.67031 11.0967 3.85272C11.0823 3.96499 11.0297 4.06888 10.9478 4.14698C10.8658 4.22508 10.7595 4.27263 10.6467 4.28167C10.5339 4.29071 10.4214 4.26068 10.3281 4.19662C10.2347 4.13255 10.1663 4.03835 10.1342 3.92982C9.96867 3.30607 9.84766 2.67135 9.77206 2.03047C9.74341 1.81922 9.63655 1.6264 9.47261 1.49014C9.30866 1.35387 9.09955 1.28408 8.88663 1.29456L8.8656 1.29689C8.75197 1.30345 8.64083 1.33285 8.53882 1.38333C8.4368 1.43381 8.34601 1.50433 8.27187 1.59069C8.19772 1.67704 8.14175 1.77746 8.10729 1.88594C8.07282 1.99441 8.06058 2.10872 8.07129 2.22204C8.14741 3.10166 8.34231 3.96691 8.65067 4.79422C8.68651 4.89372 8.68952 5.00209 8.65925 5.10342C8.62897 5.20476 8.56701 5.29372 8.48246 5.35725C8.42441 5.4003 8.35786 5.43052 8.28724 5.4459C8.21662 5.46127 8.14353 5.46146 8.07283 5.44643C8.00214 5.43141 7.93544 5.40152 7.87717 5.35876C7.81891 5.31599 7.7704 5.26133 7.73487 5.19839C7.55031 4.85963 7.40546 4.56293 7.30033 4.35735C7.20586 4.16669 7.04312 4.01856 6.84445 3.94238C6.64578 3.8662 6.42572 3.86755 6.228 3.94617L6.20932 3.95318C6.10355 3.99587 6.00746 4.05942 5.92679 4.14005C5.84612 4.22069 5.78252 4.31674 5.73979 4.42249C5.69705 4.52824 5.67606 4.64151 5.67805 4.75555C5.68005 4.86959 5.705 4.98206 5.75142 5.08625C6.00834 5.66919 6.32048 6.22619 6.68357 6.74964C6.73764 6.82692 6.7678 6.9184 6.77029 7.01269C6.77279 7.10698 6.7475 7.19993 6.69759 7.27996C6.65366 7.35005 6.61185 7.42013 6.5712 7.49022C6.55324 7.52062 6.52785 7.54597 6.49743 7.56389C6.467 7.5818 6.43252 7.5917 6.39723 7.59266C6.36193 7.59362 6.32697 7.5856 6.29561 7.56936C6.26426 7.55312 6.23754 7.52918 6.21796 7.4998C5.14564 5.94965 3.74477 4.65495 2.11508 3.70787C1.95204 3.61293 1.77165 3.55158 1.58454 3.52742C1.39742 3.50326 1.20736 3.51679 1.02555 3.56721C0.843748 3.61763 0.673868 3.70392 0.525922 3.82101C0.377976 3.93809 0.254954 4.08359 0.164103 4.24894C-0.0059105 4.57614 -0.0455295 4.95564 0.0532352 5.31089C0.152 5.66615 0.381801 5.97074 0.696295 6.16325C1.6856 6.79087 2.58048 7.55619 3.35398 8.43616C3.38583 8.47295 3.40644 8.51811 3.41337 8.56628C3.42031 8.61444 3.41327 8.66359 3.3931 8.70787C3.37292 8.75215 3.34046 8.78972 3.29957 8.81609C3.25868 8.84247 3.21107 8.85656 3.16241 8.85668H1.75717C1.54446 8.8515 1.33662 8.92074 1.16951 9.05245C1.0024 9.18416 0.88651 9.37007 0.841841 9.5781C0.81891 9.70475 0.824042 9.83488 0.856877 9.95932C0.889711 10.0838 0.949448 10.1995 1.03187 10.2983C1.1143 10.3972 1.21741 10.4767 1.33393 10.5314C1.45045 10.5861 1.57754 10.6145 1.70624 10.6147H4.2282C4.36023 10.621 4.48869 10.6596 4.60225 10.7273C4.71581 10.7949 4.81097 10.8895 4.87935 11.0026C4.94773 11.1157 4.98723 11.2439 4.99435 11.3759C5.00147 11.5079 4.976 11.6396 4.92019 11.7594C3.51845 14.9246 4.35108 18.3277 5.70516 20.663C5.90374 21.0055 6.43803 21.7402 6.6803 22.0612C6.75071 22.1539 6.78531 22.2689 6.77772 22.385C6.69221 23.73 6.54223 25.1163 6.33851 26.5372C6.312 26.7184 6.32479 26.9032 6.376 27.0791C6.42721 27.2549 6.51565 27.4177 6.63531 27.5563C6.75497 27.695 6.90306 27.8063 7.06952 27.8827C7.23598 27.959 7.41692 27.9987 7.60007 27.999C7.91265 27.9993 8.21447 27.8848 8.44832 27.6774C8.68217 27.47 8.83181 27.184 8.86887 26.8736C8.95368 26.1494 9.02306 25.4485 9.08123 24.768C9.08294 24.7473 9.09033 24.7276 9.10259 24.7109C9.11485 24.6942 9.1315 24.6812 9.15069 24.6734C9.16988 24.6656 9.19086 24.6632 9.2113 24.6666C9.23174 24.67 9.25085 24.679 9.2665 24.6925C11.9471 26.9374 15.1867 28.4389 18.1591 28.7055C20.8387 28.9438 21.6331 27.7172 22.0653 26.8762C22.5605 25.9184 22.2966 24.6498 22.626 21.2179C22.7446 19.9584 23.8784 15.8651 22.1141 13.0322ZM21.0628 24.1545C21.0348 24.3601 21.0114 24.5376 20.9974 24.6825C20.9886 24.7681 20.9484 24.8475 20.8845 24.9053C20.8207 24.9631 20.7377 24.9952 20.6516 24.9955C20.6399 24.9955 20.6283 24.9932 20.6142 24.9932C20.5233 24.9826 20.4401 24.9368 20.3824 24.8657C20.3248 24.7945 20.2973 24.7036 20.3059 24.6124C20.3222 24.4605 20.3456 24.276 20.3759 24.0611C20.5885 22.4794 20.9834 19.5335 19.4438 17.4215L19.3363 17.2743L19.3153 17.2463C19.2915 17.5664 19.2478 17.8848 19.1845 18.1995C19.0513 18.9377 18.9368 19.5755 19.2989 20.3698C19.3236 20.4226 19.3345 20.4807 19.3306 20.5389C19.3268 20.597 19.3082 20.6532 19.2767 20.7022C19.2452 20.7512 19.2018 20.7914 19.1505 20.8191C19.0992 20.8468 19.0418 20.861 18.9836 20.8604C18.9169 20.8607 18.8517 20.8417 18.7957 20.8056C18.7397 20.7695 18.6954 20.718 18.6682 20.6572C18.2149 19.6666 18.3598 18.8583 18.5023 18.0756C18.6214 17.4145 18.7336 16.7907 18.4813 16.0478C17.6449 14.7395 16.8856 13.0761 17.2711 11.1721C17.2914 11.0836 17.3454 11.0066 17.4216 10.9573C17.4979 10.9081 17.5904 10.8906 17.6794 10.9086C17.7683 10.9266 17.8468 10.9786 17.8979 11.0536C17.9491 11.1286 17.969 11.2205 17.9533 11.3099C17.8734 11.7025 17.8459 12.104 17.8715 12.5038C17.8738 12.5061 17.8738 12.5084 17.8762 12.5084C18.1168 13.2023 18.5887 13.2911 19.1868 13.4055C19.8386 13.5317 20.6493 13.6882 20.9693 14.7886C20.9823 14.8323 20.9865 14.8782 20.9817 14.9235C20.9768 14.9689 20.963 15.0128 20.9411 15.0528C20.9191 15.0927 20.8895 15.128 20.8538 15.1564C20.8182 15.1849 20.7772 15.2059 20.7334 15.2184C20.7015 15.2277 20.6685 15.2324 20.6353 15.2325C20.5604 15.2323 20.4876 15.2078 20.4277 15.1628C20.3679 15.1177 20.3243 15.0544 20.3035 14.9825C20.1026 14.2886 19.6634 14.2045 19.056 14.0877C18.7411 14.0409 18.4338 13.9522 18.1425 13.8237C18.379 14.4907 18.6976 15.1256 19.091 15.7137C19.0941 15.7197 19.098 15.7252 19.1027 15.7301C19.3667 16.1389 19.6447 16.5174 19.897 16.8655L20.0045 17.0127C21.7102 19.3512 21.2731 22.5939 21.0628 24.1545Z" fill="#525252"/>
</svg>
