<svg width="50" height="32" viewBox="0 0 50 32" fill="none" xmlns="http://www.w3.org/2000/svg">
<g clip-path="url(#clip0_525_1362)">
<path fill-rule="evenodd" clip-rule="evenodd" d="M50 29.6616C50 30.9533 48.9173 32 47.5823 32H44.0105C43.8347 31.1331 43.5214 30.2367 43.0488 29.1272C42.5558 27.9684 41.8386 26.9242 41.1342 25.933C41.1227 26.0142 41.1126 26.0943 41.0998 26.1731C41.0884 26.2494 41.0782 26.3258 41.0667 26.4009C40.9966 26.8737 40.9177 27.322 40.8336 27.7505C40.5011 29.4338 40.0668 30.7957 39.5929 32H10.3651C9.89249 30.7957 9.45812 29.4338 9.12438 27.7505C9.09635 27.6089 9.0696 27.4648 9.04285 27.3183C8.9626 26.8787 8.88999 26.4181 8.82503 25.933C8.11933 26.9242 7.40217 27.9684 6.9092 29.1272C6.43789 30.2379 6.12326 31.1343 5.94874 32H2.41771C1.08275 32 0 30.9533 0 29.6616C0 29.6616 0.671303 16.2407 0.754102 13.9393C0.794864 9.1652 3.8635 6.21849 8.71293 5.10163C10.4721 4.6965 17.473 1.6205 17.8832 0.00492554C17.8832 0.00369415 17.8844 0.00123138 17.8844 0H32.0735C32.0735 0 32.0748 0.00369415 32.0748 0.00492554C32.485 1.6205 39.4872 4.6965 41.245 5.10163C46.0957 6.21849 49.1644 9.1652 49.2039 13.9393C49.2535 15.2852 49.3593 16.4735 49.5236 17.5041C49.6484 18.291 50 29.6616 50 29.6616Z" fill="#0353E9"/>
<path fill-rule="evenodd" clip-rule="evenodd" d="M40.8332 27.7505C40.9453 27.1828 41.0459 26.5807 41.1325 25.933C40.0434 24.4073 39.1823 23.4394 39.102 21.5665C39.9988 20.8092 40.5644 19.7896 40.7121 18.6456L41.3873 13.4221C41.4293 13.0847 41.1809 12.7781 40.8319 12.7362C40.4829 12.6943 40.1657 12.9357 40.1224 13.2731L39.4472 18.4966C39.3364 19.35 38.9122 20.0913 38.2944 20.6183C37.6779 21.1453 36.8639 21.4593 35.9723 21.4593H29.4172C29.0656 21.4593 28.7803 21.7352 28.7803 22.075C28.7803 22.4149 29.0656 22.6907 29.4172 22.6907H35.9723C36.6525 22.6907 37.3009 22.554 37.8894 22.3053C38.1964 23.948 39.6421 26.3098 40.8306 27.7493L40.8332 27.7505Z" fill="#0040B7"/>
<path fill-rule="evenodd" clip-rule="evenodd" d="M9.12418 27.7505C9.01208 27.1828 8.91145 26.5807 8.82483 25.933C9.91395 24.4073 10.7751 23.4394 10.8553 21.5665C9.95853 20.8092 9.39296 19.7896 9.24519 18.6456L8.57007 13.4221C8.52803 13.0847 8.77643 12.7781 9.12545 12.7362C9.47448 12.6943 9.79166 12.9357 9.83497 13.2731L10.5101 18.4966C10.6209 19.35 11.0451 20.0913 11.6629 20.6183C12.2794 21.1453 13.0934 21.4593 13.9851 21.4593H20.5402C20.8917 21.4593 21.1771 21.7352 21.1771 22.075C21.1771 22.4149 20.8917 22.6907 20.5402 22.6907H13.9851C13.3049 22.6907 12.6565 22.554 12.068 22.3053C11.761 23.948 10.3152 26.3098 9.12673 27.7493L9.12418 27.7505Z" fill="#0040B7"/>
</g>
<defs>
<clipPath id="clip0_525_1362">
<rect width="50" height="32" fill="white"/>
</clipPath>
</defs>
</svg>
