<svg width="22" height="26" viewBox="0 0 22 26" fill="none" xmlns="http://www.w3.org/2000/svg">
<path d="M15.4612 15.0753V14.0337C15.4612 13.4327 14.9673 12.9459 14.3577 12.9459H7.64234C7.0326 12.9459 6.53877 13.4327 6.53877 14.0337V15.0753L6.43666 15.2711C5.29718 14.1316 4.5909 12.5679 4.5909 10.8436C4.5909 7.35978 7.46569 4.52598 10.9999 4.52598C14.5342 4.52598 17.409 7.35978 17.409 10.8436C17.409 12.5679 16.7027 14.1317 15.5632 15.2711L15.4612 15.0753ZM2.85919 25.1841C2.85919 25.6347 3.22974 26 3.6869 26H18.3132C18.7703 26 19.1409 25.6347 19.1409 25.1841V23.3855H2.85919V25.1841ZM18.8603 22.8425L15.1909 15.7524H6.80912L3.13974 22.8425H18.8603ZM7.64234 13.4901C7.33763 13.4901 7.09056 13.7336 7.09056 14.034V15.2086H14.9094V14.034C14.9094 13.7336 14.6624 13.4901 14.3577 13.4901H7.64234ZM22 11.0476V20.9768C22 21.7302 21.382 22.3366 20.6205 22.3366H19.2162L16.471 17.028C18.223 15.5268 19.3293 13.3131 19.3293 10.8436C19.3293 6.30998 15.5991 2.63311 11 2.63311C6.40359 2.63311 2.67074 6.31003 2.67074 10.8436C2.67074 13.3103 3.7771 15.524 5.529 17.028L2.78382 22.3366H1.37949C0.618037 22.3366 0 21.7302 0 20.9768V10.8436C0 4.77882 5.08195 -0.143608 11.2676 0.00320078C17.2711 0.144627 22 5.12698 22 11.0476ZM3.04593 18.366C3.04593 18.1158 2.84178 17.9172 2.59069 17.9172H1.52024C1.26915 17.9172 1.06499 18.1158 1.06499 18.366C1.06499 18.6135 1.26915 18.8148 1.52024 18.8148H2.59069C2.84178 18.8148 3.04593 18.6135 3.04593 18.366ZM2.59069 16.0951H1.52024C1.26915 16.0951 1.06499 16.2964 1.06499 16.5439C1.06499 16.7914 1.26915 16.9926 1.52024 16.9926H2.59069C2.84178 16.9926 3.04593 16.7914 3.04593 16.5439C3.04593 16.2964 2.84178 16.0951 2.59069 16.0951ZM11.7615 1.31681C11.7615 0.900658 11.4221 0.566212 11 0.566212C10.5779 0.566212 10.2385 0.900759 10.2385 1.31681C10.2385 1.73286 10.5779 2.06741 11 2.06741C11.4221 2.06741 11.7615 1.73286 11.7615 1.31681ZM20.935 18.366C20.935 18.1158 20.7308 17.9172 20.4797 17.9172H19.4093C19.1582 17.9172 18.954 18.1158 18.954 18.366C18.954 18.6135 19.1582 18.8148 19.4093 18.8148H20.4797C20.7308 18.8148 20.935 18.6135 20.935 18.366ZM20.935 16.5439C20.935 16.2964 20.7308 16.0951 20.4797 16.0951H19.4093C19.1582 16.0951 18.954 16.2964 18.954 16.5439C18.954 16.7914 19.1582 16.9926 19.4093 16.9926H20.4797C20.7308 16.9926 20.935 16.7914 20.935 16.5439Z" fill="#525252"/>
</svg>
