<svg width="27" height="27" viewBox="0 0 27 27"  xmlns="http://www.w3.org/2000/svg">
<g clip-path="url(#clip0_514_1189)">
<path d="M19.0898 0H7.91016C3.54164 0 0 3.54164 0 7.91016V19.0898C0 23.4584 3.54164 27 7.91016 27H19.0898C23.4584 27 27 23.4584 27 19.0898V7.91016C27 3.54164 23.4584 0 19.0898 0ZM20.2737 13.4072C20.2737 14.8632 19.093 16.0439 17.637 16.0439H11.2277L12.1521 16.9683C12.6668 17.483 12.6668 18.3178 12.1521 18.833C11.6374 19.3477 10.8026 19.3477 10.2874 18.833L7.11228 15.6579C6.5976 15.1432 6.5976 14.3084 7.11228 13.7932L10.2874 10.6181C10.8021 10.1034 11.6369 10.1034 12.1521 10.6181C12.6668 11.1328 12.6668 11.9675 12.1521 12.4828L11.2277 13.4072H16.9778C17.3417 13.4072 17.637 13.1119 17.637 12.748V9.09932C17.637 8.37105 18.2271 7.78096 18.9554 7.78096C19.6836 7.78096 20.2737 8.37105 20.2737 9.09932V13.4072Z"/>
</g>
<defs>
<clipPath id="clip0_514_1189">
<rect width="27" height="27" fill="white"/>
</clipPath>
</defs>
</svg>
