<?xml version="1.0" encoding="UTF-8"?>
<svg id="Layer_1" data-name="Layer 1" xmlns="http://www.w3.org/2000/svg" viewBox="0 0 1080 1080">
  <defs>
    <style>
      .cls-1 {
        fill: none;
        stroke: #fff;
        stroke-miterlimit: 10;
      }

      .cls-2 {
        fill: #e5e5e5;
      }

      .cls-3 {
        fill: #431daa;
      }

      .cls-4 {
        fill: #5522c6;
      }

      .cls-5 {
        fill: #600eed;
      }

      .cls-6 {
        fill: #fff;
      }

      .cls-7 {
        fill: #003e99;
      }

      .cls-8 {
        fill: #f9f7fc;
      }

      .cls-9 {
        fill: #5f2fc9;
      }
    </style>
  </defs>
  <polygon class="cls-3" points="636.2 876.9 532.7 852.9 532.7 210.3 636.2 194.6 636.2 876.9"/>
  <polygon class="cls-3" points="269.2 931.1 190.9 907.6 190.9 175.4 269.2 160.6 269.2 931.1"/>
  <g>
    <ellipse class="cls-4" cx="550" cy="879.4" rx="114.3" ry="25.1"/>
    <polygon class="cls-7" points="664.3 863.1 664.3 880.5 650.1 878.3 649.2 866.4 664.3 863.1"/>
    <polygon class="cls-7" points="435.7 862.2 435.7 879.6 449.8 877.4 450.7 865.5 435.7 862.2"/>
    <ellipse class="cls-9" cx="550" cy="863.6" rx="114.3" ry="25.1"/>
  </g>
  <polygon class="cls-5" points="387.1 962.4 269.2 931.1 269.2 142.9 387.1 117.6 387.1 962.4"/>
  <polygon class="cls-4" points="387.1 962.4 532.7 891.4 532.7 156.1 387.1 117.6 387.1 962.4"/>
  <g>
    <path class="cls-6" d="M375.4,688.1v80.9l-56.4-8.8v-84l-23-2.4v109.2l92.3,15.8v-109.2l-12.9-1.4v-.1Z"/>
    <path class="cls-6" d="M349,476.4c10.4-4.9,23.4-7.4,39.1-7.7h.3v-27.5h-.3c-20.5.6-37.7,4.7-51.8,12.1-13.9,7.2-24.4,16.9-31.7,28.9-7.2,11.9-10.8,25.3-10.8,40.3s3.6,28.6,10.8,40.7c7.3,12.2,17.8,22.2,31.7,29.9,14.1,7.8,31.3,12.4,51.8,13.7h.3v-27.5h-.3c-15.6-.7-28.6-3.7-39.1-8.9-10.3-5.1-18-11.8-23.2-20s-7.8-17.3-7.8-27.5,2.6-19.2,7.8-27.2c5.2-8.1,12.9-14.5,23.2-19.3h0Z"/>
    <path class="cls-6" d="M383,267.4c-2.6,6.5-4.6,12.7-6.1,18.7l-4.9,18.4c-.9,3.7-2.1,7.5-3.6,11.5s-3.3,7.8-5.5,11.3-4.9,6.5-8.1,8.8-7,3.7-11.4,4.1-9.8-.6-13.9-3.1c-4-2.5-7.2-6.3-9.5-11.4s-3.4-11.2-3.4-18.4,2.3-18.8,6.9-26c4.6-7.3,11.1-12,19.6-14v-26.1c-9.8,1.7-18.5,5.7-25.9,12.1-7.4,6.3-13.2,14.3-17.3,23.9-4.2,9.6-6.2,20.2-6.2,32s2.1,21.9,6.3,30.8c4.2,9,10.1,15.9,17.8,20.7,7.7,4.9,16.8,7,27.4,6.2,13-1,23.5-6,31.6-15.2,4.4-5,8.3-10.9,11.6-17.7v-77.5c-2.1,3.5-3.8,7.2-5.3,10.9h-.1Z"/>
  </g>
  <g>
    <polygon class="cls-2" points="480.2 662.4 480.2 769.9 388.3 798.7 388.3 689.5 400.6 686.7 400.6 767.4 457.6 750.8 457.6 667.3 480.2 662.4"/>
    <path class="cls-8" d="M482.5,515.8c0,14.7-3.5,28.2-10.6,40.6-7.2,12.6-17.6,23.2-31.4,32-14.1,9-31.4,15.1-52.1,18.4v-27.5c15.9-2.1,28.9-6.2,39.4-12.2,10.3-5.9,18-13.1,23.2-21.6,5.1-8.4,7.7-17.6,7.7-27.6s-2.6-18.6-7.7-26.2c-5.2-7.6-12.9-13.5-23.2-17.6-10.5-4.2-23.5-6-39.4-5.4v-27.5c20.8-.4,38.1,2.8,52.2,9.3,13.8,6.4,24.2,15.2,31.4,26.6,7.1,11.2,10.6,24,10.6,38.6l-.1.1Z"/>
    <path class="cls-8" d="M483,309.1c0,12.7-2,23.5-6.1,32.5-4.1,9.1-9.9,16.1-17.6,21-7.8,5-17.2,7.6-28.2,7.7v-26.8c6.7,0,12.1-1.8,16.5-5.1,4.3-3.3,7.5-7.7,9.5-13.1s3.1-11.5,3.1-18.2-1.2-14.1-3.6-20.1c-2.4-6.1-5.8-11.1-10.1-15-4.4-3.9-9.6-6.3-15.6-7.1s-10.1.2-13.7,2.7c-3.6,2.6-6.6,6.3-9,11.1-2.4,4.9-4.5,10.5-6.3,16.8l-6.3,20.9c-1.9,6.5-4.3,12.4-7.1,17.6v-77.5c1.5-2.2,3.2-4.2,5-6.2,4.3-4.6,9.6-8.1,15.8-10.4,6.2-2.2,13.5-2.7,21.9-1.4s19.5,5.5,27.3,11.8c7.7,6.1,13.7,14.2,18.1,24.2,4.3,9.9,6.5,21.5,6.5,34.7l-.1-.1Z"/>
  </g>
  <polygon class="cls-4" points="917.8 854.1 827.5 927.5 827.5 128.5 917.8 181.4 917.8 854.1"/>
  <polygon class="cls-5" points="827.5 927.5 636.2 876.9 636.2 163.4 827.5 128.5 827.5 927.5"/>
  <g>
    <line class="cls-1" x1="636.2" y1="191.6" x2="651.8" y2="189.5"/>
    <line class="cls-1" x1="636.2" y1="219.1" x2="651.8" y2="217.2"/>
    <line class="cls-1" x1="636.2" y1="246.5" x2="651.8" y2="245"/>
    <line class="cls-1" x1="636.2" y1="274" x2="651.8" y2="272.8"/>
    <line class="cls-1" x1="636.2" y1="301.5" x2="651.8" y2="300.5"/>
    <line class="cls-1" x1="636.2" y1="329" x2="651.8" y2="328.3"/>
    <line class="cls-1" x1="636.2" y1="356.5" x2="651.8" y2="356.1"/>
    <line class="cls-1" x1="636.2" y1="384" x2="651.8" y2="383.9"/>
    <line class="cls-1" x1="636.2" y1="411.5" x2="651.8" y2="411.6"/>
    <line class="cls-1" x1="636.2" y1="439" x2="651.8" y2="439.4"/>
    <line class="cls-1" x1="636.2" y1="466.5" x2="651.8" y2="467.2"/>
    <line class="cls-1" x1="636.2" y1="494" x2="651.8" y2="495"/>
    <line class="cls-1" x1="636.2" y1="521.5" x2="651.8" y2="522.7"/>
    <line class="cls-1" x1="636.2" y1="549" x2="651.8" y2="550.5"/>
    <line class="cls-1" x1="636.2" y1="576.5" x2="651.8" y2="578.3"/>
    <line class="cls-1" x1="636.2" y1="603.9" x2="651.8" y2="606"/>
    <line class="cls-1" x1="636.2" y1="631.4" x2="651.8" y2="633.8"/>
    <line class="cls-1" x1="636.2" y1="658.9" x2="651.8" y2="661.6"/>
    <line class="cls-1" x1="636.2" y1="686.4" x2="651.8" y2="689.4"/>
    <line class="cls-1" x1="636.2" y1="713.9" x2="651.8" y2="717.1"/>
    <line class="cls-1" x1="636.2" y1="741.4" x2="651.8" y2="744.9"/>
    <line class="cls-1" x1="636.2" y1="768.9" x2="651.8" y2="772.7"/>
    <line class="cls-1" x1="636.2" y1="796.4" x2="651.8" y2="800.4"/>
    <line class="cls-1" x1="636.2" y1="823.9" x2="651.8" y2="828.2"/>
    <line class="cls-1" x1="636.2" y1="851.4" x2="651.8" y2="856"/>
  </g>
  <g>
    <line class="cls-1" x1="827.9" y1="170.5" x2="843.6" y2="176.2"/>
    <line class="cls-1" x1="827.9" y1="200.5" x2="843.6" y2="205.5"/>
    <line class="cls-1" x1="827.9" y1="230.4" x2="843.6" y2="234.8"/>
    <line class="cls-1" x1="827.9" y1="260.4" x2="843.6" y2="264.1"/>
    <line class="cls-1" x1="827.9" y1="290.4" x2="843.6" y2="293.4"/>
    <line class="cls-1" x1="827.9" y1="320.4" x2="843.6" y2="322.7"/>
    <line class="cls-1" x1="827.9" y1="350.4" x2="843.6" y2="352"/>
    <line class="cls-1" x1="827.9" y1="380.4" x2="843.6" y2="381.3"/>
    <line class="cls-1" x1="827.9" y1="410.3" x2="843.6" y2="410.6"/>
    <line class="cls-1" x1="827.9" y1="440.3" x2="843.6" y2="439.9"/>
    <line class="cls-1" x1="827.9" y1="470.3" x2="843.6" y2="469.2"/>
    <line class="cls-1" x1="827.9" y1="500.3" x2="843.6" y2="498.5"/>
    <line class="cls-1" x1="827.9" y1="530.3" x2="843.6" y2="527.8"/>
    <line class="cls-1" x1="827.9" y1="560.2" x2="843.6" y2="557.1"/>
    <line class="cls-1" x1="827.9" y1="590.2" x2="843.6" y2="586.4"/>
    <line class="cls-1" x1="827.9" y1="620.2" x2="843.6" y2="615.7"/>
    <line class="cls-1" x1="827.9" y1="650.2" x2="843.6" y2="645"/>
    <line class="cls-1" x1="827.9" y1="680.2" x2="843.6" y2="674.3"/>
    <line class="cls-1" x1="827.9" y1="710.1" x2="843.6" y2="703.6"/>
    <line class="cls-1" x1="827.9" y1="740.1" x2="843.6" y2="732.9"/>
    <line class="cls-1" x1="827.9" y1="770.1" x2="843.6" y2="762.2"/>
    <line class="cls-1" x1="827.9" y1="800.1" x2="843.6" y2="791.5"/>
    <line class="cls-1" x1="827.9" y1="830.1" x2="843.6" y2="820.8"/>
    <line class="cls-1" x1="827.9" y1="860.1" x2="843.6" y2="850.1"/>
    <line class="cls-1" x1="827.9" y1="890" x2="843.6" y2="879.4"/>
  </g>
</svg>