<?xml version="1.0" encoding="UTF-8"?>
<svg xmlns="http://www.w3.org/2000/svg" version="1.1" viewBox="0 0 2000 2000">
  <defs>
    <style>
      .cls-1 {
        fill: #525252;
      }
    </style>
  </defs>
  <!-- Generator: Adobe Illustrator 28.7.1, SVG Export Plug-In . SVG Version: 1.2.0 Build 142)  -->
  <g>
    <g id="Layer_1">
      <g id="Layer_1-2" data-name="Layer_1">
        <path class="cls-1" d="M835.3,1816.3c0,38.8,33.2,72,72,72s72-33.2,72-72v-506.6h-141.2v506.6h-2.8Z"/>
        <path class="cls-1" d="M1006.9,1816.3c0,38.8,33.2,72,72,72s72-33.2,72-72v-506.6h-144v506.6Z"/>
        <path class="cls-1" d="M644.3,1160.2c-16.6,8.3-36,8.3-52.6,2.8-32.9-10.9-46.8-43.7-39-76.6h135.3l-10.5,35.1c-5.6,16.6-16.6,30.5-33.2,38.8h0Z"/>
        <polygon class="cls-1" points="1278.2 1129.7 1328.1 1279.2 655.3 1279.2 705.2 1129.7 718.1 1086.3 1265.2 1086.3 1278.2 1129.7"/>
        <path class="cls-1" d="M763.1,835.5h-135.7l58.4-195.8c27.7-96.9,113.5-160.6,213.1-160.6h188.3c99.7,0,185.5,63.7,213.1,160.6l56.8,195.8h-137.7l-43.7-145.9c-2.7-8.3-11.1-13.9-19.4-11.1-5.5,0-11.1,8.3-8.3,16.6l42,140.4h-397.5l42.6-143.2c0-5.5-2.8-13.8-11.1-16.6-5.6,0-13.9,2.8-16.6,11.1l-44.5,148.7h.2Z"/>
        <path class="cls-1" d="M1391.7,1165.7c-16.6,5.6-36,5.6-52.6-2.8-16.6-8.3-27.7-22.2-33.2-38.8l-11.4-37.9h135.4l.6,1.9c8.3,30.4-8.3,66.5-38.8,77.5h0Z"/>
        <path class="cls-1" d="M993.1,454.3c94.1,0,168.9-74.7,168.9-168.9s-74.7-168.9-168.9-168.9-168.9,74.7-168.9,168.9,74.7,168.9,168.9,168.9Z"/>
        <g>
          <path class="cls-1" d="M300.9,352.5c-32.4,0-58.6-26.2-58.6-58.6v-98.7c0-107.6,87.6-195.2,195.2-195.2h98.7c32.4,0,58.6,26.2,58.6,58.6s-26.2,58.6-58.6,58.6h-98.7c-43,0-78,35-78,78.1v98.7c0,32.4-26.2,58.6-58.6,58.6h0Z"/>
          <path class="cls-1" d="M536.2,2000h-98.7c-107.7,0-195.2-87.6-195.2-195.2v-98.7c0-32.4,26.2-58.6,58.6-58.6s58.6,26.2,58.6,58.6v98.7c0,43,35,78.1,78,78.1h98.7c32.4,0,58.6,26.2,58.6,58.6s-26.2,58.6-58.6,58.6h0Z"/>
          <g>
            <path class="cls-1" d="M1477.6,117.2h98.7c43,0,78,35,78,78.1v98.7c0,32.4,26.2,58.6,58.6,58.6s58.6-26.2,58.6-58.6v-98.7C1771.5,87.6,1683.9.1,1576.3.1h-98.7c-32.4,0-58.6,26.2-58.6,58.6s26.2,58.6,58.6,58.6h0Z"/>
            <path class="cls-1" d="M1713,1647.5c-32.4,0-58.6,26.2-58.6,58.6v98.7c0,43-35,78.1-78,78.1h-98.7c-32.4,0-58.6,26.2-58.6,58.6s26.2,58.6,58.6,58.6h98.7c107.7,0,195.2-87.6,195.2-195.2v-98.7c0-32.4-26.2-58.6-58.6-58.6h0Z"/>
          </g>
        </g>
        <path class="cls-1" d="M1699.1,902.3H287c-32.4,0-58.6,26.2-58.6,58.6s26.2,58.6,58.6,58.6h1412.1c32.4,0,58.6-26.2,58.6-58.6s-26.2-58.6-58.6-58.6Z"/>
      </g>
    </g>
  </g>
</svg>