<svg width="45" height="52" viewBox="0 0 45 52" fill="none" xmlns="http://www.w3.org/2000/svg">
<g clip-path="url(#clip0_525_1339)">
<path d="M29.1023 6.5867H29.076C29.047 6.47761 29.0171 6.36939 28.9863 6.26207C29.0259 6.36939 29.0646 6.47761 29.1023 6.5867Z" fill="#0040B7"/>
<path d="M30.2795 13.6054C30.2795 13.7632 30.2786 13.9202 30.2751 14.0772C30.2522 15.5088 30.1239 16.8898 29.9051 18.1946C29.8374 18.2726 29.768 18.3498 29.6977 18.4252C29.6977 18.4261 29.6968 18.4261 29.6968 18.4261C29.6599 18.4678 29.6212 18.5077 29.5825 18.5476C28.2132 19.9774 26.465 20.9974 24.513 21.4241C23.8485 21.5687 23.1612 21.6449 22.4563 21.6449C19.5437 21.6449 16.9175 20.3437 15.0639 18.2576C14.9514 18.1316 14.8415 18.0021 14.736 17.87C13.3474 16.1528 12.4588 13.9673 12.3059 11.5671C12.2988 11.4633 12.2936 11.3586 12.29 11.2531C12.2839 11.1103 12.2812 10.9666 12.2812 10.8229C12.2812 6.6071 14.5471 2.95453 17.8553 1.16815C17.959 1.11138 18.0645 1.05639 18.1708 1.00406C19.4733 0.360113 20.9253 0 22.4563 0C23.8529 0 25.1827 0.298912 26.3938 0.839969C27.4679 2.18552 28.3626 4.05172 28.9866 6.26207C29.0174 6.36939 29.0473 6.4776 29.0763 6.5867H29.1026C29.6801 8.24979 30.0773 10.1524 30.2452 12.1968V12.2048C30.2681 12.6661 30.2795 13.1335 30.2795 13.6054Z" fill="#0353E9"/>
<path d="M34.7006 13.6231V16.2193C34.7006 17.5941 34.0203 18.8776 32.8865 19.6404L31.2386 20.75L30.5451 22.8486C30.2524 23.7347 29.8253 24.5471 29.2918 25.2674C28.0481 26.9455 26.2227 28.119 24.1634 28.5341C23.8663 28.5944 23.564 28.6388 23.2581 28.6654C23.041 28.6858 22.8222 28.6964 22.6016 28.6991C24.5738 28.6494 26.3615 27.1628 27.6816 24.7706C27.6816 24.7698 27.6816 24.7689 27.6834 24.768C27.6852 24.7662 27.686 24.7644 27.6869 24.7618C28.0772 24.0859 28.4313 23.3373 28.7434 22.5266C28.7724 22.4539 28.7996 22.3811 28.8269 22.3075C29.2725 21.111 29.6284 19.7841 29.8763 18.3649C29.8859 18.3081 29.8956 18.2514 29.9053 18.1946C30.1241 16.8898 30.2524 15.5088 30.2753 14.0772C30.2788 13.9202 30.2797 13.7632 30.2797 13.6054C30.2797 13.1335 30.2683 12.666 30.2454 12.2048V12.1968C30.0775 10.1524 29.6803 8.24978 29.1028 6.5867C29.065 6.4776 29.0264 6.36939 28.9868 6.26206C28.3628 4.05171 27.4681 2.18551 26.394 0.839966C26.4934 0.884315 26.5909 0.930438 26.6885 0.977447C29.4254 2.31058 31.5093 4.89434 32.2924 8.04223C32.5499 8.94429 32.687 9.8969 32.687 10.8814V11.5671C33.8015 11.5804 34.7006 12.4949 34.7006 13.6231Z" fill="#0040B7"/>
<path d="M41.7224 37.7321L31.7477 33.3805C30.3247 32.7597 29.3816 31.3822 29.2973 29.8335L25.2227 37.9237L42.2831 51.9991H44.3204C44.6957 51.9991 44.9998 51.6922 44.9998 51.3135V42.763C44.9998 40.5757 43.7122 38.5986 41.7224 37.7303V37.7321Z" fill="#0040B7"/>
<path d="M39.5736 37.7321L31.3242 33.3806C30.1474 32.7597 29.3687 31.3822 29.2983 29.8335C29.2939 29.7581 29.2913 29.6827 29.2913 29.6065V29.1266H15.7096V29.6065C15.7096 31.2465 14.7437 32.7295 13.2521 33.3806L3.27744 37.7321C1.2876 38.6004 0 40.5784 0 42.7648V51.3153C0 51.694 0.304102 52.0009 0.679395 52.0009H42.2842V42.7657C42.2842 40.5784 41.2189 38.6013 39.5736 37.733V37.7321Z" fill="#0353E9"/>
<path d="M29.2918 25.2674V29.1275C27.3872 30.5937 25.0212 31.4407 22.5014 31.4407C19.9815 31.4407 17.6155 30.5937 15.7109 29.1275V22.5266H28.7442C28.4322 23.3373 28.078 24.0859 27.6878 24.7618C27.6869 24.7644 27.686 24.7662 27.6843 24.768C27.6834 24.7689 27.6834 24.7698 27.6825 24.7707C26.3624 27.1628 24.5747 28.6494 22.6024 28.6991C22.823 28.6964 23.0419 28.6858 23.259 28.6654C23.5648 28.6388 23.8672 28.5944 24.1643 28.5341C26.2235 28.119 28.049 26.9455 29.2927 25.2674H29.2918Z" fill="#0040B7"/>
<path d="M22.7245 28.7C22.6832 28.7 22.6419 28.7 22.6006 28.7C22.8212 28.6973 23.04 28.6867 23.2571 28.6663C23.1156 28.6849 22.9724 28.6964 22.8282 28.7C22.7939 28.7 22.7588 28.7 22.7245 28.7Z" fill="#0353E9"/>
<path d="M30.2791 13.6054C30.2791 13.7632 30.2782 13.9202 30.2747 14.0772C30.2519 15.5088 30.1235 16.8898 29.9047 18.1946C29.895 18.2514 29.8854 18.3081 29.8757 18.3649C29.6278 19.7841 29.2719 21.111 28.8263 22.3075C28.799 22.3811 28.7718 22.4539 28.7428 22.5266C28.4308 23.3373 28.0766 24.0859 27.6863 24.7618C27.6855 24.7644 27.6846 24.7662 27.6828 24.768C27.6819 24.7689 27.6819 24.7698 27.6811 24.7706C26.3609 27.1628 24.5732 28.6494 22.601 28.6991C19.8755 28.6601 17.3855 27.3305 15.8097 25.2053C15.7754 25.16 15.742 25.1139 15.7095 25.0678C15.2111 24.3688 14.8121 23.5874 14.5317 22.7404L13.8269 20.6027L12.1473 19.4727C10.9933 18.6957 10.2998 17.3892 10.2998 15.9887V13.3446C10.2998 12.2155 11.184 11.2974 12.2896 11.2531C12.3072 11.2513 12.3248 11.2504 12.3424 11.2504H12.3512V10.5524C12.3512 9.15628 12.6228 7.82404 13.1141 6.60622C13.2187 6.34633 13.4727 6.17781 13.7521 6.17781H28.9555C28.966 6.20619 28.9766 6.23369 28.9862 6.26207C29.0258 6.36939 29.0645 6.47761 29.1022 6.5867C29.6797 8.24979 30.077 10.1524 30.2448 12.1968V12.2048C30.2677 12.6661 30.2791 13.1335 30.2791 13.6054Z" fill="#0353E9"/>
</g>
<defs>
<clipPath id="clip0_525_1339">
<rect width="45" height="52" fill="white"/>
</clipPath>
</defs>
</svg>
