<svg width="23" height="23" viewBox="0 0 23 23" fill="none" xmlns="http://www.w3.org/2000/svg">
<path fill-rule="evenodd" clip-rule="evenodd" d="M16.4993 0.1186C16.6575 -0.0395332 16.9139 -0.0395332 17.072 0.1186L22.8814 5.92809C23.0395 6.08623 23.0395 6.3426 22.8814 6.50073C22.7233 6.65887 22.4669 6.65887 22.3088 6.50073L21.0799 5.27182L18.5244 7.82731L20.3822 9.68515C20.5403 9.84328 20.5403 10.0997 20.3822 10.2578C20.2241 10.4159 19.9677 10.4159 19.8096 10.2578L19.0093 9.45747L16.1896 12.2772C16.1271 12.3397 16.06 12.3948 15.9894 12.4424L16.0068 12.4598L7.69787 20.7688C7.17078 21.2959 6.31618 21.2959 5.78909 20.7688L4.29643 19.2762L0.691237 22.8814C0.533106 23.0395 0.276726 23.0395 0.118598 22.8814C-0.0395327 22.7233 -0.0395327 22.4669 0.118598 22.3088L3.7238 18.7035L2.23149 17.2112C1.70439 16.6841 1.70439 15.8295 2.23149 15.3024L3.02834 14.5055L4.85848 16.3356C5.01662 16.4938 5.27301 16.4938 5.43114 16.3356C5.58925 16.1775 5.58925 15.9211 5.43114 15.763L3.601 13.9328L4.74624 12.7876L6.57638 14.6177C6.73452 14.7759 6.99088 14.7759 7.14902 14.6177C7.30715 14.4596 7.30715 14.2032 7.14902 14.0451L5.31887 12.2149L6.46422 11.0696L8.29439 12.8998C8.45253 13.0579 8.70892 13.0579 8.86703 12.8998C9.02516 12.7416 9.02516 12.4853 8.86703 12.3271L7.03686 10.4969L10.5404 6.99333L10.5576 7.01058C10.6053 6.93997 10.6604 6.87288 10.7229 6.81039L13.5426 3.9907L12.8519 3.30007C12.6938 3.14193 12.6938 2.88556 12.8519 2.72743C13.0101 2.56929 13.2664 2.56929 13.4246 2.72743L15.1728 4.47569L17.7283 1.9202L16.4993 0.691246C16.3412 0.533113 16.3412 0.276732 16.4993 0.1186ZM15.3878 11.8408L11.1593 7.61222C11.1839 7.52832 11.2293 7.44922 11.2955 7.38306L14.1121 4.56648L18.4335 8.88796L15.6169 11.7045C15.5508 11.7707 15.4717 11.8161 15.3878 11.8408Z" fill="#525252"/>
</svg>
