<svg width="55" height="55" viewBox="0 0 55 55" fill="none" xmlns="http://www.w3.org/2000/svg">
<path d="M31.3165 3.00781H3.00781V20.4854C3.00781 20.4854 19.1976 18.2011 27.5503 14.2893C27.5503 14.2893 24.0857 21.3189 27.5743 28.2369C28.6027 30.2555 29.2595 32.4426 29.5131 34.6938C29.7176 36.3804 29.8693 38.0454 29.978 39.4505C30.1304 41.5035 29.7829 43.563 28.9652 45.4523C28.5028 46.4964 28.2555 47.623 28.2382 48.7648C28.2382 49.6208 28.5782 50.4417 29.1835 51.0469C29.7887 51.6522 30.6096 51.9922 31.4656 51.9922H32.8711C33.8228 51.9922 34.7674 51.8293 35.6641 51.5105C36.8335 51.096 38.0996 51.0375 39.3022 51.3425C40.9526 51.7623 42.6478 51.9805 44.3506 51.9922C45.4086 51.929 46.4612 51.7958 47.5015 51.5934C48.2202 51.7977 48.9591 51.9227 49.705 51.9664C51.3945 51.9664 51.9922 51.0301 51.9922 49.0716L48.125 48.4245C45.934 47.1234 43.6733 45.9432 41.3531 44.8895C40.3228 44.4279 39.4483 43.6778 38.8352 42.7298C38.2221 41.7818 37.8967 40.6765 37.8984 39.5476L37.9801 9.67141C37.9801 7.90411 37.278 6.2092 36.0284 4.95953C34.7787 3.70987 33.0838 3.00781 31.3165 3.00781Z" fill="#0353E9"/>
<path d="M34.1662 13.0552L34.6818 13.3409C34.8558 13.4344 35.0597 13.4557 35.2492 13.4001C35.4388 13.3444 35.5989 13.2165 35.6949 13.0438C35.7908 12.8711 35.815 12.6676 35.7621 12.4772C35.7092 12.2869 35.5835 12.125 35.4123 12.0265L34.8966 11.7408C34.5241 11.5339 34.2004 11.2494 33.9472 10.9067C33.6941 10.5639 33.5175 10.1708 33.4292 9.75392L32.9725 7.5956C32.952 7.49902 32.9128 7.40742 32.8569 7.32602C32.801 7.24463 32.7297 7.17503 32.6469 7.1212C32.5642 7.06738 32.4717 7.03038 32.3746 7.01232C32.2775 6.99426 32.1779 6.99549 32.0813 7.01595C31.9847 7.0364 31.8931 7.07568 31.8117 7.13154C31.7303 7.18739 31.6607 7.25873 31.6069 7.34149C31.5531 7.42424 31.5161 7.51678 31.498 7.61383C31.48 7.71089 31.4812 7.81055 31.5017 7.90712L31.958 10.065C32.0907 10.6924 32.3565 11.284 32.7375 11.7998C33.1184 12.3157 33.6056 12.7438 34.1662 13.0552Z" fill="#0040B7"/>
<path d="M33.1791 42.06C33.0974 42.0045 33.0055 41.9657 32.9088 41.9457C32.8121 41.9257 32.7124 41.925 32.6154 41.9435C32.5184 41.9621 32.426 41.9995 32.3435 42.0538C32.261 42.1081 32.19 42.1781 32.1345 42.2598C31.6189 43.016 31.0551 44.7799 32.59 46.041C32.6654 46.1093 32.7539 46.1615 32.8501 46.1946C32.9463 46.2276 33.0482 46.2408 33.1497 46.2334C33.2511 46.2259 33.35 46.1979 33.4403 46.1511C33.5307 46.1043 33.6106 46.0397 33.6752 45.9611C33.7398 45.8826 33.7878 45.7917 33.8163 45.694C33.8448 45.5964 33.8532 45.494 33.841 45.393C33.8287 45.292 33.7961 45.1945 33.7451 45.1065C33.6941 45.0185 33.6258 44.9417 33.5443 44.8809C32.7236 44.2067 33.2629 43.2837 33.3814 43.1028C33.4927 42.9376 33.5339 42.735 33.4959 42.5395C33.458 42.344 33.344 42.1716 33.1791 42.06Z" fill="#0040B7"/>
</svg>
