<?xml version="1.0" encoding="UTF-8"?>
<svg xmlns="http://www.w3.org/2000/svg" version="1.1" viewBox="0 0 2000 2000">
  <defs>
    <style>
      .cls-1 {
        fill: #525252;
      }
    </style>
  </defs>
  <!-- Generator: Adobe Illustrator 28.7.1, SVG Export Plug-In . SVG Version: 1.2.0 Build 142)  -->
  <g>
    <g id="Layer_1">
      <g id="Layer_1-2" data-name="Layer_1">
        <g>
          <circle class="cls-1" cx="1003" cy="296.6" r="182.8"/>
          <path class="cls-1" d="M640,1086.3h132.9v51.7c0,36-30.5,66.5-66.5,66.5s-66.5-30.4-66.5-66.5v-51.7h0Z"/>
          <path class="cls-1" d="M800.5,1086.3h384.8v713.4c0,47-41.5,88.6-88.6,88.6s-88.6-38.8-88.6-88.6v-559.2c0-8.3-5.6-13.8-13.8-13.8s-13.9,5.6-13.9,13.8v559.2c0,47-41.5,88.6-91.3,88.6s-88.6-38.8-88.6-88.6v-713.4h0Z"/>
          <path class="cls-1" d="M1213.1,1086.3h132.9v51.7c0,36-30.4,66.5-66.5,66.5s-66.4-30.4-66.4-66.5v-51.7Z"/>
          <path class="cls-1" d="M1345.9,700.6v134.9h-132.9v-104.4c0-8.3-5.6-13.9-13.9-13.9s-13.8,5.6-13.8,13.9v104.4h-384.8v-104.4c0-8.3-5.6-13.9-13.8-13.9s-13.8,5.6-13.8,13.9v104.4h-132.9v-134.9c0-108,88.6-196.5,196.5-196.5h315.6c110.7,0,199.3,88.6,193.8,196.5Z"/>
          <g>
            <path class="cls-1" d="M300.9,352.5c-32.4,0-58.6-26.2-58.6-58.6v-98.7c0-107.6,87.6-195.2,195.2-195.2h98.7c32.4,0,58.6,26.2,58.6,58.6s-26.2,58.6-58.6,58.6h-98.7c-43,0-78,35-78,78.1v98.7c0,32.4-26.2,58.6-58.6,58.6h0Z"/>
            <path class="cls-1" d="M536.2,2000h-98.7c-107.7,0-195.2-87.6-195.2-195.2v-98.7c0-32.4,26.2-58.6,58.6-58.6s58.6,26.2,58.6,58.6v98.7c0,43,35,78.1,78,78.1h98.7c32.4,0,58.6,26.2,58.6,58.6s-26.2,58.6-58.6,58.6h0Z"/>
            <g>
              <path class="cls-1" d="M1477.6,117.2h98.7c43,0,78,35,78,78.1v98.7c0,32.4,26.2,58.6,58.6,58.6s58.6-26.2,58.6-58.6v-98.7C1771.5,87.6,1683.9.1,1576.3.1h-98.7c-32.4,0-58.6,26.2-58.6,58.6s26.2,58.6,58.6,58.6h0Z"/>
              <path class="cls-1" d="M1713,1647.5c-32.4,0-58.6,26.2-58.6,58.6v98.7c0,43-35,78.1-78,78.1h-98.7c-32.4,0-58.6,26.2-58.6,58.6s26.2,58.6,58.6,58.6h98.7c107.7,0,195.2-87.6,195.2-195.2v-98.7c0-32.4-26.2-58.6-58.6-58.6h0Z"/>
            </g>
          </g>
          <path class="cls-1" d="M1699.1,902.3H287c-32.4,0-58.6,26.2-58.6,58.6s26.2,58.6,58.6,58.6h1412.1c32.4,0,58.6-26.2,58.6-58.6s-26.2-58.6-58.6-58.6Z"/>
        </g>
      </g>
    </g>
  </g>
</svg>