<svg width="22" height="22" viewBox="0 0 22 22" fill="none" xmlns="http://www.w3.org/2000/svg">
<path d="M18.1852 5.63184C18.4946 7.6744 20.0508 8.87314 20.0508 10.8069C20.0508 11.9551 19.6015 13.0006 18.8693 13.7784C18.7104 14.2231 18.0701 16.1615 17.9746 18.7462H21.5036C21.7777 18.7462 21.9999 18.5241 21.9999 18.25V6.12813C21.9999 5.85403 21.7777 5.63184 21.5036 5.63184H18.1852Z" fill="#525252"/>
<path d="M4.10863 20.032C4.10825 20.7525 4.01389 21.4685 3.9231 21.9908H17.8955C17.8048 21.4671 17.7112 20.7514 17.7116 20.032H4.10863Z" fill="#525252"/>
<path d="M18.1415 8.95839C17.3358 7.70229 16.9831 6.31912 16.8788 5.63184H5.13073C4.72794 8.12119 3.23486 9.08004 3.23486 10.8068C3.23486 11.6207 3.54987 12.3858 4.12191 12.9614C4.6946 13.5376 5.46065 13.8592 6.2789 13.8671C6.28904 13.8672 6.29922 13.8672 6.30941 13.8672C7.1054 13.8672 7.85972 13.5668 8.43662 13.0194C8.69413 12.775 9.10096 12.7856 9.34537 13.0431C9.58977 13.3006 9.57916 13.7075 9.3216 13.9519C8.50455 14.7273 7.43635 15.1529 6.30966 15.1529C6.29527 15.1529 6.28096 15.1529 6.26652 15.1527C5.79855 15.1482 5.34252 15.071 4.91155 14.9267C5.14758 15.8728 5.38781 17.1864 5.44152 18.7462H16.688C16.7408 17.1843 16.9772 15.849 17.2093 14.8808C16.7362 15.0566 16.2246 15.1529 15.6907 15.1529C14.5309 15.1529 13.4384 14.7043 12.6144 13.8898C12.3619 13.6402 12.3595 13.2332 12.6091 12.9807C12.8587 12.7282 13.2657 12.7258 13.5182 12.9755C14.1 13.5505 14.8716 13.8673 15.6907 13.8673C17.3861 13.8673 18.7653 12.4944 18.7653 10.8068C18.7654 10.1328 18.5496 9.49357 18.1415 8.95839Z" fill="#525252"/>
<path d="M19.2045 22H20.124C20.3981 22 20.6203 21.7778 20.6203 21.5037V20.032H18.9968C18.9962 20.7678 19.1136 21.525 19.2045 22Z" fill="#525252"/>
<path d="M1.68428 21.9908H2.61563C2.70612 21.5178 2.82304 20.765 2.82329 20.032H1.18799V21.4946C1.18799 21.7687 1.41018 21.9908 1.68428 21.9908Z" fill="#525252"/>
<path d="M19.8872 2.99587C19.4138 2.48493 18.7698 2.17289 18.0737 2.1172L14.9969 1.87112C14.3618 1.82033 13.7738 1.53527 13.3414 1.06855C13.1307 0.841071 12.966 0.580336 12.8525 0.299192C12.7796 0.118852 12.6057 0 12.4113 0H9.3577C9.1536 0 8.97545 0.131398 8.90708 0.323727C8.79438 0.640922 8.61786 0.934914 8.38454 1.18787C7.95468 1.654 7.36945 1.94021 6.73669 1.99375L4.07061 2.21934C3.37722 2.27803 2.73617 2.59136 2.26557 3.10161C1.93837 3.45645 1.71386 3.88511 1.60742 4.34616H20.5713C20.4753 3.84459 20.2407 3.37743 19.8872 2.99587Z" fill="#525252"/>
<path d="M3.26391 13.9206C3.24586 13.9031 3.22777 13.8856 3.20994 13.8677C2.39688 13.0496 1.94911 11.9626 1.94911 10.8068C1.94911 8.73521 3.6606 7.24011 3.81932 5.63184H0.496289C0.222191 5.63184 0 5.85403 0 6.12813V18.25C0 18.5241 0.222191 18.7463 0.496289 18.7463H4.15474C4.06055 16.2206 3.43974 14.3921 3.26391 13.9206Z" fill="#525252"/>
</svg>
