<svg width="34" height="34" viewBox="0 0 34 34" fill="none" xmlns="http://www.w3.org/2000/svg">
<path d="M19.4268 21.6166C19.1001 21.9431 18.6963 22.1926 18.2588 22.3385L14.0326 23.7471C13.7276 23.8489 13.4095 23.9005 13.0877 23.9005C12.2895 23.9005 11.539 23.5897 10.9746 23.0252C10.1691 22.2195 9.89254 21.0478 10.2528 19.9672L11.6615 15.7412C11.8073 15.3035 12.057 14.8995 12.3834 14.5731L12.9756 13.9809C16.1255 10.831 13.8946 5.44531 9.4401 5.44531H3.65234C1.63844 5.44531 0 7.08375 0 9.09766V30.3476C0 32.3615 1.63844 34 3.65234 34H24.9023C26.9162 34 28.5547 32.3615 28.5547 30.3476V24.5598C28.5547 20.1053 23.169 17.8744 20.0192 21.0242L19.4268 21.6166Z" fill="#525252"/>
<path d="M13.792 15.982C13.6827 16.0913 13.6003 16.2246 13.5515 16.3713L12.1427 20.5973C12.0234 20.9553 12.1165 21.3499 12.3833 21.6167C12.6501 21.8835 13.0447 21.9767 13.4026 21.8573L17.6287 20.4486C17.7755 20.3997 17.9087 20.3174 18.0181 20.208L28.3485 9.87761C29.5155 8.71063 29.5155 6.81857 28.3485 5.65158C27.1815 4.4846 25.2895 4.4846 24.1225 5.65158L13.792 15.982Z" fill="#525252"/>
<path d="M31.6353 0.486243C30.987 -0.162081 29.9359 -0.162081 29.2875 0.486243C28.3799 1.39392 28.3799 2.86555 29.2875 3.77322L30.2266 4.71233C31.1343 5.62001 32.6059 5.62001 33.5136 4.71234C34.1619 4.06401 34.1619 3.01287 33.5136 2.36454L31.6353 0.486243Z" fill="#525252"/>
</svg>
