<svg width="28" height="20" viewBox="0 0 28 20" fill="none" xmlns="http://www.w3.org/2000/svg">
<path d="M12.3529 9.47069C12.3529 10.6053 11.3132 11.5295 10.0368 11.5295H0.772059C0.345882 11.5295 0 11.2221 0 10.8432C0 10.4644 0.345882 10.157 0.772059 10.157H5.40441V8.78441H0.772059C0.345882 8.78441 0 8.47696 0 8.09814C0 7.71932 0.345882 7.41187 0.772059 7.41187H10.0368C11.3132 7.41187 12.3529 8.33605 12.3529 9.47069Z" fill="#525252"/>
<path d="M17.2942 9.47069C17.2942 10.6082 16.3728 11.5295 15.2353 11.5295C14.0978 11.5295 13.1765 10.6082 13.1765 9.47069C13.1765 8.33319 14.0978 7.41187 15.2353 7.41187C16.3728 7.41187 17.2942 8.33319 17.2942 9.47069Z" fill="#525252"/>
<path d="M28 9.88235C28 14.7939 26.7132 19.7647 24.2595 19.7647H18.2747C16.8683 19.7647 15.8479 18.1292 15.2304 15.8118H16.7745C17.2573 17.4285 17.8687 18.2824 18.2737 18.2824C19.0318 18.2824 20.518 15.3176 20.518 9.88235C20.518 4.44706 19.0318 1.48235 18.2737 1.48235C17.7121 1.48235 16.7516 3.11492 16.2908 6.17153C15.8997 6.02033 15.4778 5.92941 15.033 5.92941C14.9611 5.92941 14.8943 5.94621 14.8235 5.95016C15.3272 2.62969 16.4912 0 18.2747 0H24.2595C26.7132 0 28 4.97082 28 9.88235Z" fill="#525252"/>
<path d="M18.1176 13.8824C18.1176 14.272 17.7795 14.5883 17.3627 14.5883H13.085V17.8824H14.0915C14.6471 17.8824 15.098 18.304 15.098 18.8236V19.7647H3.01961V18.8236C3.01961 18.304 3.47054 17.8824 4.02614 17.8824H5.03268V14.5883H0.754902C0.338196 14.5883 0 14.272 0 13.8824C0 13.4927 0.338196 13.1765 0.754902 13.1765H17.3627C17.7795 13.1765 18.1176 13.4927 18.1176 13.8824Z" fill="#525252"/>
</svg>
