<svg viewBox="0 0 116 116" fill="white" xmlns="http://www.w3.org/2000/svg">
<g clip-path="url(#clip0_0_526)">
<path d="M57.5515 0C25.7635 0 -0.000488281 25.764 -0.000488281 57.552C-0.000488281 89.34 25.7635 115.104 57.5515 115.104C89.3395 115.104 115.104 89.34 115.104 57.552C115.104 25.764 89.3395 0 57.5515 0ZM100.704 63.084C98.0035 84.516 79.7155 101.088 57.5515 101.088C35.3875 101.088 17.9035 85.236 14.6035 64.5C14.5195 63.936 14.4355 63.372 14.3635 62.796C14.2915 62.22 14.2435 61.644 14.1955 61.068C14.1835 61.02 14.1835 60.984 14.1835 60.936C14.1475 60.432 14.1115 59.928 14.0875 59.412V59.232C14.0635 58.692 14.0515 58.14 14.0515 57.588C14.0515 52.704 14.8555 48.012 16.3435 43.62C16.7515 42.408 17.2075 41.22 17.7355 40.056C17.8315 39.816 17.9395 39.576 18.0595 39.336C18.4435 38.484 18.8635 37.656 19.3075 36.852C19.4755 36.54 19.6435 36.228 19.8235 35.916C20.1235 35.388 20.4475 34.86 20.7835 34.344C21.0355 33.924 21.3115 33.516 21.5995 33.108C21.9475 32.58 22.3075 32.064 22.6915 31.56C23.9515 29.892 25.3195 28.308 26.7955 26.832C28.7515 24.864 30.9115 23.076 33.2275 21.516C33.5275 21.312 33.8275 21.12 34.1275 20.916C40.8835 16.572 48.9355 14.052 57.5515 14.052C65.4235 14.052 72.8155 16.152 79.1995 19.848C79.8115 20.184 80.3995 20.544 80.9875 20.94C80.9875 20.94 80.9955 20.944 81.0115 20.952C81.3115 21.12 81.5995 21.312 81.8755 21.516C82.2355 21.744 82.5715 21.984 82.9195 22.236H82.9075C86.7475 24.996 90.1075 28.356 92.8555 32.184H92.8675C92.9275 32.256 92.9755 32.328 93.0235 32.412C94.5955 34.608 95.9635 36.972 97.1035 39.456C97.2835 39.852 97.4635 40.248 97.6315 40.656C97.7755 40.98 97.9075 41.304 98.0275 41.64C98.1715 41.964 98.2915 42.3 98.4115 42.636C98.5315 42.96 98.6515 43.296 98.7595 43.632C98.8675 43.92 98.9635 44.208 99.0475 44.508C99.0955 44.652 99.1435 44.784 99.1795 44.928C99.2635 45.18 99.3355 45.432 99.3955 45.684C99.4435 45.84 99.4915 46.008 99.5275 46.176C99.6115 46.464 99.6955 46.764 99.7675 47.052C99.9955 47.988 100.2 48.936 100.368 49.884C100.44 50.244 100.5 50.604 100.548 50.964C100.608 51.336 100.656 51.708 100.704 52.08C100.74 52.332 100.776 52.596 100.788 52.86C100.908 53.904 100.992 54.948 101.016 56.004C101.04 56.508 101.052 57.012 101.052 57.516V57.588C101.052 59.448 100.932 61.284 100.704 63.084Z" fill="#939393"/>
<path d="M44.3395 82.524H59.0875C59.8915 82.524 60.5635 81.924 60.6835 81.132L63.8035 57.624C63.8635 57.336 63.7435 57.036 63.5155 56.844C63.2875 56.652 62.9635 56.616 62.6875 56.736C62.4115 56.856 62.2315 57.12 62.2075 57.42C61.0195 66.36 61.6675 61.512 59.0875 80.916H44.3515C41.7715 61.512 42.4675 66.744 41.2195 57.42C41.1355 57 40.7515 56.712 40.3195 56.772C39.8875 56.832 39.5875 57.204 39.6235 57.636L42.7435 81.156C42.8635 81.948 43.5475 82.524 44.3395 82.536V82.524Z" fill="#939393"/>
<path d="M75.9116 40.584H72.6836C72.2396 40.584 71.8796 40.944 71.8796 41.388V43.008C71.8796 43.4521 72.2396 43.812 72.6836 43.812H75.9116C76.3557 43.812 76.7156 43.4521 76.7156 43.008V41.388C76.7156 40.944 76.3557 40.584 75.9116 40.584Z" fill="#939393"/>
<path d="M80.7595 34.944H67.8475C66.9594 34.944 66.2395 35.664 66.2395 36.552V37.368C66.2395 38.2561 66.9594 38.976 67.8475 38.976H80.7595C81.6476 38.976 82.3675 38.2561 82.3675 37.368V36.552C82.3675 35.664 81.6476 34.944 80.7595 34.944Z" fill="#939393"/>
<path d="M56.5074 45.432C52.8474 45.432 49.7634 48.156 49.3074 51.792L48.7194 56.52C48.6594 56.976 48.8034 57.444 49.1154 57.792C49.4274 58.14 49.8594 58.332 50.3274 58.332H54.5034C55.2474 58.332 55.8834 57.828 56.0634 57.108L56.8914 53.772C57.0114 53.304 57.3234 52.908 57.7674 52.704C58.2114 52.5 58.7034 52.5 59.1474 52.704C64.8354 55.356 68.5434 57.528 75.0234 57.528H82.3794C83.2674 57.528 83.9874 56.808 83.9874 55.92V47.052C83.9874 46.164 83.2674 45.444 82.3794 45.444H56.5314L56.5074 45.432ZM65.4234 49.464H63.8154C63.3714 49.464 63.0114 49.104 63.0114 48.66C63.0114 48.216 63.3714 47.856 63.8154 47.856H65.4234C65.8674 47.856 66.2274 48.216 66.2274 48.66C66.2274 49.104 65.8674 49.464 65.4234 49.464ZM80.7474 49.464H68.6514C68.2074 49.464 67.8474 49.104 67.8474 48.66C67.8474 48.216 68.2074 47.856 68.6514 47.856H80.7474C81.1914 47.856 81.5514 48.216 81.5514 48.66C81.5514 49.104 81.1914 49.464 80.7474 49.464Z" fill="#939393"/>
<path d="M57.7555 63.168C56.2435 63.168 56.2435 64.776 54.7315 64.776C53.2195 64.776 53.2195 63.168 51.7075 63.168C50.1955 63.168 50.1955 64.776 48.6955 64.776C47.1955 64.776 47.1835 63.168 45.6715 63.168C45.1675 63.168 44.6875 63.396 44.3515 63.768C44.0155 64.14 43.8475 64.644 43.8835 65.148L45.7675 79.32H57.6715L59.5555 65.16C59.5915 64.656 59.4235 64.152 59.0875 63.78C58.7515 63.408 58.2715 63.192 57.7555 63.18V63.168Z" fill="#DADADA"/>
</g>
<defs>
<clipPath id="clip0_0_526">
<rect width="115.104" height="115.104" fill="white" transform="translate(-0.000488281)"/>
</clipPath>
</defs>
</svg>
