<svg  viewBox="0 0 116 116" fill="none" xmlns="http://www.w3.org/2000/svg">
<g clip-path="url(#clip0_0_516)">
<path d="M84.4435 71.484H53.5555L43.4395 81.6H77.6995C82.4155 81.6 86.2554 77.76 86.2554 73.032V71.352C85.6674 71.436 85.0675 71.484 84.4435 71.484Z" fill="#939393"/>
<path d="M33.6714 71.484L29.3154 75.84C29.0154 74.964 28.8474 74.016 28.8474 73.032V71.352C29.4354 71.436 30.0354 71.484 30.6474 71.484H33.6714Z" fill="#939393"/>
<path d="M54.7914 50.364L40.4274 64.74H30.6474C27.0834 64.74 24.1794 61.836 24.1794 58.272V56.832C24.1794 53.268 27.0834 50.364 30.6474 50.364H54.7914Z" fill="#DADADA"/>
<path d="M90.9236 56.832V58.26C90.9236 61.836 88.0196 64.74 84.4436 64.74H60.2996L74.6756 50.364H84.4436C88.0196 50.364 90.9236 53.268 90.9236 56.832Z" fill="#DADADA"/>
<path d="M85.0074 43.632C84.8274 43.62 84.6354 43.62 84.4434 43.62H81.4194L83.7834 41.256C84.2514 42.012 84.6594 42.804 85.0074 43.632Z" fill="#939393"/>
<path d="M71.5675 33.588L61.5475 43.62H30.6475C30.4675 43.62 30.2755 43.62 30.0955 43.632C32.5555 37.692 38.4235 33.504 45.2395 33.504H69.8515C70.4395 33.504 71.0035 33.528 71.5675 33.588Z" fill="#939393"/>
<path d="M57.5515 0C25.7635 0 -0.000488281 25.764 -0.000488281 57.552C-0.000488281 89.34 25.7635 115.104 57.5515 115.104C89.3395 115.104 115.104 89.34 115.104 57.552C115.104 25.764 89.3395 0 57.5515 0ZM22.2355 82.92C17.0875 75.78 14.0515 67.008 14.0515 57.552C14.0515 33.564 33.5635 14.052 57.5515 14.052C67.0075 14.052 75.7795 17.088 82.9195 22.236L71.5675 33.588L61.5475 43.62L54.8035 50.364H54.7915L40.4275 64.74L33.6835 71.484H33.6715L29.3155 75.84L22.2355 82.92ZM57.5515 101.052C48.0835 101.052 39.3235 98.016 32.1715 92.856L40.8475 84.192L43.4395 81.6L53.5555 71.484L60.2995 64.74L74.6755 50.364L92.8675 32.172C98.0155 39.324 101.052 48.084 101.052 57.552C101.052 81.54 81.5395 101.052 57.5515 101.052Z" fill="#939393"/>
</g>
<defs>
<clipPath id="clip0_0_516">
<rect width="115.104" height="115.104" fill="white" transform="translate(-0.000488281)"/>
</clipPath>
</defs>
</svg>
