<svg width="22" height="25" viewBox="0 0 22 25" fill="none" xmlns="http://www.w3.org/2000/svg">
<path d="M14.0305 5.68912C13.8167 5.6851 13.6049 5.71132 13.4009 5.76494C12.0315 6.12482 10.5836 6.12473 9.21404 5.76494C9.0102 5.71141 8.79829 5.68514 8.58457 5.68912C7.34935 5.70804 6.34487 6.68893 6.29785 7.92231C6.28249 8.32504 6.37091 8.72496 6.55363 9.07885C6.55522 9.08194 6.55682 9.08508 6.55836 9.08817L7.60448 11.1858C7.86719 11.7125 8.02739 12.2769 8.08068 12.8631L8.39027 16.2686C8.39313 16.3222 8.47367 16.3322 8.48983 16.2816C8.88029 15.1118 9.9074 12.5843 11.2636 12.584C12.3072 12.5069 13.0345 13.7541 13.2517 14.1608C13.6507 14.8768 13.9715 15.7181 14.1703 16.2979C14.1785 16.3239 14.22 16.319 14.2218 16.2915L14.5797 12.7968C14.635 12.2561 14.782 11.7333 15.0165 11.2431L15.9771 9.23447C15.9857 9.21634 15.9952 9.1985 16.0053 9.18113C16.2263 8.8013 16.3341 8.36602 16.3172 7.92231C16.2702 6.68897 15.2657 5.70804 14.0305 5.68912ZM13.2847 8.638L12.4864 8.99793C11.738 9.33533 10.8792 9.33632 10.1302 9.0006L9.32245 8.6387C8.94627 8.47017 8.77797 8.02857 8.94651 7.65239C9.11509 7.27626 9.55664 7.10791 9.93282 7.27649L10.7406 7.63839C11.1006 7.79967 11.5133 7.7992 11.8729 7.63708L12.6713 7.27715C13.5903 6.90626 14.1707 8.19565 13.2847 8.638Z" fill="#525252"/>
<path d="M20.6148 0.705811H2.24414C1.47909 0.705811 0.858887 1.32602 0.858887 2.09106V23.2971C0.858887 24.0621 1.47909 24.6823 2.24414 24.6823H20.6148C21.3798 24.6823 22 24.0621 22 23.2971V2.09106C22.0001 1.32602 21.3799 0.705811 20.6148 0.705811ZM10.3966 22.5858H3.50131C2.51102 22.5464 2.51177 21.1321 3.50131 21.0931H10.3966C11.3869 21.1325 11.3861 22.5467 10.3966 22.5858ZM14.2582 22.5858H13.3579C12.3676 22.5464 12.3684 21.1321 13.3579 21.0931H14.2582C15.2485 21.1325 15.2477 22.5467 14.2582 22.5858ZM16.0646 12.949L15.7067 16.4437C15.5239 18.0602 13.3024 18.3095 12.7582 16.7823C12.1018 14.8678 11.5336 14.2068 11.3379 14.0867C11.1405 14.2001 10.5651 14.8489 9.90052 16.7698C9.34007 18.3267 7.06951 18.0567 6.90364 16.4039L6.59405 12.9983C6.55767 12.5977 6.44813 12.2121 6.26864 11.8521L5.22472 9.75892C3.92498 7.28451 5.75946 4.21228 8.56177 4.19674C8.91139 4.19116 9.25821 4.23331 9.59322 4.3213C10.7147 4.6159 11.9002 4.6159 13.0217 4.3213C13.3568 4.23326 13.7037 4.1913 14.0531 4.19674C16.0819 4.22774 17.7315 5.83927 17.8088 7.86557V7.86552C17.8361 8.58186 17.6642 9.28613 17.3113 9.90441L16.3631 11.8873C16.2029 12.2223 16.1025 12.5795 16.0646 12.949ZM18.0577 22.5858H17.1574C16.1671 22.5464 16.1678 21.1321 17.1574 21.0931H18.0577C19.048 21.1325 19.0472 22.5467 18.0577 22.5858Z" fill="#525252"/>
</svg>
