<svg width="43" height="43" viewBox="0 0 43 43" xmlns="http://www.w3.org/2000/svg">
<circle cx="21.5" cy="21.5" r="21.5"/>
<path d="M30.8333 32C28.5185 32 26.2315 31.4954 23.9722 30.4861C21.713 29.4769 19.6574 28.0463 17.8056 26.1944C15.9537 24.3426 14.5231 22.287 13.5139 20.0278C12.5046 17.7685 12 15.4815 12 13.1667C12 12.8333 12.1111 12.5556 12.3333 12.3333C12.5556 12.1111 12.8333 12 13.1667 12H17.6667C17.9259 12 18.1574 12.088 18.3611 12.2639C18.5648 12.4398 18.6852 12.6481 18.7222 12.8889L19.4444 16.7778C19.4815 17.0741 19.4722 17.3241 19.4167 17.5278C19.3611 17.7315 19.2593 17.9074 19.1111 18.0556L16.4167 20.7778C16.787 21.463 17.2269 22.125 17.7361 22.7639C18.2454 23.4028 18.8056 24.0185 19.4167 24.6111C19.9907 25.1852 20.5926 25.7176 21.2222 26.2083C21.8519 26.6991 22.5185 27.1481 23.2222 27.5556L25.8333 24.9444C26 24.7778 26.2176 24.6528 26.4861 24.5694C26.7546 24.4861 27.0185 24.463 27.2778 24.5L31.1111 25.2778C31.3704 25.3519 31.5833 25.4861 31.75 25.6806C31.9167 25.875 32 26.0926 32 26.3333V30.8333C32 31.1667 31.8889 31.4444 31.6667 31.6667C31.4444 31.8889 31.1667 32 30.8333 32Z" fill="white"/>
</svg>
