<?xml version="1.0" encoding="UTF-8"?>
<svg xmlns="http://www.w3.org/2000/svg" version="1.1" viewBox="0 0 512 512">
  <defs>
    <style>
      .cls-1 {
        fill: #525252;
      }
    </style>
  </defs>
  <!-- Generator: Adobe Illustrator 28.6.0, SVG Export Plug-In . SVG Version: 1.2.0 Build 709)  -->
  <g>
    <g id="Layer_1">
      <path class="cls-1" d="M369.1,171.9c19.8-13.9,32.2-36.8,32.2-61.6s-11.4-46.3-30.5-60.4L307.2,2.9C304.6,1,301.5,0,298.3,0H74.3C64.4,0,57.2,9.5,59.9,19.1l44.4,156c11,38.7,3.2,81.1-21,113.3-20.6,27.5-31.9,61.5-31.9,95.8v112.8c0,8.3,6.7,15,15,15h238.6c95.4,0,175.5-76.2,176.4-173.3.7-75.3-46.2-141-112.2-166.8h0ZM386.9,412.3c-24.8,24.8-60.2,35.4-94.6,28.2l-1.9-.4c-28.4,22.5-70.6,20.2-96.4-8-24.5-26.9-24.4-68.9.2-95.7,21.5-23.4,55.2-29.3,82.9-16.1,6.9-7.4,14.9-14,23.4-19.5-1-2-1.5-4.3-1.5-6.6l.2-46.2c0-7.1,5.1-13.2,12.1-14.6l40-8c6.6-1.3,13.2,1.9,16.3,7.8l15.3,29.5,6.9,6.9c35.7,35.8,38.5,101.3-2.9,142.8h0ZM368.6,290.8c-9.1-9.1-9.9-9.5-11.3-12.3l-11.2-21.6-16.9,3.4v27.7c7.5,7.6,3.5,3.6,18.1,18.2,5.9,5.9,5.9,15.4,0,21.2-5.8,5.8-15.3,5.9-21.2,0l-4.5-4.5c-11.3,6.5-21.5,15.3-29.2,25.7-4.9,6.7-14.5,8.1-21.1,3-17-12.9-40.6-10.7-55,5-14.2,15.5-14.2,39.7-.1,55.2,15.9,17.5,42.9,17.9,59.3,1.4,3.6-3.6,8.7-5.1,13.7-4.1l9.2,1.9c24.4,5.1,49.6-2.4,67.2-20.1,22.5-22.5,28.1-56.8,13.8-85.2-2.8-5.6-6.5-10.7-10.9-15.1h0Z"/>
    </g>
  </g>
</svg>