<?xml version="1.0" encoding="UTF-8"?>
<svg xmlns="http://www.w3.org/2000/svg" version="1.1" viewBox="0 0 2000 2000">
  <defs>
    <style>
      .cls-1 {
        fill: #525252;
        fill-rule: evenodd;
      }
    </style>
  </defs>
  <!-- Generator: Adobe Illustrator 28.7.1, SVG Export Plug-In . SVG Version: 1.2.0 Build 142)  -->
  <g>
    <g id="Layer_1">
      <g id="Artboard51">
        <path class="cls-1" d="M110.2,234.9L345.1,0v234.9H110.2ZM663.3,492.1c-18.2,0-33-14.8-33-33s14.8-33,33-33h344.1c18.2,0,33,14.8,33,33s-14.8,33-33,33h-344.1ZM663.3,386.8c-18.2,0-33-14.8-33-33s14.8-33,33-33h344.1c18.2,0,33,14.8,33,33s-14.8,33-33,33h-344.1ZM663.3,918.8c-18.2,0-33-14.8-33-33s14.8-33,33-33h344.1c18.2,0,33,14.8,33,33s-14.8,33-33,33h-344.1ZM663.3,1024.2c-18.2,0-33-14.8-33-33s14.8-33,33-33h344.1c18.2,0,33,14.8,33,33s-14.8,33-33,33h-344.1ZM663.3,1450.9c-18.2,0-33-14.8-33-33s14.8-33,33-33h344.1c18.2,0,33,14.8,33,33s-14.8,33-33,33h-344.1ZM663.3,1556.3c-18.2,0-33-14.8-33-33s14.8-33,33-33h344.1c18.2,0,33,14.8,33,33s-14.8,33-33,33h-344.1ZM1347.6,1879.6H110.2V300.9h234.9c36.4,0,66-29.5,66-66V0h1149.4v1199.7l-232.1,99.4v-363.7c0-18.2-14.8-33-33-33h-137v-130h-646.2v130h-103.9v-461.5h103.9v131.8h646.2V240.3h-646.2v134.6h-136.8c-18.2,0-33,14.8-33,33v527.5c0,18.2,14.8,33,33,33h136.8v136.3h646.2v-136.3h104v463.8h-104v-127.7h-646.2v332.3h646.2v-138.6h112v133.7c0,90.9,28.3,176.6,77.1,247.8h0ZM1642.9,1236.2l306.6,131.3v264.4c0,179.7-130.2,335.5-306.6,368.1-176.3-32.7-306.5-188.5-306.5-368.1v-264.4l306.5-131.3ZM1478.8,1649.9l82.1,82c12.4,12.4,32.4,12.9,45.5,1.1l199.5-180.9c13.5-12.2,14.5-33.1,2.3-46.6-12.2-13.5-33.1-14.5-46.6-2.3l-176.3,159.8-59.9-59.8c-12.9-12.9-33.8-12.8-46.7,0-12.9,12.9-12.8,33.8,0,46.7Z"/>
      </g>
    </g>
  </g>
</svg>