<svg width="34" height="34" viewBox="0 0 34 34" fill="none" xmlns="http://www.w3.org/2000/svg">
<path fill-rule="evenodd" clip-rule="evenodd" d="M17 34C26.3888 34 34 26.3888 34 17C34 7.61115 26.3888 0 17 0C7.61115 0 0 7.61115 0 17C0 26.3888 7.61115 34 17 34ZM17 10.2C15.1069 10.2 13.6 11.7158 13.6 13.5514C13.6 14.4903 12.8389 15.2514 11.9 15.2514C10.9611 15.2514 10.2 14.4903 10.2 13.5514C10.2 9.80742 13.2598 6.8 17 6.8C20.7402 6.8 23.8 9.80742 23.8 13.5514C23.8 16.6 21.7715 19.16 18.9988 20.006C18.8242 20.0593 18.7 20.2174 18.7 20.4C18.7 21.3389 17.9389 22.1 17 22.1C16.0611 22.1 15.3 21.3389 15.3 20.4V18.6029C15.3 17.664 16.0611 16.9029 17 16.9029C18.8931 16.9029 20.4 15.387 20.4 13.5514C20.4 11.7158 18.8931 10.2 17 10.2ZM18.7 25.5C18.7 26.4389 17.9389 27.2 17 27.2C16.0611 27.2 15.3 26.4389 15.3 25.5C15.3 24.5611 16.0611 23.8 17 23.8C17.9389 23.8 18.7 24.5611 18.7 25.5Z" fill="#525252"/>
</svg>
