<?xml version="1.0" encoding="UTF-8"?>
<svg xmlns="http://www.w3.org/2000/svg" version="1.1" viewBox="0 0 509.8 512">
  <!-- Generator: Adobe Illustrator 29.0.0, SVG Export Plug-In . SVG Version: 2.1.0 Build 186)  -->
  <defs>
    <style>
      .st0 {
        fill: none;
        stroke: #000;
        stroke-linecap: round;
        stroke-linejoin: round;
        stroke-width: 22px;
      }

      .st1 {
        display: none;
      }
    </style>
  </defs>
  <g id="Layer_1" class="st1">
    <g>
      <path d="M401.5,363.3c-42.1,67.4-125.7,115-200.8,115h-.1c-36.9,0-74.2-9.1-108.8-28.4C39.5,420.8,1.7,373.1-14.6,315.5s-9.3-118.1,19.8-170.2C65.5,37.4,202.2-1.5,310.1,58.7c29.6,16.5,55.2,41.7,74.3,68.5,0,0-17.7-3.4-21,4.7s-1.5-.7-1.6-.9c-16.6-21.6-37.5-39.7-62-53.4-47.3-26.3-102-32.7-154-18-52.1,14.8-95.3,49-121.7,96.2S-8.7,257.7,6,309.8c14.8,52.1,49,95.3,96.2,121.6h0c47.3,26.3,102,32.7,154,18,52.1-14.8,95.3-49,121.7-96.2,4.5-8,12.3-21.5,16-29.3,0,0-1.2,17.4,1,26.7s6.5,12.8,6.5,12.8Z"/>
      <circle cx="201" cy="254.3" r="38.8"/>
      <path d="M227.6,204c-1.4,0-2.9-.3-4.3-.9-13.8-6-29.7-6.2-43.5-.5-5.1,2-11,0-13.4-5l-48.1-93c-1.4-2.6-1.6-5.7-.6-8.4s3-5,5.8-6.2c54.8-24.5,106.2-24.5,157.1.1,2.6,1.3,4.6,3.5,5.4,6.2,1,2.8.6,5.8-.6,8.2l-48.2,93.7c-1.9,3.6-5.7,5.8-9.5,5.8h0Z"/>
      <path d="M300.8,404.9c-.6,0-1.3,0-1.9-.2-2.9-.5-5.3-2.1-6.9-4.5l-59.1-87.3c-3.1-4.7-2.1-11,2.2-14.4,11.8-9.2,19.6-23,21.3-38,.6-5.4,5.4-9.6,10.9-9.4l104.7,2.5c2.9,0,5.7,1.4,7.7,3.5,1.9,2.1,3,5,2.7,8-4.7,59.8-29.4,105-75.4,137.8-1.8,1.3-4.1,2-6.2,2h0Z"/>
      <path d="M109.1,409.4c-2.1,0-4.2-.6-5.9-1.8-49.9-33.3-77.3-76.8-83.7-133-.3-2.9.5-5.8,2.3-8s4.5-3.6,7.4-3.8l105-9.2c5.7-.5,10.7,3.4,11.5,9,2.2,14.8,10.6,28.4,22.8,37.1,4.5,3.2,5.8,9.3,3,14.1l-53.1,90.2c-1.5,2.6-3.9,4.4-6.8,5-.7.2-1.6.3-2.3.3h-.1Z"/>
    </g>
    <g>
      <path class="st0" d="M480.2,357.8l-34.1,34.1-34.1-34.1c-4.3-4.3-6.8-10.2-6.8-16.3,0-41.4,0-202.8,0-202.8h81.7s0,161.4,0,202.8c0,6.1-2.4,12-6.8,16.3h0Z"/>
      <line class="st0" x1="372.7" y1="138.7" x2="519.7" y2="138.7"/>
      <line class="st0" x1="394.2" y1="35.5" x2="498.2" y2="35.5"/>
      <line class="st0" x1="446.2" y1="391.8" x2="446.2" y2="473.5"/>
      <line class="st0" x1="446.2" y1="35.5" x2="446.2" y2="138.7"/>
      <line class="st0" x1="462.5" y1="310.2" x2="487" y2="310.2"/>
      <line class="st0" x1="462.5" y1="253" x2="487" y2="253"/>
      <line class="st0" x1="462.5" y1="195.8" x2="487" y2="195.8"/>
    </g>
  </g>
  <g id="Layer_2">
    <g>
      <path d="M254.9,504.8c-41,0-82.5-10.1-120.8-31.5-58.1-32.3-100-85.4-118.1-149.4-18.1-64-10.3-131.1,22-189.1C104.9,15,256.8-28.1,376.6,38.7c58.1,32.3,100,85.4,118.1,149.4,18.1,64,10.3,131.1-22,189.1-45.5,81.5-130.3,127.6-217.6,127.6h-.1ZM145.7,452.6c52.5,29.3,113.3,36.4,171.1,20,57.8-16.5,105.8-54.4,135.2-106.9s36.4-113.3,20-171.1c-16.5-57.8-54.4-105.8-106.9-135.1s-113.3-36.4-171.1-20c-57.8,16.5-105.8,54.4-135.2,106.9-29.4,52.5-36.4,113.3-20,171.1,16.5,57.8,54.4,105.8,106.9,135.1h0Z"/>
      <circle cx="255.4" cy="256" r="43.1"/>
      <path d="M285,200.1c-1.5,0-3.2-.4-4.7-.9-15.3-6.6-32.9-6.9-48.3-.6-5.7,2.3-12.2,0-14.9-5.6l-53.4-103.3c-1.5-2.8-1.8-6.3-.7-9.4s3.3-5.6,6.4-6.9c60.9-27.2,118-27.2,174.5.1,2.8,1.4,5.1,3.9,6,6.9,1.1,3.1.7,6.4-.7,9.1l-53.5,104c-2.1,4-6.3,6.4-10.5,6.4h0Z"/>
      <path d="M366.3,423.3c-.7,0-1.4,0-2.1-.2-3.2-.6-5.9-2.4-7.7-5l-65.6-96.9c-3.4-5.2-2.4-12.2,2.5-16,13.2-10.2,21.8-25.6,23.7-42.2.7-6,6-10.7,12.1-10.4l116.3,2.7c3.2,0,6.3,1.5,8.5,3.9,2.1,2.4,3.3,5.6,3,8.9-5.2,66.5-32.7,116.6-83.8,153.1-2,1.4-4.5,2.3-6.9,2.3h0Z"/>
      <path d="M153.4,428.2c-2.4,0-4.6-.7-6.5-2-55.4-37-85.9-85.3-93-147.7-.4-3.2.6-6.4,2.6-8.9s5-4,8.2-4.3l116.6-10.2c6.3-.6,11.8,3.8,12.8,10,2.5,16.5,11.7,31.5,25.4,41.2,5,3.6,6.4,10.3,3.3,15.6l-59,100.2c-1.7,2.8-4.4,4.9-7.6,5.6-.8.2-1.8.4-2.6.4h-.1Z"/>
    </g>
  </g>
</svg>