<?xml version="1.0" encoding="UTF-8"?>
<svg id="Layer_1" xmlns="http://www.w3.org/2000/svg" version="1.1" viewBox="0 0 568.7 512">
  <!-- Generator: Adobe Illustrator 29.0.0, SVG Export Plug-In . SVG Version: 2.1.0 Build 186)  -->
  <defs>
    <style>
      .st0 {
        fill: none;
        stroke: #000;
        stroke-linecap: round;
        stroke-linejoin: round;
        stroke-width: 22px;
      }
    </style>
  </defs>
  <g>
    <path d="M430.5,363.3c-42.1,67.4-125.7,115-200.8,115h-.1c-36.9,0-74.2-9.1-108.8-28.4-52.3-29.1-90-76.9-106.3-134.5s-9.3-118.1,19.8-170.2C94.5,37.4,231.3-1.5,339.1,58.7c29.6,16.5,55.2,41.7,74.3,68.5,0,0-17.7-3.4-21,4.7s-1.5-.7-1.6-.9c-16.6-21.6-37.5-39.7-62-53.4-47.3-26.3-102-32.7-154-18-52.1,14.8-95.3,49-121.7,96.2s-32.7,102-18,154c14.8,52.1,49,95.3,96.2,121.6h0c47.3,26.3,102,32.7,154,18,52.1-14.8,95.3-49,121.7-96.2,4.5-8,12.3-21.5,16-29.3,0,0-1.2,17.4,1,26.7s6.5,12.8,6.5,12.8Z"/>
    <circle cx="230" cy="254.3" r="38.8"/>
    <path d="M256.7,204c-1.4,0-2.9-.3-4.3-.9-13.8-6-29.7-6.2-43.5-.5-5.1,2-11,0-13.4-5l-48.1-93c-1.4-2.6-1.6-5.7-.6-8.4s3-5,5.8-6.2c54.8-24.5,106.2-24.5,157.1.1,2.6,1.3,4.6,3.5,5.4,6.2,1,2.8.6,5.8-.6,8.2l-48.2,93.7c-1.9,3.6-5.7,5.8-9.5,5.8h0Z"/>
    <path d="M329.8,404.9c-.6,0-1.3,0-1.9-.2-2.9-.5-5.3-2.1-6.9-4.5l-59.1-87.3c-3.1-4.7-2.1-11,2.2-14.4,11.8-9.2,19.6-23,21.3-38,.6-5.4,5.4-9.6,10.9-9.4l104.7,2.5c2.9,0,5.7,1.4,7.7,3.5,1.9,2.1,3,5,2.7,8-4.7,59.8-29.4,105-75.4,137.8-1.8,1.3-4.1,2-6.2,2h0Z"/>
    <path d="M138.2,409.4c-2.1,0-4.2-.6-5.9-1.8-49.9-33.3-77.3-76.8-83.7-133-.3-2.9.5-5.8,2.3-8s4.5-3.6,7.4-3.8l105-9.2c5.7-.5,10.7,3.4,11.5,9,2.2,14.8,10.6,28.4,22.8,37.1,4.5,3.2,5.8,9.3,3,14.1l-53.1,90.2c-1.5,2.6-3.9,4.4-6.8,5-.7.2-1.6.3-2.3.3h-.1Z"/>
  </g>
  <g>
    <path class="st0" d="M509.3,357.8l-34.1,34.1-34.1-34.1c-4.3-4.3-6.8-10.2-6.8-16.3,0-41.4,0-202.8,0-202.8h81.7s0,161.4,0,202.8c0,6.1-2.4,12-6.8,16.3h0Z"/>
    <line class="st0" x1="401.7" y1="138.7" x2="548.7" y2="138.7"/>
    <line class="st0" x1="423.2" y1="35.5" x2="527.2" y2="35.5"/>
    <line class="st0" x1="475.2" y1="391.8" x2="475.2" y2="473.5"/>
    <line class="st0" x1="475.2" y1="35.5" x2="475.2" y2="138.7"/>
    <line class="st0" x1="491.6" y1="310.2" x2="516.1" y2="310.2"/>
    <line class="st0" x1="491.6" y1="253" x2="516.1" y2="253"/>
    <line class="st0" x1="491.6" y1="195.8" x2="516.1" y2="195.8"/>
  </g>
</svg>