<svg width="26" height="26" viewBox="0 0 26 26" fill="none" xmlns="http://www.w3.org/2000/svg">
<mask id="mask0_1_731" style="mask-type:alpha" maskUnits="userSpaceOnUse" x="0" y="0" width="26" height="26">
<rect width="26" height="26" fill="#D9D9D9"/>
</mask>
<g mask="url(#mask0_1_731)">
<path d="M14.0561 22.6416V20.4749C14.8144 20.3666 15.5502 20.1589 16.2634 19.852C16.9766 19.5451 17.6492 19.1569 18.2811 18.6874L19.8519 20.2583C19.0033 20.9263 18.0915 21.4635 17.1165 21.8697C16.1415 22.276 15.1214 22.5333 14.0561 22.6416ZM21.3686 18.6874L19.8519 17.1708C20.3214 16.5749 20.7005 15.9204 20.9894 15.2072C21.2783 14.494 21.4769 13.7402 21.5853 12.9458H23.8061C23.6617 14.0652 23.3863 15.1079 22.9801 16.0739C22.5738 17.0398 22.0367 17.911 21.3686 18.6874ZM21.5853 10.7791C21.4769 9.96658 21.2783 9.20374 20.9894 8.49054C20.7005 7.77735 20.3214 7.13186 19.8519 6.55409L21.3686 5.03742C22.0547 5.83186 22.6099 6.71658 23.0342 7.69158C23.4585 8.66658 23.7158 9.69575 23.8061 10.7791H21.5853ZM11.8894 22.6416C9.12694 22.3166 6.82034 21.1339 4.96965 19.0937C3.11895 17.0534 2.1936 14.643 2.1936 11.8624C2.1936 9.06381 3.11895 6.64436 4.96965 4.60408C6.82034 2.56381 9.12694 1.3902 11.8894 1.08325V3.24992C9.72277 3.55686 7.92624 4.52284 6.49985 6.14784C5.07346 7.77283 4.36027 9.6777 4.36027 11.8624C4.36027 14.0471 5.07346 15.9475 6.49985 17.5635C7.92624 19.1794 9.72277 20.1499 11.8894 20.4749V22.6416ZM18.3353 5.03742C17.6853 4.54992 16.9992 4.1527 16.2769 3.84575C15.5547 3.53881 14.8144 3.3402 14.0561 3.24992V1.08325C15.1214 1.17353 16.1415 1.42179 17.1165 1.82804C18.0915 2.23429 19.0033 2.78047 19.8519 3.46659L18.3353 5.03742ZM12.9999 17.2791C11.9526 16.3944 10.9686 15.4464 10.0478 14.4353C9.12694 13.4242 8.66652 12.2416 8.66652 10.8874C8.66652 9.65964 9.08631 8.61242 9.9259 7.74575C10.7655 6.87909 11.7901 6.44575 12.9999 6.44575C14.2096 6.44575 15.2342 6.87909 16.0738 7.74575C16.9134 8.61242 17.3332 9.65964 17.3332 10.8874C17.3332 12.2416 16.8728 13.4242 15.9519 14.4353C15.0311 15.4464 14.0471 16.3944 12.9999 17.2791ZM12.9999 11.8624C13.3249 11.8624 13.6002 11.7496 13.8259 11.5239C14.0516 11.2982 14.1644 11.0228 14.1644 10.6978C14.1644 10.3909 14.0516 10.1201 13.8259 9.88533C13.6002 9.65061 13.3249 9.53325 12.9999 9.53325C12.6749 9.53325 12.3995 9.65061 12.1738 9.88533C11.9481 10.1201 11.8353 10.3909 11.8353 10.6978C11.8353 11.0228 11.9481 11.2982 12.1738 11.5239C12.3995 11.7496 12.6749 11.8624 12.9999 11.8624Z" fill="#939393"/>
</g>
</svg>
