<svg width="29" height="63" viewBox="0 0 29 63" fill="none" xmlns="http://www.w3.org/2000/svg">
<g clip-path="url(#clip0_525_1350)">
<path fill-rule="evenodd" clip-rule="evenodd" d="M28.0776 58.7799C28.0789 58.7944 28.0802 58.8076 28.0802 58.8194C28.0802 58.8274 28.0802 58.834 28.0789 58.8406C28.0789 58.8538 28.0776 58.8656 28.0763 58.8762C28.0026 59.2615 27.7232 59.4542 27.6973 59.6561C27.6934 59.6785 27.6934 59.701 27.696 59.7221C27.705 59.8817 27.8254 59.9979 27.912 60.3687C27.925 60.4267 27.9327 60.4769 27.9366 60.5218C27.9366 60.5481 27.9366 60.5732 27.9366 60.5957C27.925 60.816 27.7827 60.8807 27.7309 61.0311C27.7232 61.0522 27.7193 61.0773 27.7193 61.1024C27.7206 61.1116 27.7206 61.1195 27.7206 61.1288C27.7309 61.2964 27.8525 61.5286 27.868 61.753C27.8693 61.7794 27.8693 61.8057 27.868 61.8308C27.8668 61.8493 27.8655 61.8678 27.8629 61.8862C27.8124 62.1977 26.9987 62.2637 26.357 62.4312C25.7167 62.6002 23.3157 63.1702 22.9043 62.9512C22.4929 62.7334 22.4929 61.6936 22.4929 61.6936C22.4929 61.6936 21.925 62.1066 21.2743 61.588C21.2743 61.588 21.2652 61.5801 21.26 61.5761C20.6016 61.039 21.4424 60.0625 21.5226 59.5466C21.5433 59.4119 21.5834 59.1995 21.6429 58.9382C21.6533 58.8947 21.6636 58.8498 21.674 58.8036C21.6843 58.7574 21.696 58.7099 21.7076 58.6611C21.7206 58.6123 21.7322 58.5621 21.7451 58.5107C21.8422 58.1293 21.9677 57.6925 22.1216 57.2517C22.132 57.2227 22.1423 57.1937 22.1527 57.1646C22.1746 57.1053 22.1953 57.0472 22.2173 56.9878C22.2393 56.9297 22.2626 56.8717 22.2846 56.8123C22.2962 56.7833 22.3079 56.7542 22.3195 56.7265C22.3545 56.6394 22.3907 56.5537 22.4282 56.4679C22.5032 56.299 22.5821 56.134 22.6649 55.977C22.6934 55.9255 22.7206 55.8741 22.7503 55.8239C22.9508 55.4716 23.1746 55.1707 23.4217 54.9648C23.4411 54.949 23.4489 54.8936 23.445 54.8078C23.445 54.7972 23.445 54.7854 23.4437 54.7735C23.4386 54.6521 23.4153 54.4832 23.3816 54.2826C23.3752 54.243 23.3687 54.2021 23.3609 54.1599C23.3441 54.0675 23.3273 53.9712 23.3079 53.8709C23.3001 53.8326 23.2924 53.793 23.2846 53.7534C23.2794 53.7297 23.2743 53.7059 23.2704 53.6808C23.2613 53.6373 23.2523 53.5924 23.2432 53.5476C23.2367 53.5185 23.2316 53.4895 23.2251 53.4618C23.2147 53.413 23.2044 53.3628 23.194 53.3127C23.1876 53.2823 23.1811 53.252 23.1746 53.2216C23.1656 53.1767 23.1565 53.1319 23.1462 53.087C23.1294 53.0105 23.1138 52.9353 23.097 52.8614C23.0867 52.8112 23.075 52.7624 23.0647 52.7122C23.0414 52.6067 23.0181 52.5024 22.9948 52.4021C22.9806 52.3388 22.9677 52.2768 22.9534 52.2161C22.9172 52.0524 22.8823 51.902 22.8525 51.7714C22.8422 51.7212 22.8318 51.675 22.8228 51.6315C22.8137 51.5945 22.8072 51.5602 22.7995 51.5299C22.784 51.4692 22.7697 51.4098 22.7542 51.3491H22.7529C22.6934 51.1155 22.6287 50.8859 22.5602 50.6576C22.4903 50.4201 22.4166 50.1852 22.3389 49.9529L22.3182 49.8896C20.9638 45.8449 18.7089 42.4298 19.2613 38.7203C19.7141 35.6693 19.5045 34.1267 18.3299 31.2143C17.8292 29.9725 17.1009 28.8535 16.3855 27.7912C16.3415 28.1383 16.2937 28.4721 16.2419 28.7968C16.2044 29.0409 16.1656 29.2771 16.1229 29.5094C16.1087 29.5859 16.0944 29.6624 16.0802 29.739C14.4217 38.5804 10.2898 39.1215 11.185 52.3032H0V0H7.1837C7.58732 1.73002 14.7115 5.03303 16.4981 5.46719C21.4243 6.66408 24.5407 9.82194 24.5809 14.9381C24.6313 16.3804 24.7387 17.6539 24.9056 18.7584C25.0711 19.8616 25.2962 20.7972 25.5796 21.5626C27.4929 26.176 25.9159 28.8047 27.4528 32.8744C30.0492 39.7509 28.7801 44.396 27.9237 49.2456C27.8008 49.9384 27.6869 50.6352 27.5938 51.3425H27.6727C27.6714 51.3544 27.6714 51.3715 27.6701 51.3939C27.6701 51.4032 27.6701 51.4151 27.6688 51.4269C27.6662 51.4718 27.6636 51.5325 27.6611 51.6051C27.6611 51.6222 27.6598 51.6394 27.6585 51.6579C27.6533 51.7687 27.6468 51.9033 27.6391 52.0551C27.6391 52.0788 27.6365 52.1026 27.6352 52.1276C27.6339 52.1435 27.6326 52.1606 27.6326 52.1765C27.63 52.2227 27.6274 52.2688 27.6248 52.3177C27.6235 52.3388 27.6222 52.3612 27.6222 52.3837C27.6222 52.4061 27.6197 52.4285 27.6184 52.451C27.6145 52.4932 27.6119 52.5354 27.6106 52.579C27.6093 52.6067 27.608 52.6344 27.6054 52.6621C27.6041 52.6819 27.6028 52.703 27.6016 52.7228C27.555 53.504 27.4838 54.4568 27.3933 55.1271C27.3855 55.1852 27.379 55.2459 27.3765 55.3066C27.3674 55.4399 27.3687 55.5785 27.3777 55.721C27.4489 56.8981 28.0388 58.3101 28.0776 58.7799Z" fill="#0353E9"/>
<path fill-rule="evenodd" clip-rule="evenodd" d="M25.3012 57.3745C25.3012 57.3745 25.5419 57.1224 25.7579 56.9997C25.9739 56.877 26.4487 56.8176 26.3931 56.8136C26.3375 56.8097 25.8756 56.7674 25.5199 56.9627C25.1641 57.158 25.0723 57.3124 25.0723 57.3124L25.3025 57.3758L25.3012 57.3745Z" fill="#0040B7"/>
<path fill-rule="evenodd" clip-rule="evenodd" d="M25.7654 58.446C25.7331 58.479 25.5481 58.5634 25.2104 58.4671C24.8728 58.3708 24.7331 58.2111 24.7706 58.2652C24.8081 58.3193 25.1548 58.4117 25.3683 58.4051C25.5817 58.3985 25.6399 58.413 25.7758 58.2903C25.9116 58.1662 25.9401 57.9815 25.9465 58.0118C25.953 58.0422 25.9582 58.1478 25.8767 58.2903C25.7939 58.4328 25.7654 58.446 25.7654 58.446Z" fill="#0040B7"/>
<path fill-rule="evenodd" clip-rule="evenodd" d="M22.7047 60.4914C22.8612 59.9794 21.8677 59.73 21.6555 59.9794C21.5508 60.1021 21.3903 60.3396 21.446 60.5165C21.5016 60.692 21.8173 60.9137 22.1717 61.0126C22.5805 61.1275 22.5753 60.9137 22.7047 60.4914Z" fill="#0040B7"/>
<path fill-rule="evenodd" clip-rule="evenodd" d="M16.0805 29.739C16.1943 29.1306 16.2965 28.4853 16.3845 27.7912C15.2784 26.1562 14.4039 25.119 14.3224 23.1118C15.2331 22.3003 15.8075 21.2076 15.9576 19.9817L16.6432 14.3839C16.6859 14.0223 16.4336 13.6937 16.0792 13.6488C15.7247 13.604 15.4026 13.8626 15.3586 14.2242L14.673 19.822C14.5604 20.7365 14.1296 21.5309 13.5022 22.0957C12.8761 22.6605 12.0494 22.997 11.1439 22.997H4.48667C4.12962 22.997 3.83984 23.2926 3.83984 23.6568C3.83984 24.0211 4.12962 24.3166 4.48667 24.3166H11.1439C11.8347 24.3166 12.4931 24.1702 13.0908 23.9036C13.4026 25.664 14.8709 28.195 16.0779 29.7376L16.0805 29.739Z" fill="#0040B7"/>
<path fill-rule="evenodd" clip-rule="evenodd" d="M22.7476 51.2514C22.7308 51.3517 23.6027 54.8131 23.4216 54.9648C22.2935 55.9057 21.6337 58.8287 21.5225 59.5466C21.4423 60.0625 20.6014 61.039 21.2599 61.5761C21.265 61.5801 21.2702 61.584 21.2741 61.588C21.2521 61.5247 21.2236 61.4547 21.1848 61.3835C21.058 61.1486 21.1434 60.7632 21.2016 60.5957C21.2599 60.4281 21.375 60.0678 21.5393 59.8989C21.7036 59.7313 22.0412 59.6891 22.4604 59.949C22.8795 60.209 22.8963 60.7369 22.8963 60.7369C22.8963 60.7369 22.9132 60.2921 22.8381 60.1166C22.7644 59.9398 22.6816 59.7471 22.2055 59.5716C21.7282 59.3948 21.613 59.6218 21.613 59.6218C21.613 59.6218 22.1706 57.1132 22.9778 56.0997C23.7851 55.0862 23.5044 55.4122 23.5044 55.4122C23.5044 55.4122 23.6195 55.2274 24.08 54.6745C24.5406 54.1216 26.3983 54.1374 26.3983 54.1374C26.3983 53.95 24.811 53.8709 23.9481 54.3552C23.9481 54.3552 22.4461 50.8476 22.3168 49.8856L22.7476 51.2527V51.2514Z" fill="#0040B7"/>
<path fill-rule="evenodd" clip-rule="evenodd" d="M22.2549 59.7471C22.3454 59.7471 22.5097 59.5373 22.7568 59.2523C23.0039 58.9672 23.0363 58.3721 23.2588 58.0527C23.4813 57.7334 24.361 57.0802 24.361 57.0802C24.361 57.0802 24.1061 56.5523 24.1307 56.4177C24.1553 56.2831 24.1553 56.2079 24.1889 56.3254C24.2212 56.4428 24.326 56.7028 24.5201 56.9693C24.7128 57.2359 24.7788 57.2649 24.7788 57.2649C24.7788 57.2649 25.1242 57.2465 25.4037 57.3296C25.9612 57.4972 25.9405 57.9881 25.9444 57.959C25.9483 57.9208 25.718 57.5486 25.5175 57.4642C25.317 57.3797 24.9625 57.385 24.8267 57.3969C24.6908 57.4101 24.4075 57.5354 24.1527 57.8033C23.8978 58.0712 23.5524 58.256 23.7167 58.8432C23.881 59.4304 23.7335 59.5136 24.1604 59.6653C24.5874 59.8158 26.4127 59.9424 26.2976 59.9424C26.1824 59.9424 24.6779 59.9002 24.3157 59.8831C23.9535 59.8659 23.8306 59.9504 23.6831 59.6653C23.5356 59.3803 23.4451 59.0029 23.3545 59.1203C23.2639 59.2378 23.0828 60.0929 23.1074 60.4122C23.132 60.7316 23.2057 60.8992 23.3209 60.9915C23.436 61.0839 24.4062 61.336 25.1048 61.3439C25.8034 61.3518 26.2225 61.361 26.2225 61.361C26.2225 61.361 23.6081 61.4785 23.3855 61.3861C23.163 61.2937 22.8681 60.7817 22.8176 60.9335C22.7685 61.0839 22.7271 61.5128 22.7516 61.6038C22.7762 61.6962 23.1294 62.2333 23.2614 62.2834C23.3933 62.3336 23.7633 62.4761 24.1579 62.4682C24.5524 62.4603 25.4981 62.3587 25.4981 62.3587C25.4981 62.3587 24.0013 62.5342 23.6896 62.5856C23.3778 62.6358 22.8927 62.2927 22.8021 62.1238C22.7115 61.9562 22.6132 61.6461 22.6132 61.6461C22.6132 61.6461 22.6093 61.2766 22.6999 61.076C22.7905 60.8741 22.9095 60.6273 22.894 60.4544C22.8784 60.2829 22.7905 60.0572 22.5925 59.8976C22.3959 59.7379 22.2549 59.7485 22.2549 59.7485V59.7471Z" fill="#0040B7"/>
<path fill-rule="evenodd" clip-rule="evenodd" d="M26.9866 53.3338C27.0694 54.6428 26.7887 56.1353 27.2001 57.2926C27.6114 58.45 27.6774 58.768 27.6774 59.0702C27.6774 59.3724 26.636 59.4054 26.5597 59.5228C26.4834 59.6403 27.8598 59.6574 27.7719 60.7303C27.7356 61.1789 26.9724 61.1512 27.0164 61.2014C27.0616 61.2515 27.7227 61.1934 27.7835 61.6316C27.8456 62.0697 27.2725 62.2148 27.0707 62.2597C27.4834 62.17 27.8288 62.071 27.8611 61.8717C27.9103 61.5616 27.6632 61.2093 27.7292 61.0166C27.7952 60.824 28.0086 60.7738 27.9103 60.3542C27.812 59.9345 27.6723 59.8422 27.6968 59.6416C27.7214 59.4397 28.0008 59.247 28.0746 58.8617C28.1483 58.4763 27.2117 56.4468 27.3928 55.1126C27.5739 53.7785 27.6723 51.3306 27.6723 51.3306L27.9297 49.1889C27.7563 49.6956 26.9258 52.3665 26.9866 53.3338Z" fill="#0040B7"/>
</g>
<defs>
<clipPath id="clip0_525_1350">
<rect width="29" height="63" fill="white"/>
</clipPath>
</defs>
</svg>
