<svg width="20" height="28" viewBox="0 0 20 28" fill="none" xmlns="http://www.w3.org/2000/svg">
<g clip-path="url(#clip0_1_207)">
<path d="M2.14868 12.5205C6.68899 11.0143 11.1827 10.7493 15.7196 12.6188C15.5797 13.0593 15.4731 13.488 15.3032 13.8958C15.2533 14.0149 15.0234 14.1429 14.8702 14.1488C13.5944 14.2054 12.7083 15.1044 12.725 16.2713C12.7483 17.9264 12.725 19.5816 12.7383 21.2337C12.7383 21.5522 12.6284 21.7814 12.3819 22.0047C11.4425 22.8531 10.5231 23.7193 9.58706 24.5707C9.43382 24.7106 9.40051 24.8446 9.43382 25.0232C9.70364 26.583 11.6424 27.5088 13.2713 26.8569C14.1473 26.5086 14.8402 25.9549 15.3299 25.2464C16.0128 24.2581 16.6324 23.2311 17.2353 22.1982C17.7183 21.3706 17.715 20.4419 17.8182 19.5339C17.9115 18.7332 17.9948 17.9205 18.218 17.1435C18.3745 16.6018 18.731 16.1016 19.0441 15.6075C19.2306 15.3128 19.5171 15.2711 19.7636 15.4229C20.0368 15.5926 20.0867 15.8635 19.8569 16.1344C19.0907 17.0274 18.9775 18.0783 18.8842 19.144C18.7942 20.1442 18.8109 21.1682 18.3812 22.1119C18.0581 22.8144 17.6384 23.4782 17.2619 24.1599C16.8322 24.9369 16.3659 25.693 15.7096 26.3389C14.9302 27.107 14.0208 27.6964 12.8649 27.9167C10.7929 28.3126 8.94748 27.2231 8.55441 25.3328C8.47446 24.9488 8.30125 24.6689 8.00145 24.401C7.13203 23.6241 6.28592 22.8233 5.41983 22.0434C5.21997 21.8618 5.13336 21.6683 5.13336 21.4153C5.14002 19.6947 5.1267 17.9741 5.14002 16.2535C5.14668 15.3991 4.75361 14.7621 3.91417 14.3691C3.65434 14.2471 3.33789 14.1995 3.04142 14.1637C2.71164 14.125 2.52843 13.9911 2.45848 13.7023C2.36854 13.3272 2.26527 12.9522 2.14868 12.5175V12.5205ZM9.44715 15.9647C9.44715 15.4378 9.45048 14.9109 9.44715 14.387C9.44715 14.0893 9.24728 13.9077 8.95414 13.9137C8.67433 13.9196 8.47113 14.1221 8.47113 14.4019C8.47113 15.4259 8.47113 16.4499 8.47113 17.474C8.47113 17.8222 8.66101 18.0485 8.95414 18.0544C9.25394 18.0604 9.44382 17.8461 9.44715 17.4859C9.45048 16.9798 9.44715 16.4708 9.44715 15.9647Z" fill="#525252"/>
<path d="M1.89533 11.6455C1.81539 11.3656 1.70879 11.0828 1.65882 10.7881C1.60886 10.5024 1.83537 10.3297 2.08854 10.2225C2.87468 9.88913 3.6475 9.53191 4.46029 9.25804C6.28907 8.64482 8.18447 8.35011 10.1432 8.46323C12.2717 8.58528 14.2005 9.21041 15.9127 10.3416C16.0459 10.4279 16.1458 10.6423 16.1358 10.7941C16.1192 11.1186 16.0226 11.4401 15.956 11.7794C11.2924 9.87127 6.61885 10.0767 1.89533 11.6425V11.6455Z" fill="#525252"/>
<path d="M17.4551 4.0692C17.2652 3.95906 17.1219 3.88762 16.992 3.80129C16.2059 3.28332 15.4531 2.72666 14.6336 2.25334C13.4244 1.55379 12.0653 1.19955 10.6429 1.01498C8.26119 0.705393 5.9927 1.02987 3.83414 1.96459C2.75819 2.43195 1.81215 3.07197 0.922747 3.78343C0.78284 3.89655 0.546331 4.00074 0.376445 3.97692C-0.0399444 3.92036 -0.126553 3.50361 0.196565 3.21783C1.18924 2.35158 2.2885 1.60737 3.56099 1.10726C8.08131 -0.672877 12.3784 -0.312681 16.4224 2.23548C16.8921 2.53019 17.3118 2.89633 17.7215 3.25951C17.8348 3.36072 17.8881 3.58993 17.8448 3.72985C17.8048 3.86083 17.6016 3.95013 17.4517 4.07218L17.4551 4.0692Z" fill="#525252"/>
<path d="M8.9306 2.73271C11.1291 2.81011 13.0745 3.44715 14.79 4.64979C15.0132 4.80458 15.2131 4.98915 15.4196 5.15882C15.6961 5.38804 15.7327 5.61725 15.5295 5.81968C15.3163 6.03401 15.0632 6.0102 14.7534 5.79289C14.2004 5.4059 13.6674 4.98915 13.0678 4.67062C11.4123 3.79246 9.60682 3.50371 7.70142 3.74781C5.9326 3.97405 4.40695 4.65574 3.12114 5.76312C2.83133 6.01317 2.56485 6.03699 2.34499 5.84349C2.13846 5.66191 2.14513 5.39995 2.38163 5.19455C3.5775 4.15266 4.96658 3.39952 6.60215 3.06016C7.36498 2.90239 8.15112 2.8369 8.92727 2.72974L8.9306 2.73271Z" fill="#525252"/>
<path d="M13.5244 7.53126C13.3878 7.67117 13.3012 7.82894 13.1613 7.88253C13.0347 7.93015 12.8215 7.91229 12.7049 7.84383C12.3285 7.62354 11.9987 7.33777 11.6156 7.12939C9.74021 6.09345 7.2019 6.28695 5.52968 7.57889C5.42642 7.65926 5.32648 7.74261 5.21656 7.81704C4.95007 8.0016 4.72355 7.98969 4.52369 7.78429C4.34714 7.6027 4.34381 7.36158 4.59031 7.18595C5.04667 6.8585 5.4997 6.51021 6.00936 6.26313C7.46839 5.55465 9.02069 5.41772 10.6163 5.81661C11.599 6.06071 12.485 6.48937 13.2179 7.13832C13.3311 7.23655 13.4011 7.37349 13.5244 7.53424V7.53126Z" fill="#525252"/>
</g>
<defs>
<clipPath id="clip0_1_207">
<rect width="20" height="28" rx="5" fill="white"/>
</clipPath>
</defs>
</svg>
