<?xml version="1.0" encoding="UTF-8"?>
<svg xmlns="http://www.w3.org/2000/svg" version="1.1" viewBox="0 0 2000 2000">
  <defs>
    <style>
      .cls-1 {
        fill: #525252;
      }
    </style>
  </defs>
  <!-- Generator: Adobe Illustrator 28.7.1, SVG Export Plug-In . SVG Version: 1.2.0 Build 142)  -->
  <g>
    <g id="Layer_1">
      <g id="Layer_1-2" data-name="Layer_1">
        <path class="cls-1" d="M1622.5,2.4c-19.4-3.1-44.2-3-62.1-.5-147.8,14.6-263.6,142.7-263.6,291.5s23.2,126.6,60.4,175.7h-1.8c-161.6,0-296.8,131.4-296.8,292.9v293.3c-21.4-.4-41.4-.4-58.6-.4s-37.2,0-58.6.4v-293.3c0-161.5-135.3-292.9-296.8-292.9h-1.8c37.2-49.1,60.4-109.5,60.4-175.7,0-148.8-115.8-276.8-261.4-291.2-22.7-3.1-51.4-2.3-57.8-.5C140.1,13.5.2,205.3.2,527.7s117.9,527.2,410.1,527.2,292.9-135.8,292.9-292.9-23.2-126.6-60.4-175.7h1.8c96.9,0,179.6,78.8,179.6,175.7v300.2c-164.7,17.4-351.5,77.3-351.5,285.6s95,276.5,254.1,351.2c59.2,27.7,97.4,89.2,97.4,156.6v144.4h351.5v-144.4c0-67.4,38.2-128.8,97.5-156.6,159-74.7,254-205.9,254-351.2,0-208.3-186.8-268.3-351.5-285.6v-300.2c0-96.9,82.7-175.7,179.6-175.7h1.8c-37.2,49.1-60.4,109.5-60.4,175.7,0,154.4,126,292.9,292.9,292.9,290.1,0,410.1-234,410.1-527.2S1859.8,13.5,1622.5,2.4h0Z"/>
      </g>
    </g>
  </g>
</svg>