<svg width="44" height="39" viewBox="0 0 44 39"  xmlns="http://www.w3.org/2000/svg">
<path d="M43.101 33.0714L25.1139 1.9128C24.426 0.704717 23.1843 0 21.8084 0C20.4326 0 19.1909 0.704717 18.503 1.9128L0.515893 33.0714C-0.172046 34.2627 -0.172046 35.6889 0.515893 36.8802C1.20383 38.0715 2.44548 38.7762 3.82135 38.7762H39.8291C41.2049 38.7762 42.4466 38.0715 43.1345 36.8802C43.7889 35.6889 43.7889 34.2627 43.101 33.0714ZM21.8084 33.709C20.55 33.709 19.5433 32.7694 19.5433 31.6116C19.5433 30.4539 20.55 29.5142 21.8084 29.5142C23.0669 29.5142 24.0736 30.4539 24.0736 31.6116C24.0736 32.7694 23.0669 33.709 21.8084 33.709ZM24.3421 15.5877L22.5635 27.031C22.5132 27.4001 22.1944 27.6686 21.8084 27.6686C21.4225 27.6686 21.1037 27.4001 21.0534 27.031L19.2748 15.5877C19.1909 14.8326 19.3923 14.1111 19.8789 13.5406C20.852 12.4332 22.7481 12.4332 23.7212 13.5406C24.2246 14.1111 24.426 14.8494 24.3421 15.5877Z"/>
</svg>
