<svg width="23" height="23" viewBox="0 0 23 23" fill="none" xmlns="http://www.w3.org/2000/svg">
<g clip-path="url(#clip0_1_230)">
<path d="M12.1738 5.43555H10.8262V6.7832H12.1738V5.43555Z" fill="#525252"/>
<path d="M12.1738 8.13086H10.8262V9.47852H12.1738V8.13086Z" fill="#525252"/>
<path d="M10.8262 13.5215C10.8262 14.2526 10.8262 14.7505 10.8262 15.543C10.8262 15.9141 11.1289 16.2168 11.5 16.2168C11.8711 16.2168 12.1738 15.9141 12.1738 15.543C12.1738 14.7505 12.1738 14.2526 12.1738 13.5215H10.8262Z" fill="#525252"/>
<path d="M16.2168 4.08789H13.5215V5.43555H15.543C16.2417 5.43555 16.8735 5.70975 17.353 6.14769C17.4853 5.93656 17.5645 5.69389 17.5645 5.43555C17.5645 4.69196 16.9604 4.08789 16.2168 4.08789Z" fill="#525252"/>
<path d="M11.5 2.74023C11.1289 2.74023 10.8262 3.04292 10.8262 3.41406V4.08789H12.1738V3.41406C12.1738 3.04292 11.8711 2.74023 11.5 2.74023Z" fill="#525252"/>
<path d="M12.1738 10.8262H10.8262V12.1738H12.1738V10.8262Z" fill="#525252"/>
<path d="M20.9785 0.0449219L2.02148 0C0.906793 0 0 0.906793 0 2.02148V20.9785C0 22.0932 0.906793 23 2.02148 23H20.9785C22.0932 23 23 22.0932 23 20.9336V2.02148C23 0.951715 22.0932 0.0449219 20.9785 0.0449219ZM18.2383 8.13086C18.2383 8.8612 17.9394 9.53664 17.4329 10.0374C17.5105 10.2885 17.5645 10.5499 17.5645 10.8262C17.5645 12.312 16.355 13.5215 14.8691 13.5215C14.4967 13.5215 14.1953 13.2201 14.1953 12.8477C14.1953 12.4752 14.4967 12.1738 14.8691 12.1738C15.6127 12.1738 16.2168 11.5698 16.2168 10.8262C16.2168 10.0826 15.6127 9.47852 14.8691 9.47852H13.5215V14.8691H15.543C16.6577 14.8691 17.5645 15.7759 17.5645 16.8906C17.5645 17.8158 16.9222 18.6134 16.0023 18.8318C14.8061 19.1524 13.8 19.8686 13.1293 20.7823C12.6911 21.3166 12.1054 21.6074 11.5 21.6074C10.8644 21.6074 10.2761 21.2981 9.88385 20.7586C9.16262 19.8149 8.12821 19.1346 6.97929 18.8542C6.04622 18.5897 5.43555 17.804 5.43555 16.8906C5.43555 15.7759 6.34234 14.8691 7.45703 14.8691H9.47852V9.47852H8.13086C7.38727 9.47852 6.7832 10.0826 6.7832 10.8262C6.7832 11.5698 7.38727 12.1738 8.13086 12.1738C8.50331 12.1738 8.80469 12.4752 8.80469 12.8477C8.80469 13.2201 8.50331 13.5215 8.13086 13.5215C6.64502 13.5215 5.43555 12.312 5.43555 10.8262C5.43555 10.5499 5.48941 10.2885 5.56708 10.0374C5.06063 9.53673 4.76172 8.8612 4.76172 8.13086C4.76172 7.85463 4.81558 7.59323 4.89325 7.34212C4.3868 6.84142 4.08789 6.16589 4.08789 5.43555C4.08789 3.94971 5.29737 2.74023 6.7832 2.74023H9.60263C9.88173 1.95756 10.6227 1.39258 11.5 1.39258C12.3773 1.39258 13.1183 1.95756 13.3974 2.74023H16.2168C17.7026 2.74023 18.9121 3.94971 18.9121 5.43555C18.9121 6.16589 18.6132 6.84133 18.1068 7.34212C18.1843 7.59323 18.2383 7.85463 18.2383 8.13086Z" fill="#525252"/>
<path d="M15.543 6.7832H13.5215V8.13086H14.8691C15.5679 8.13086 16.1997 8.40506 16.6791 8.84301C16.8115 8.63187 16.8906 8.38921 16.8906 8.13086C16.8906 7.38727 16.2866 6.7832 15.543 6.7832Z" fill="#525252"/>
<path d="M15.543 16.2168H13.4057C13.128 17.0012 12.3791 17.5645 11.5 17.5645C10.6209 17.5645 9.87203 17.0012 9.59432 16.2168H7.45703C7.08589 16.2168 6.7832 16.5195 6.7832 16.8906C6.7832 17.242 7.05431 17.4763 7.3228 17.5513C8.74548 17.8974 10.0471 18.7529 10.9644 19.9531C11.0538 20.0755 11.2276 20.2598 11.5 20.2598C11.7751 20.2598 11.9711 20.0689 12.0646 19.9557C12.9026 18.8143 14.1806 17.9215 15.6732 17.525C15.9536 17.4592 16.2168 17.2394 16.2168 16.8906C16.2168 16.5195 15.9141 16.2168 15.543 16.2168Z" fill="#525252"/>
<path d="M6.7832 4.08789C6.03961 4.08789 5.43555 4.69196 5.43555 5.43555C5.43555 5.69385 5.51474 5.93665 5.64708 6.14769C6.12658 5.70975 6.75827 5.43555 7.45703 5.43555H9.47852V4.08789H6.7832Z" fill="#525252"/>
<path d="M7.45703 6.7832C6.71344 6.7832 6.10938 7.38727 6.10938 8.13086C6.10938 8.38916 6.18857 8.63196 6.32091 8.84301C6.80041 8.40506 7.4321 8.13086 8.13086 8.13086H9.47852V6.7832H7.45703Z" fill="#525252"/>
</g>
<defs>
<clipPath id="clip0_1_230">
<rect width="23" height="23" fill="white"/>
</clipPath>
</defs>
</svg>
