<?xml version="1.0" encoding="UTF-8"?>
<svg id="Layer_1" data-name="Layer 1" xmlns="http://www.w3.org/2000/svg" version="1.1" viewBox="0 0 512 512">
  <defs>
    <style>
      .cls-1 {
        fill: #525252;
        stroke-width: 0px;
      }
    </style>
  </defs>
  <path class="cls-1" d="M221.1,434.5c-30.3-37.1-63.3-53.7-107.1-53.7s-25,1.3-38.9,3.7c-2.6.5-5.3.7-7.9.7-5.5,0-10.9-1-15.9-2.9,0,2.4.2,4.8.3,7,2.2,37.9,9.9,77.8,21.7,112.5,2.1,6.1,7.8,10.2,14.2,10.2h153.5v-63.6c-7.7-2.7-14.6-7.5-19.9-14h0Z"/>
  <path class="cls-1" d="M436.8,384.5c-13.9-2.5-26.9-3.7-38.9-3.7-43.8,0-76.8,16.6-107.1,53.7-5.3,6.5-12.2,11.3-19.9,14v63.6h153.5c6.4,0,12.1-4.1,14.2-10.2,11.8-34.6,19.5-74.6,21.7-112.5.1-2.3.2-4.6.3-7-5.1,1.9-10.4,2.9-15.9,2.9s-5.3-.2-7.9-.7h0Z"/>
  <path class="cls-1" d="M77.1,251h357.8c-7.9-20.9-16.4-43.8-23.3-62.4-15.1-40.8-15-83.9.3-124.5,4.8-12.8,16.3-41.2,17.1-43.2,2-4.6,1.5-9.9-1.2-14.1-2.8-4.2-7.5-6.8-12.6-6.8H96.8c-5.1,0-9.8,2.6-12.6,6.8-2.7,4.2-3.2,9.5-1.2,14.1.8,1.9,12.3,30.4,17.1,43.2,15.3,40.7,15.4,83.7.3,124.5-6.9,18.6-15.4,41.5-23.3,62.4ZM256,176c8.3,0,15,6.7,15,15s-6.7,15-15,15-15-6.7-15-15,6.7-15,15-15Z"/>
  <path class="cls-1" d="M442.1,355c4,.7,8.2-.2,11.5-2.6s5.5-6,6-10.1v-.2c.2-1.1.2-2.3.1-3.4-1.9-20.2-5.7-38-11.5-52.7-.6-1.6-1.2-3.2-1.9-4.9H65.6c-.7,1.7-1.3,3.4-1.9,4.9-5.7,14.8-9.6,32.5-11.5,52.7,0,1.1,0,2.3,0,3.4v.2c.6,4,2.8,7.7,6.1,10.1s7.4,3.4,11.5,2.6c75.5-13.5,129.3,5.2,174.5,60.5,2.9,3.5,7.1,5.5,11.6,5.5s8.8-2,11.6-5.5c45.2-55.3,99-74,174.5-60.5h.1Z"/>
</svg>