<?xml version="1.0" encoding="UTF-8"?>
<svg id="Layer_1" data-name="Layer 1" xmlns="http://www.w3.org/2000/svg" version="1.1" viewBox="0 0 512 512">
  <defs>
    <style>
      .cls-1 {
        fill: #525252;
        stroke-width: 0px;
      }
    </style>
  </defs>
  <path class="cls-1" d="M488.6,299.9c-29.7,57-90.1,48.9-153.9,96.8-23.5,17.6-44,40.5-61,68-18.3,29.6-49.9,47.3-84.6,47.3H50.9c-18.8,0-35.4-13.4-39.3-31.8-4.9-23,10.9-45.4,34.4-48.4,37.3-4.4,69.6-25.3,88.7-56.8,25.2-41.4,41.2-86.2,47.5-133,2.5-18.1-.8-36.1-9.5-52.2L97.2,50.4C84.9,27.7,101.3,0,127.2,0h161.1C301.2,0,312.9,7.2,318.8,18.8c6,11.9,12.5,23.3,19.6,34,5,7.7,28.6,70,44.1,124.5,1.3,4.5,5.9,7.2,10.5,5.9,4.5-1.3,7.2-6,5.9-10.5-4.4-15.4-8.8-29.8-14.6-47.2-2.1-6.4,5.5-11.9,11.1-7.1,45.2,38.5,85.5,48.1,100.7,93.5,14.8,44.2-6.6,86.2-7.5,88Z"/>
</svg>