<?xml version="1.0" encoding="UTF-8"?>
<svg id="Layer_1" data-name="Layer 1" xmlns="http://www.w3.org/2000/svg" version="1.1" viewBox="0 0 512 512">
  <defs>
    <style>
      .cls-1 {
        fill: #525252;
        stroke-width: 0px;
      }
    </style>
  </defs>
  <path class="cls-1" d="M400.6,267.2c-4.4-20.1,3.1-40.9,8.5-49.7-10.1-16.2-23.6-30.7-38.2-40.5C265.1,109.3,222.1,47,208.5,23.4c-1.5-2.3-4.6-3.1-6.9-1.6-25.8,15.7-49.2,34.9-69.7,57-33.6,36.3-55.3,77-64.4,120.8-16.6,79.9,9,168.2,76.1,262.6,22.1,31,65.2,38.2,96.2,16,8-5.7,14.7-13.1,19.6-21.7,4.6-7.8,10.1-15.1,16.5-21.6-27-.8-53.3-9.2-75.8-24.3-31.4-21-52.7-54.2-58.6-91.5-.4-2.7,1.4-5.3,4.2-5.7,2.7-.4,5.2,1.4,5.7,4.1,5.5,34.6,25.2,65.3,54.3,84.8,61.5,41.5,148.5,24.5,194-37.7,15.7-21.4,24.9-42.4,27.9-63.6-14.4-7.3-23.7-18.9-26.9-33.7Z"/>
  <path class="cls-1" d="M437.2,242.9c-1.1,0-2.3,0-3.4.2-6.5,1.1-12.9-2.4-15.7-8.4-1-2.3-2.1-4.5-3.2-6.8-3.7,8.6-7.6,23.4-4.6,37.2,2.3,10.7,8.4,19,18.1,24.9.2-4.1.1-8.3-.2-12.4-.3-5.9,4.2-11,10.1-11.4,6.4-.5,11.2-6.6,11.2-11.7s-5.5-11.7-12.3-11.7h0Z"/>
</svg>