<?xml version="1.0" encoding="UTF-8"?>
<svg id="Layer_1" data-name="Layer 1" xmlns="http://www.w3.org/2000/svg" version="1.1" viewBox="0 0 512 512">
  <defs>
    <style>
      .cls-1 {
        fill: #525252;
        stroke-width: 0px;
      }
    </style>
  </defs>
  <g id="Male_Body" data-name="Male Body">
    <path class="cls-1" d="M451.1,108.8c-6.9-40.5-32.9-58.5-69.4-65.4-26.2-5-74.2-2.2-89.9,4.5-19.5,8.2-32.6,10.8-35.8,35.9-3.2-25.1-16.3-27.7-35.8-35.9-15.8-6.6-63.7-9.5-89.9-4.5-40,7.6-67.5,28.5-70.8,77.8-.6,14.2,0,28.3,1.7,42.4,3.8,12.5,11.1,23.7,21,32.3,12.8,11,28.9,17.6,45.8,18.8,60.7,5.1,82.2,1,105.4-14.6,11.8-8.1,20-20.4,22.7-34.5,2.7,14,10.9,26.4,22.7,34.5,22.6,15.2,43.4,19.9,105.4,14.6,16.7-1.2,32.6-7.7,45.4-18.6,10-8.6,17.4-19.9,21.3-32.6,2.5-18.2,2.6-36.7.2-54.9h0ZM112,182.4c-4.4,0-7.9-3.5-7.9-7.8,0-4.4,3.5-7.9,7.8-7.9,4.4,0,7.9,3.5,7.9,7.8,0,4.3-3.5,7.9-7.8,7.9ZM400,182.4c-4.4,0-7.9-3.5-7.9-7.8s3.5-7.9,7.8-7.9c4.4,0,7.9,3.5,7.9,7.8,0,4.3-3.5,7.9-7.8,7.9Z"/>
    <path class="cls-1" d="M396,321.3c5.6-17.6,11.1-36,16.4-55.2,4.4-16,8.3-31.6,11.9-46.8-12,6.5-25.3,10.4-38.9,11.4-61.2,5-87.3,1.8-115.7-17.3h0c-6-4.3-10.6-10.3-13.3-17.2l-.4-1.1-.4,1.1c-2.7,6.9-7.3,12.9-13.3,17.2h0c-29.2,19.6-55.9,22.2-115.7,17.3-13.6-1-26.9-4.9-38.9-11.4,3.6,15.2,7.5,30.8,11.9,46.8,5.3,19.2,10.8,37.6,16.4,55.2,3.4,10.8,1.7,11.7,3.8,56.2,2.2,47,3.2,47.8,1,57.3l-7.5,31.4c-.5,2.2.9,4.3,3.1,4.8.3,0,.6,0,.8,0h277.8c2.2,0,4-1.8,4-4,0-.3,0-.6,0-.8l-7.5-31.4c-1.1-4.7-1.5-9.5-1.3-14.3.8-13.2,1.8-32.5,2.2-43,2.1-44.6.3-45.4,3.8-56.2h0ZM228.1,264.6c-20.6,22.5-36.5,48.8-46.7,77.5-1.5,4.2-6.1,6.3-10.3,4.8-4.1-1.5-6.3-6-4.9-10.2,11-30.7,28-58.9,50.1-83,3-3.2,8.1-3.4,11.3-.3,3.2,3,3.4,7.9.5,11.1ZM248,286.9c0-4.4,3.6-8,8-8s8,3.6,8,8v111.8c0,4.4-3.7,8-8.1,7.9-4.4,0-7.9-3.6-7.9-7.9v-111.8ZM256,456.8c-4.6,0-8.3-3.7-8.3-8.3s3.7-8.3,8.3-8.3c4.6,0,8.3,3.7,8.3,8.3,0,4.6-3.7,8.3-8.3,8.3ZM330.6,342.1c-10.2-28.7-26.1-55.1-46.7-77.5-2.9-3.3-2.7-8.3.6-11.3,3.2-2.9,8.2-2.7,11.1.5,22.1,24,39.1,52.2,50.1,83,1.5,4.2-.7,8.8-4.9,10.2-4.2,1.5-8.7-.7-10.2-4.9Z"/>
  </g>
</svg>