<?xml version="1.0" encoding="UTF-8"?>
<svg id="Capa_1" data-name="Capa 1" xmlns="http://www.w3.org/2000/svg" version="1.1" viewBox="0 0 512 512">
  <defs>
    <style>
      .cls-1 {
        fill: #525252;
        stroke-width: 0px;
      }
    </style>
  </defs>
  <path class="cls-1" d="M193.3,298.2l-5.8-4-.6-7c-.4-4.3-3.2-6.5-4.8-7.4-1.3-.8-4.8-2.3-8.7-.5l-6.4,3-6.4-3c-1.4-.6-2.7-.9-3.9-.9-2.3,0-4.1.9-4.9,1.4-1.3.8-4.3,3-4.7,7.2l-.6,7.1-5.9,4.1c-3.7,2.5-4.1,6.3-4.1,7.7s.4,5.2,4.1,7.7l5.8,4,.6,7c.4,4.3,3.2,6.5,4.8,7.4,1.3.8,4.8,2.3,8.7.5l6.4-3,6.4,3c4,1.9,7.5.3,8.8-.5s4.3-3,4.7-7.2l.6-7,5.8-4.1c3.6-2.5,4-6.3,4-7.8s-.4-5.3-3.9-7.7h0Z"/>
  <path class="cls-1" d="M395.2,212.5c-52.1-28.2-114.8-6.4-160.8,26.1,0,0-3.1-91.3-31.1-162.6-9.2-23.3-12.5-50.3-12.9-76h-95.7c-53.2,190.5-37.3,360.1-9.6,387.8,32.1,32.1,387.8,32.5,387.8,32.5v-233.3c-46.2-6.3-77.8,25.4-77.8,25.4h.1ZM215.7,334c-2.6,10-9.2,18.7-18.3,24-9.2,5.4-20.1,6.8-30.2,4.1-3.4.9-6.8,1.4-10.3,1.4-6.8,0-13.6-1.8-19.8-5.3-9.2-5.3-15.9-14-18.6-24.1-7.5-7.3-11.8-17.4-11.8-28.1s4.3-20.7,11.7-28c2.6-10,9.2-18.6,18.3-24,9.2-5.4,20.1-6.8,30.2-4.1,10-2.7,20.8-1.4,30,3.9,9.3,5.3,15.9,14,18.6,24.1,7.3,7.3,11.6,17.3,11.6,27.9s-4.2,20.8-11.6,28.1h.2Z"/>
</svg>