<?xml version="1.0" encoding="UTF-8"?>
<svg id="Solid" xmlns="http://www.w3.org/2000/svg" version="1.1" viewBox="0 0 512 512">
  <defs>
    <style>
      .cls-1 {
        fill: #525252;
        stroke-width: 0px;
      }
    </style>
  </defs>
  <path class="cls-1" d="M256.1,35.9c-117.7,0-173,98.6-173,220.1s85.1,220.1,173,220.1,173-98.6,173-220.1-55.3-220.1-173-220.1h0ZM230,295.8c2.1-2.5,5.8-2.7,8.3-.6h0c12.2,10.5,23.6,10.5,35.8,0,2.5-2.1,6.2-1.8,8.3.6s1.8,6.2-.6,8.3h0c-6.9,6.6-16,10.4-25.6,10.8-9.6-.4-18.6-4.2-25.6-10.8-2.5-2.1-2.7-5.8-.6-8.3h0ZM133.5,245.6c0-20.3,21.3-36.7,47.5-36.7s47.5,16.4,47.5,36.7-21.2,36.7-47.5,36.7-47.5-16.4-47.5-36.7h0ZM309.2,381.9c-13.7,14.6-33,22.6-53,22-20,.6-39.3-7.4-53-22-2.8-3.1-2.6-8,.6-10.8.2-.2.4-.3.6-.5,14.2-10.5,26.6-20.3,38.3-20.3,3.4-.2,6.8.8,9.6,2.6,2.4,1.6,5.5,1.6,7.9,0,2.9-1.9,6.2-2.8,9.6-2.6,11.7,0,24.1,9.8,38.3,20.3,3.4,2.5,4.2,7.3,1.7,10.7-.2.2-.3.4-.5.6h-.1ZM331.4,282.3c-26.2,0-47.5-16.4-47.5-36.7s21.3-36.7,47.5-36.7,47.5,16.4,47.5,36.7-21.3,36.7-47.5,36.7h0Z"/>
  <path class="cls-1" d="M272.7,381.7h-32.9c-3.5,0-6.3-2.8-6.3-6.3s2.8-6.3,6.3-6.3h32.9c3.5,0,6.3,2.8,6.3,6.3s-2.8,6.3-6.3,6.3h0Z"/>
</svg>