<?xml version="1.0" encoding="UTF-8"?>
<svg id="Layer_1" data-name="Layer 1" xmlns="http://www.w3.org/2000/svg" version="1.1" viewBox="0 0 512 512">
  <defs>
    <style>
      .cls-1 {
        fill: #525252;
        stroke-width: 0px;
      }
    </style>
  </defs>
  <path class="cls-1" d="M456.1,108.3l-1.5-.3c-18.5-4.3-37,7.2-41.4,25.6l-30.9,131.5,14-200.9c1.3-18.9-13-35.3-31.9-36.7h-1.5c-18.9-1.4-35.3,12.9-36.7,31.8l-13.7,195.4h-.8c0-.1-5.2-221.1-5.2-221.1C306.1,14.6,290.4-.4,271.4,0h-1.5c-19,.5-34,16.3-33.6,35.2l4.9,207.8h-.3c0,0-42.1-199.7-42.1-199.7-4-18.6-22.2-30.4-40.8-26.6l-1.5.3c-18.6,4-30.4,22.2-26.6,40.8l46.4,220-3.4,11.3-16.6-18.8c-12.5-14.1-27.3-25.9-43.9-34.9l-10.7-5.8c-27.2-14.8-61.2-4.7-75.9,22.5-1.4,2.6-2.6,5.2-3.6,8-.9,2.6.2,5.6,2.6,7l26.2,15.8c32.2,19.4,59.1,46.7,78.1,79.2l45.2,77.2c9,17.4,21.3,32.9,36.2,45.6l12,10.2c12.8,10.9,29,16.9,45.8,16.9h92.6c46,0,83.2-37.2,83.2-83.2h0v-118.5l37.7-160.6c4.3-18.5-7.2-37-25.6-41.4h0Z"/>
</svg>