<?xml version="1.0" encoding="UTF-8"?>
<svg xmlns="http://www.w3.org/2000/svg" version="1.1" xmlns:xodm="http://www.corel.com/coreldraw/odm/2003" viewBox="0 0 512 512">
  <defs>
    <style>
      .cls-1 {
        fill: #525252;
        fill-rule: evenodd;
        stroke-width: 0px;
      }
    </style>
  </defs>
  <g id="Layer_1" data-name="Layer 1" image-rendering="optimizeQuality" shape-rendering="geometricPrecision" text-rendering="geometricPrecision">
    <g id="Layer_1-2" data-name="Layer_1">
      <g id="_1798489762832" data-name=" 1798489762832">
        <path class="cls-1" d="M385.2,512c-15.6,0-38.6-5.7-59.9-33l-184.8-194.4c-25.1-26.4-30.2-61.5-14.1-98.8,10.3-24,28.5-46.8,51.2-64.2,23.1-17.7,47.9-27.5,69.8-27.5s51.9,18,62.5,50.7c8.3,25.5,2.6,53.4-1.9,75.8-2.8,13.8-5.2,25.7-3.6,33.1,2.8,13.9,12.9,47.5,45.6,60.1,41.7,16,72.2,37.2,90.5,62.9,19.9,27.8,20.4,53.6,17.2,70.3-6.9,37.1-38,65.1-72.4,65.1h0Z"/>
        <path class="cls-1" d="M87.3,240.3c-10.5,0-21.7-7.6-28.4-19.3-9.4-16.3-7.3-34.6,4.7-41.5,3-1.7,6.3-2.6,9.9-2.6,10.5,0,21.7,7.6,28.4,19.3,4.3,7.5,6.4,15.8,5.7,23.3-.7,8.2-4.4,14.7-10.4,18.2-3,1.7-6.3,2.6-9.9,2.6h0ZM239.6,82.4c-13.6,0-28.1-9.9-37-25.2-12.1-20.9-9.5-45.1,5.7-53.9C212.1,1.1,216.4,0,220.9,0,234.5,0,249.1,9.9,257.9,25.2c12.1,20.9,9.5,45.1-5.7,53.9-3.8,2.2-8,3.3-12.5,3.3h0ZM179.1,103.2c-10.8,0-22.2-7.8-29.1-19.8-9.7-16.7-7.6-35.4,4.8-42.6,3-1.8,6.4-2.7,10.1-2.7,10.8,0,22.2,7.8,29.1,19.8,9.7,16.7,7.6,35.4-4.8,42.6-3,1.8-6.4,2.7-10.1,2.7ZM137.3,140.8c-10.8,0-22.2-7.8-29.1-19.8-4.4-7.7-6.5-16.2-5.9-24,.7-8.4,4.5-15,10.7-18.6,3.1-1.8,6.5-2.7,10.1-2.7,10.8,0,22.2,7.8,29.1,19.8,9.7,16.7,7.6,35.4-4.8,42.6-3.1,1.8-6.4,2.6-10.1,2.6h0ZM106.7,182.6c-9.1,0-18.8-5.2-26-14-11.3-13.8-12.1-31.2-1.8-39.6,3.4-2.8,7.7-4.2,12.4-4.2,9.1,0,18.8,5.2,26,14,5.2,6.3,8.3,13.8,8.8,20.9.6,7.8-1.9,14.4-7.1,18.6-3.4,2.8-7.7,4.2-12.4,4.2h0Z"/>
      </g>
    </g>
  </g>
</svg>