<?xml version="1.0" encoding="UTF-8"?>
<svg id="svg5610" xmlns="http://www.w3.org/2000/svg" version="1.1" xmlns:svg="http://www.w3.org/2000/svg" viewBox="0 0 682.7 682.7">
  <defs>
    <style>
      .cls-1 {
        fill: #525252;
        stroke-width: 0px;
      }
    </style>
  </defs>
  <path class="cls-1" d="M464.6,529c-3.6-5.8-9.5-9.6-16.4-10.5l-18.9-2.3c-5.5-.7-10.5,3.2-11.1,8.7l-26.7-3.3c0-.4,0-.8,0-1.2,0-1-.2-2-.5-3-1-6.9-5.4-12.7-11.4-15.7,5-5.9,8.7-13.1,10.5-20.9,4.8,1.1,9.5,2.9,11.5,5.1,2,2.2,4.7,3.3,7.4,3.3s4.8-.9,6.7-2.6c4.1-3.7,4.4-10,.7-14.1-7.1-7.8-19.2-11-27.2-12.3-2.6-5.3-7.4-9.4-13.3-11,2.7-3.8,4.7-8.1,6-12.7,3,.9,5.6,2,6.7,3.2,2,2.2,4.7,3.3,7.4,3.3s4.8-.8,6.7-2.6c4.1-3.7,4.4-10,.7-14.1-5.8-6.5-15.5-9.3-22.2-10.4-1.5-2.7-3.6-5-6.2-6.7,3.1-4.1,5.5-8.9,6.9-14,2.9.8,5.6,1.9,6.7,3.2,2,2.2,4.7,3.3,7.4,3.3s4.8-.8,6.7-2.6c4.1-3.7,4.4-10,.7-14.1-5.9-6.5-15.6-9.3-22.3-10.5-1-1.9-2.4-3.5-4-4.9,6.2-6.4,10.7-14.4,12.8-23.4,4.8,1.1,9.5,2.9,11.5,5.1,2,2.2,4.7,3.3,7.4,3.3s4.8-.9,6.7-2.6c4.1-3.7,4.4-10,.7-14.1-7.1-7.8-19.2-11-27.1-12.2-2-4.2-5.4-7.6-9.6-9.7,5-5.9,8.6-13,10.4-20.8,4.8,1.1,9.5,2.9,11.5,5.1,2,2.2,4.7,3.3,7.4,3.3s4.8-.9,6.7-2.6c4.1-3.7,4.4-10,.7-14.1-7.1-7.8-19.2-11-27.1-12.2-2-4.2-5.4-7.6-9.6-9.7,5-5.9,8.6-13,10.4-20.8,4.8,1.1,9.5,2.9,11.5,5.1,2,2.2,4.7,3.3,7.4,3.3s4.8-.9,6.7-2.6c4.1-3.7,4.4-10,.7-14.1-7.1-7.8-19.2-11-27.1-12.2-2-4.2-5.4-7.6-9.6-9.7,5-5.9,8.6-13,10.4-20.8,4.8,1.1,9.5,2.9,11.5,5.1,2,2.2,4.7,3.3,7.4,3.3s4.8-.9,6.7-2.6c4.1-3.7,4.4-10,.7-14.1-7.1-7.8-19.2-11-27.1-12.2-2-4.2-5.4-7.6-9.6-9.7,5-5.9,8.6-13,10.4-20.8,4.8,1.1,9.5,2.9,11.5,5.1,2,2.2,4.7,3.3,7.4,3.3s4.8-.9,6.7-2.6c4.1-3.7,4.4-10,.7-14.1-7.1-7.8-19.2-11-27.1-12.2-2-4.2-5.4-7.6-9.6-9.7,5-5.9,8.6-13,10.4-20.8,4.8,1.1,9.5,2.9,11.5,5.1,2,2.2,4.7,3.3,7.4,3.3s4.8-.9,6.7-2.6c4.1-3.7,4.4-10,.7-14.1-7.1-7.8-19.2-11-27.1-12.2-1.8-3.6-4.5-6.6-7.9-8.7,7.5-7.6,12.8-17.2,15.1-28,6.3,1.3,12.7,3.6,15.6,6.7,2,2.2,4.7,3.3,7.4,3.3s4.8-.8,6.7-2.6c4.1-3.7,4.4-10,.7-14.1-8-8.9-22.2-12.4-31.1-13.8-3.4-7.9-11.3-13.4-20.5-13.4h-10.6c-5.5,0-10,4.5-10,10h-7.2c-.8,0-1.7,0-2.5,0h-17c0-5.5-4.5-10-10-10h-10.9c-.3-.2-.8-.4-1.1-.6-2.5-1.4-8.2-4.8-14.4-1.3-5.1,2.9-6.8,8.5-7.4,15.7-8.9,1.5-21.9,5.1-29.5,13.5-3.7,4.1-3.4,10.4.7,14.1,1.9,1.7,4.3,2.6,6.7,2.6,2.7,0,5.5-1.1,7.4-3.3,2.8-3.1,9.3-5.4,15.6-6.7,1.9,9,5.9,17.3,11.6,24.2-4.1,2.7-5.6,7.3-6.2,12.9-7.9,1.4-18.8,4.7-25.4,11.9-3.7,4.1-3.4,10.4.7,14.1,1.9,1.7,4.3,2.6,6.7,2.6s5.4-1.1,7.4-3.3c2.1-2.3,6.7-4,11.5-5.1,1.4,6.1,3.9,11.7,7.4,16.7-.5.2-1,.5-1.5.8-4.5,2.7-6.2,7.4-6.8,13.3-7.9,1.4-18.8,4.7-25.4,11.9-3.7,4.1-3.4,10.4.7,14.1,1.9,1.7,4.3,2.6,6.7,2.6s5.4-1.1,7.4-3.3c2.1-2.3,6.7-4,11.5-5.1,1.4,6.1,3.9,11.7,7.4,16.7-.5.2-1,.5-1.5.8-4.5,2.7-6.2,7.4-6.8,13.3-7.9,1.4-18.8,4.7-25.4,11.9-3.7,4.1-3.4,10.4.7,14.1,1.9,1.7,4.3,2.6,6.7,2.6s5.4-1.1,7.4-3.3c2.1-2.3,6.7-4,11.5-5.1,1.4,6.1,3.9,11.7,7.4,16.7-.5.2-1,.5-1.5.8-4.5,2.7-6.2,7.4-6.8,13.3-7.9,1.4-18.8,4.7-25.4,11.9-3.7,4.1-3.4,10.4.7,14.1,1.9,1.7,4.3,2.6,6.7,2.6s5.4-1.1,7.4-3.3c2.1-2.3,6.7-4,11.5-5.1,1.4,6.1,3.9,11.7,7.4,16.7-.5.2-1,.5-1.5.8-4.5,2.7-6.2,7.4-6.8,13.3-7.9,1.4-18.8,4.7-25.4,11.9-3.7,4.1-3.4,10.4.7,14.1,1.9,1.7,4.3,2.6,6.7,2.6s5.4-1.1,7.4-3.3c2.1-2.3,6.7-4,11.5-5.1,1.4,6.1,3.9,11.7,7.4,16.7-.5.2-1,.5-1.5.8-4.5,2.7-6.2,7.4-6.8,13.3-7.9,1.4-18.8,4.7-25.4,11.9-3.7,4.1-3.4,10.4.7,14.1,1.9,1.7,4.3,2.6,6.7,2.6s5.4-1.1,7.4-3.3c2.1-2.3,6.7-4,11.5-5.1,1.8,7.6,5.3,14.5,10.1,20.4-1.9,2.2-2.9,5.1-3.3,8.4-6.5,1.4-14.9,4.2-20.2,10.1-3.7,4.1-3.4,10.4.7,14.1,1.9,1.7,4.3,2.6,6.7,2.6s5.5-1.1,7.4-3.3c1.1-1.2,3.6-2.3,6.5-3.1,1.1,3.7,2.6,7.3,4.6,10.5-3.5,2.4-5.1,6.2-5.7,10.6-6.5,1.4-14.9,4.2-20.2,10.1-3.7,4.1-3.4,10.4.7,14.1,1.9,1.7,4.3,2.6,6.7,2.6s5.5-1.1,7.4-3.3c1.1-1.2,3.6-2.3,6.5-3.1.9,3.2,2.2,6.2,3.8,9-1.8,0-3.8.5-5.8,1.7-4.5,2.7-6.2,7.4-6.8,13.2-7.9,1.4-18.8,4.7-25.4,11.9-3.7,4.1-3.4,10.4.7,14.1,1.9,1.7,4.3,2.6,6.7,2.6s5.4-1.1,7.4-3.3c2-2.3,6.7-4,11.5-5.1,1.8,7.8,5.4,14.9,10.4,20.8-2,1-3.9,2.3-5.5,3.9-1.7,1.7-3.1,3.6-4.1,5.8l-57.8,7.2c-6.7.9-12.6,4.6-16.2,10.4-3.6,5.7-4.4,12.7-2.2,19.1l14.8,43.6c7.8,23.3,27.8,40.1,52.1,43.9,3.7.6,7.4,1.9,10.8,3.9,3.2,1.9,6.2,4.5,8.6,7.4l21.6,27.5c4.2,5.4,10.6,8.4,17.4,8.4s13.2-3.1,17.5-8.5l21.6-27.5c4.7-6,11.5-10,19.3-11.3,11.9-1.9,23.1-6.9,32.3-14.7,9.2-7.9,16.1-18,19.9-29.2l14.8-43.6c2.2-6.3,1.4-13.2-2.1-19Z"/>
</svg>