<?xml version="1.0" encoding="UTF-8"?>
<svg id="Layer_1" data-name="Layer 1" xmlns="http://www.w3.org/2000/svg" version="1.1" viewBox="0 0 512 512">
  <defs>
    <style>
      .cls-1 {
        fill: #525252;
        stroke-width: 0px;
      }
    </style>
  </defs>
  <g id="Page-1">
    <g id="sapiens_filled" data-name="sapiens filled">
      <path id="vagina_-ovaries_-reproduction_-uteris_-woman_-genitals" data-name="vagina,-ovaries,-reproduction,-uteris,-woman,-genitals" class="cls-1" d="M271.5,487.6v-233.9c22.4-6.7,38.8-27.5,38.8-52.1s-6.9-15.5-15.5-15.5-15.5,6.9-15.5,15.5c0,12.9-10.4,23.3-23.3,23.3s-23.3-10.4-23.3-23.3-6.9-15.5-15.5-15.5-15.5,6.9-15.5,15.5c0,24.6,16.4,45.4,38.8,52.1v233.9c-20.4-2.9-40.6-11.6-60.4-25.9-21.1-15.2-30.5-41.9-23.6-67,9.5-34.1,14.2-64.9,14.2-92.2s-4.2-31.9-17.8-59-21-47.2-21-72.9,12.5-58.5,33.1-79.3l-9.5-13.7c-10.1-14.7-26.8-23.4-44.6-23.4h-13.8c-19.3,0-34.9,15.6-34.9,34.9v76.3c18.1,6.4,31,23.6,31,43.9s-20.8,46.5-46.5,46.5S0,235.2,0,209.5s13-37.5,31-43.9v-76.3c0-36.4,29.5-65.9,65.9-65.9h13.8c28,0,54.2,13.7,70.2,36.8l8.5,12.2c19.2-11.4,42-18,66.6-18s47.4,6.6,66.6,18l8.5-12.2c15.9-23,42.2-36.8,70.2-36.8h13.8c36.4,0,65.9,29.5,65.9,65.9v76.3c18.1,6.4,31,23.6,31,43.9s-20.8,46.5-46.5,46.5-46.5-20.8-46.5-46.5,13-37.5,31-43.9v-76.3c0-19.3-15.6-34.9-34.9-34.9h-13.8c-17.8,0-34.5,8.7-44.6,23.4l-9.5,13.7c20.6,20.8,33.1,48.7,33.1,79.3s-5.5,41.8-21,72.9-17.8,39.4-17.8,59,4.7,58.1,14.2,92.2c7,25.1-2.4,51.8-23.6,67-19.8,14.2-40,22.9-60.4,25.9h0Z"/>
    </g>
  </g>
</svg>