<?xml version="1.0" encoding="UTF-8"?>
<svg id="Layer_1" data-name="Layer 1" xmlns="http://www.w3.org/2000/svg" version="1.1" viewBox="0 0 512 512">
  <defs>
    <style>
      .cls-1 {
        fill: #525252;
        stroke-width: 0px;
      }
    </style>
  </defs>
  <path class="cls-1" d="M429.6,209.1c-15.1-6.6-32.4,1.3-38.5,17.6l-35.1,85.3h-11.3V80c0-17.6-13.3-32-29.5-32s-29.5,14.4-29.5,32v151.8l-14.8.3V32c0-17.6-13.3-32-29.5-32s-29.5,14.4-29.5,32v199.8l-14.9.2V64c0-17.6-13.3-32-29.5-32s-29.5,14.4-29.5,32v183.8l-14.8.3v-120.1c0-17.6-13.3-32-29.5-32s-29.7,14.4-29.7,32v216c0,75.8,37.1,168,169,168s79.4-7,100.7-21c13.3-8.8,24.8-20.1,33.7-33.3,6.7-9.9,12.1-20.5,16-31.8l62.5-175.1c6.1-16.3-1.3-35.1-16.3-41.7h0Z"/>
</svg>