<?xml version="1.0" encoding="UTF-8"?>
<svg id="Layer_1" data-name="Layer 1" xmlns="http://www.w3.org/2000/svg" version="1.1" viewBox="0 0 100 100">
  <defs>
    <style>
      .cls-1 {
        fill: #525252;
        stroke-width: 0px;
      }
    </style>
  </defs>
  <path class="cls-1" d="M87,65.9h-2.7v4.9c0,.2-.1.5-.3.6l-1.2.7c-.4.2-.5.7-.2,1.1l1.1,1.2c.2.3.2.7,0,1l-1.6,1.6c-.2.2-.2.6,0,.8.7,1.2,1.1,2.5,1.1,3.8,0,4.3-3.8,8.1-8.6,7.4l-10.9-1.7-.9,10.3H23c1.7-7.1,2-12.4,2-20.3,0-2.7-.9-3.3-4.5-8.4C-22.3,8.9,64.1-23.7,83.7,29c2.2,5.8.9,12-1.4,17.7l8.3,12.3c1.9,2.9,0,6.8-3.5,6.9Z"/>
</svg>