<?xml version="1.0" encoding="UTF-8"?>
<svg id="Solid" xmlns="http://www.w3.org/2000/svg" version="1.1" viewBox="0 0 512 512">
  <defs>
    <style>
      .cls-1 {
        fill: #525252;
        stroke-width: 0px;
      }
    </style>
  </defs>
  <path class="cls-1" d="M11.3,198.3c0,11.6,17.5,11.7,18,0,.1-6.2.8-12.4,2-18.5,3.9-16.4,11.8-31.5,23-44.1,17.9-19.7,42.8-30.1,72.2-30.1s2.2,0,3.4,0c39.2,1,65,26.5,83,45,2.5,2.4,6.5,2.4,8.9,0,2.1-2.2,2.4-5.5.7-8-26.7-36-74.4-63.1-118.3-54.4C41,100.8,14.7,163.1,11.8,190.8c-.3,2.5-.4,5-.4,7.6Z"/>
  <path class="cls-1" d="M500.7,198.3c0,11.6-17.5,11.7-18,0-.1-6.2-.8-12.4-2-18.5-3.9-16.4-11.8-31.5-23-44.1-17.9-19.7-42.8-30.1-72.2-30.1s-2.2,0-3.4,0c-39.2,1-65,26.5-83,45-2.5,2.4-6.5,2.4-8.9,0-2.1-2.2-2.4-5.5-.7-8,26.7-36,74.4-63.1,118.3-54.4,63.2,12.5,89.6,74.9,92.5,102.5.3,2.5.4,5,.4,7.6Z"/>
  <path class="cls-1" d="M206,53c3.7,2.1,7.7,3.5,11.9,4.3,2.5.5,4.3,2.7,4.5,5.2.2,3.1.5,7.5.7,11.2.2,3.2-2.2,5.9-5.4,6.2-.7,0-1.5,0-2.2-.3-.8-.3-1.6-.5-2.4-.8-8.3-3-12.8,17.2-4.5,22.5,4,2.2,8.3,3.7,12.7,4.5,2.6.5,4.4,2.8,4.5,5.4.3,6.6.4,15.8.4,16.6,0,4.8,3,9.1,7.7,10.5,14.4,4.3,29.8,4.3,44.2,0,4.6-1.4,7.7-5.7,7.6-10.5,0-.8.2-10.1.4-16.7,0-2.6,2-4.9,4.5-5.4,4.4-.8,8.7-2.3,12.7-4.4,8.2-5.2,3.8-25.5-4.5-22.5-.8.3-1.5.5-2.2.8-3,1.1-6.4-.6-7.4-3.6-.3-.7-.4-1.5-.3-2.3l.7-11.1c.2-2.6,2-4.8,4.5-5.3,4.2-.8,8.2-2.2,11.9-4.3,8.3-5.2,3.8-25.5-4.5-22.5-1.3.5-2.6.9-3.8,1.3-3.1,1-6.4-.7-7.3-3.8-.2-.5-.3-1.1-.3-1.7,0-1.5,0-2.9,0-4.3-.2-6.5-5.5-11.7-12-11.7h-44.1c-6.5,0-11.8,5.2-12,11.7,0,1.4,0,2.8,0,4.3,0,3.2-2.7,5.8-5.9,5.8-.6,0-1.1,0-1.7-.3-1.2-.4-2.5-.8-3.8-1.3-8.4-3-12.8,17.3-4.5,22.5h0ZM286.9,98.9c-.2,2.4-1.8,4.4-4,5.1-8.7,2.7-17.7,4.1-26.8,4.1-9.1,0-18.2-1.4-26.9-4.1-2.3-.7-3.9-2.8-4.1-5.1v-.4c-.3-3.2,2.1-6,5.4-6.3.7,0,1.5,0,2.2.3,15.2,4.8,31.5,4.8,46.7,0,3.1-1,6.4.7,7.3,3.8.2.7.3,1.5.3,2.2v.4ZM229.8,44.8c17,6,35.5,6,52.4,0,2.8-1.3,6.1-.2,7.5,2.6.5,1,.7,2.1.5,3.2h0c0,2.5-1.6,4.6-3.9,5.4-9.7,3.4-20,5.2-30.3,5.2-10.3,0-20.6-1.8-30.4-5.2-2.3-.8-3.8-2.9-3.9-5.4h0c-.4-3.2,1.8-6,4.9-6.4,1-.1,2.1,0,3,.5h0Z"/>
  <path class="cls-1" d="M487.2,359.6c-9.3-5.6-16.3-5.2-21-3.3-1.6.6-2.6,2.2-2.5,3.9.6,9.6-5.7,28.7-20.2,32.4-.5.1-1,.2-1.5.2-3.3,0-6-2.7-6-6,0-2.7,1.8-5.1,4.5-5.8,4.2-1.1,8.1-10,10.2-16.1,1.1-3.3,0-7-2.9-9.1-5.8-4.3-10.9-9.6-14.9-15.6,2.1-13.6-6.1-26.7-19.3-30.8-6-1.6-9.6-7.7-8-13.7.5-1.8,1.4-3.5,2.7-4.9,13.4-13.6,49.3-15.8,60.4-56.9.3-1.1,2.6-13.1,2.8-15.6,4.7-48.6-23.4-100.8-86-100.8s-2,0-3.1,0c-49.4,1.3-67.2,41.3-95.2,60.7-.2-4.4-.3-8.7-.5-13-.2-7.5-6.5-13.5-14-13.3-.6,0-1.2,0-1.7.2-4.9.9-10,1.3-15,1.3-5.1,0-10.1-.4-15.1-1.3-7.5-1.1-14.4,4-15.6,11.4,0,.6-.1,1.2-.2,1.7,0,1.7-.1,3.3-.2,5,0,2.3-2,4-4.2,4-.9,0-1.8-.3-2.5-.9-24.6-20.4-43.3-54.5-88.8-55.7-1,0-2.1,0-3.1,0-62.6,0-90.7,52.1-86,100.8.2,2.5,1.5,10.2,1.8,11.6,3.2,17.1,13.3,32,28,41.3,12.8,8.4,26.3,12.4,33.4,19.7,4.2,4.5,4,11.6-.5,15.8-1.3,1.3-2.9,2.2-4.7,2.6-13.2,4-21.5,17.1-19.4,30.8-4.1,6-9.1,11.3-14.9,15.6-2.8,2.1-4,5.7-2.9,9.1,2.2,6.1,6,15,10.2,16.1,3.2.8,5.1,4.1,4.3,7.3-.7,2.6-3.1,4.5-5.8,4.5-.5,0-1,0-1.5-.2-14.5-3.8-20.9-22.8-20.2-32.4.1-1.7-.9-3.3-2.5-3.9-4.7-1.9-11.7-2.3-21,3.3-19.2,11.6-18,38-5,46.4,9,5.9,17.7,51.1,22.2,78,2.1,13,14.4,21.8,27.5,19.7,12.2-2,20.9-13.1,19.9-25.4-1.4-16.7-2.1-37.9,1.2-52.2,4-17.9,4.6-26.7-1.8-30.8-1.5-.9-2.2-2.7-1.7-4.4,2.6-8.2,6.7-15.9,12.1-22.6,1.3-1.7,3.4-2.6,5.5-2.4h.1c3,.3,5.4,2.8,5.7,5.8,1.3,15.5,5.4,41.3,15.6,55.1,6.9,9.3,22.5,24.3,53.4,34.3,24.9,8.1,41.7-12.9,57.7-43.3,1.2-2.3,3.2-4.1,5.7-5,2.5-.8,4.8-2.3,6.4-4.4,1.1-2,1.9-4.2,2.2-6.5.5-2.2,2.4-3.7,4.6-3.7,2.2,0,4.1,1.5,4.6,3.6.4,2.5,1.3,4.9,2.6,7,1.6,1.8,3.6,3.1,5.8,3.9,2.5.8,4.6,2.6,5.9,5,16,30.3,32.8,51.3,57.7,43.3,30.9-10,46.5-25.1,53.4-34.3,10.3-13.8,14.4-39.6,15.7-55.1.3-3.1,2.6-5.5,5.7-5.8h0c2.1-.2,4.2.7,5.5,2.4,5.4,6.7,9.5,14.4,12.1,22.6.5,1.7-.2,3.5-1.7,4.4-6.4,4.1-5.9,13-1.8,30.8,3.3,14.4,2.6,35.6,1.2,52.2-1,13.2,8.9,24.6,22.1,25.6,12.3.9,23.3-7.7,25.3-19.8,4.4-26.9,13.1-72.1,22.2-78,13-8.4,14.2-34.8-5-46.4h0ZM253.4,224.3c1.5,1.3,3.6,1.3,5.1,0,26.2-22.7,54.9,4.7,55.9,28.8.2,9.4-5.5,17.9-14.2,21.3-13.1,5.6-28.7,18.7-40.4,54.1-.7,2.1-3,3.2-5,2.6-1.2-.4-2.2-1.3-2.6-2.6-11.8-35.4-27.4-48.5-40.4-54.1-8.7-3.5-14.4-12-14.2-21.3,1-24.1,29.7-51.5,55.9-28.8ZM213.4,392.9c-2.3,7.4-9,24.7-21.9,29.8-15.2,6-44.6-8.2-46.8-49.6-.1-2.2,1.6-4.2,3.8-4.3.3,0,.6,0,.9,0,21.4,3.6,42.3,10,62,19.2,1.8.9,2.7,2.9,2.1,4.8h0ZM290.7,365.8c-4.2,2.3-9.1,2.9-13.7,1.8-2.1-.6-4.4-.6-6.6,0-4.3,2.1-7.6,5.8-9.2,10.4-.7,2-2.7,3.4-4.8,3.5h-.8c-2.2,0-4.1-1.4-4.8-3.5-1.6-4.6-4.9-8.3-9.2-10.4-2.1-.7-4.4-.7-6.6,0-4.6,1.1-9.5.5-13.7-1.8-17.4-9.3-40.2-21.4-50.5-32.6-6.3-6.6-10.4-14.9-11.9-23.9-3.7-23.7,22.6-39.3,42.9-26.5,1.7,1,3.4,2,5.2,2.7,14.2,6,25.2,21.2,33.6,46.4,1.9,5.9,7,10.3,13.1,11.3,7.7,1.1,15-3.5,17.4-10.8,8.5-25.4,19.5-40.8,33.8-46.8,1.8-.8,3.5-1.7,5.2-2.7,20.3-12.8,46.6,2.9,42.9,26.5-1.5,9-5.6,17.3-11.8,23.9-10.4,11.2-33.1,23.3-50.5,32.6ZM320.5,422.7c-12.9-5.1-19.6-22.4-21.9-29.8-.6-1.9.3-4,2.1-4.8,19.7-9.2,40.5-15.6,62-19.2,2.2-.3,4.3,1.2,4.6,3.4,0,.3,0,.6,0,.9-2.2,41.4-31.6,55.5-46.8,49.6h0Z"/>
</svg>