<?xml version="1.0" encoding="UTF-8"?>
<svg id="Layer_1" data-name="Layer 1" xmlns="http://www.w3.org/2000/svg" version="1.1" viewBox="0 0 512 512">
  <defs>
    <style>
      .cls-1 {
        fill: #525252;
        stroke-width: 0px;
      }
    </style>
  </defs>
  <path class="cls-1" d="M387.3,390.9c-27.8-64.8-130-71.1-147.3-4.4,0,.4-.2.7-.2,1.1-5,27.2-1,43.7,2.2,57,3.4,14.1,5.6,23.4-3.5,45.2-4.4,10.5,3.3,22.2,14.8,22.2h96.2c8.8,0,16-7.2,16-16v-23.9c0-13.6,30.9-42.8,22.8-78.4-.2-.9-.5-1.9-.9-2.8Z"/>
  <path class="cls-1" d="M436.4,273.4c-12.2-18.1-39.1-18.2-51.3,0-19.3,28.8-19.3,66.4,0,95.2,12.2,18.1,39.1,18.2,51.3,0,19.3-28.8,19.3-66.4,0-95.2Z"/>
  <path class="cls-1" d="M331.3,314.9c26.6-17.1,49.7-48.7,56-76.7,5.9-26.2-10-52.7-36.3-60.2-96-27.4-177.8-76.3-232.9-159.1-5.6-8.5-17.6-9.6-24.7-2.4L10,100.5c-8,8-5.3,21.6,5.1,26,98,41.4,173.2,98,229.9,172.9,20.3,26.8,58.2,33.5,86.4,15.4h0Z"/>
  <path class="cls-1" d="M453.9,510.9c-10.2,0-17.8-9.4-15.7-19.4l33.2-154.1c11.7-53.5-8.7-108.4-51.9-141.8L203.6,28.7c-7-5.4-8.3-15.5-2.9-22.5,5.4-7,15.5-8.3,22.5-2.9l215.9,167c53.2,41.1,77.9,108.7,63.6,173.9l-33.1,154c-1.6,7.5-8.3,12.6-15.6,12.6Z"/>
  <path class="cls-1" d="M198.7,512c-9.1,0-16.3-7.5-16-16.5l4.4-131.9c.5-15.8-6.6-31.1-19-41.1L11.3,197c-6.9-5.5-8-15.6-2.5-22.5s15.6-8,22.5-2.5l156.7,125.5c20.3,16.2,31.9,41.3,31,67.1l-4.4,131.9c-.3,8.7-7.4,15.5-16,15.5Z"/>
</svg>