<?xml version="1.0" encoding="UTF-8"?>
<svg id="Layer_1" data-name="Layer 1" xmlns="http://www.w3.org/2000/svg" version="1.1" viewBox="0 0 512 512">
  <defs>
    <style>
      .cls-1 {
        fill: #525252;
        stroke-width: 0px;
      }
    </style>
  </defs>
  <path class="cls-1" d="M125.9,491c2.5-.1,4.9-.5,7.3-1.1,5.5-1.4,11.3-1.3,16.8,0,6.7,1.7,28.7-.2,41.9-3.6,32.2-8.3,48.4-2.4,57.2.8,1.2.5,2.3.9,3.5,1.2,16.9,3.6,27.7-.3,32.9-12.1,3.7-8.7,3.3-18.6-1.1-27-11.1-21.4-35.4-76.2-22.5-122.9,1.1-3.8,2-7.7,2.8-11.6-37.9-16.8-54.7-45-62.1-66-8.3-23.5-7-42.9-7-43.7.2-2.8,2.6-4.8,5.3-4.6,2.8.2,4.8,2.6,4.6,5.3-.3,13.6,1.9,27.2,6.5,40,9.6,26.7,27.9,46.5,54.4,58.9,3.2-19.7,3.4-39.8.6-59.6-3.6-24.5-12-47.2-23.8-63.9-3.7-5.3-6.8-10.9-9.3-16.8-1.1-2.5,0-5.5,2.5-6.6,2.5-1.1,5.5,0,6.6,2.5,0,0,0,.1,0,.2.7,1.6,1.4,3.2,2.2,4.8,5.3-6.7,16-16.6,36.8-27.1,32.3-16.2,91.7-58.3,109.4-113.5.3-2.3-.3-3.2-2.7-3.6h-159.6c-.6,0-1.2.2-1.7.6-26.6,21.1-47.3,48.7-59.9,80.3-3.5,8.7-6.2,17.6-8.3,26.6,3.3-2.4,6.8-4.3,10.6-5.7,2.6-.9,5.5.5,6.3,3.1s-.5,5.5-3.1,6.3c-.3.1-14.6,5.3-20.7,20-5.2,12.6-3.3,28.6,5.7,47.5,1.6,2.4,8.3,13.9,9.9,36.7,3.4,49.3,17.8,95,42.8,135.7,1.5,2.5,2.8,5.1,4,7.8,7.9-12.1,12.2-29.6,12.8-52.1,0-2.8,2.4-4.9,5.1-4.9,2.8,0,4.9,2.4,4.9,5.1h0c-.8,28.2-7.2,49.5-18.9,63.3,3.3,13.1,3.5,27.5-.2,38.8-3,9.2-8.2,15.8-15.3,18.9-3,1.9-22,13.6-60.3,25.2-2.2.7-4.7,1.3-7.4,2-4.1,1-8.4,2.1-12.1,3.4-2.8.9-4.4,3.8-3.7,6.6.4,2.8,3,4.8,5.8,4.6h0ZM281.8,35.6c2.3-1.5,5.4-.9,6.9,1.5,1.5,2.3.9,5.3-1.4,6.9-22,14.6-57.7,46.4-50,95.6.4,2.7-1.4,5.3-4.2,5.7s-5.3-1.4-5.7-4.2h0c-3.7-23.5-1.6-68.4,54.3-105.5h0Z"/>
</svg>