<?xml version="1.0" encoding="UTF-8"?>
<svg id="Capa_1" data-name="Capa 1" xmlns="http://www.w3.org/2000/svg" version="1.1" viewBox="0 0 512 512">
  <defs>
    <style>
      .cls-1 {
        fill: #525252;
        stroke-width: 0px;
      }
    </style>
  </defs>
  <path class="cls-1" d="M366,313.9c.2,10.2-8.1,18.9-18.4,18.9h-13.1c-8.4,0-15.2,6.8-15.2,15.2v22.3c-40.4,10.3-86.3,10.2-126.6,0v-22.3c0-8.4-6.8-15.2-15.2-15.2h-12.4c-10.2.3-18.9-7.8-19.1-18-.2-10.2,8.1-18.9,18.4-18.9h13.1c8.4,0,15.2-6.8,15.2-15.2v-13.8c41,8.9,85.7,8.9,126.6,0v13.8c0,8.4,6.8,15.2,15.2,15.2h12.4c10.2-.3,18.9,7.8,19.1,18h0Z"/>
  <path class="cls-1" d="M366,179.3c.2,10.2-8.1,18.9-18.4,18.9h-13.1c-8.4,0-15.2,6.8-15.2,15.2v22.3c-40.3,10.3-86.3,10.3-126.6,0v-22.3c0-8.4-6.8-15.2-15.2-15.2h-12.4c-10.2.3-18.9-7.8-19.1-18-.2-10.2,8.1-18.9,18.4-18.9h13.1c8.4,0,15.2-6.8,15.2-15.2v-13.8c20.4,5.1,42.4,6.3,63.3,6.3s42.9-1.2,63.3-6.3v13.8c0,8.4,6.8,15.2,15.2,15.2h12.4c10.2-.3,18.9,7.8,19.1,18Z"/>
  <path class="cls-1" d="M366,44.7c.2,10.2-8.1,18.9-18.4,18.9h-13.1c-8.4,0-15.2,6.8-15.2,15.2v22.3c-40.5,10.2-86.1,10.2-126.6,0v-22.3c0-8.4-6.8-15.2-15.2-15.2h-12.4c-10.2.3-18.9-7.8-19.1-18-.2-10.2,8.1-18.9,18.4-18.9h13.1c8.4,0,15.2-6.8,15.2-15.2h0c0-7.1,6.3-12.5,13.3-11.3,31.7,5.1,68.3,5.1,100,0,7-1.1,13.3,4.3,13.3,11.3h0c0,8.4,6.8,15.2,15.2,15.2h12.4c10.2-.3,18.9,7.8,19.1,18h0Z"/>
  <path class="cls-1" d="M366,448.5c.2,10.2-8.1,18.9-18.4,18.9h-13.1c-8.4,0-15.2,6.8-15.2,15.2v10c0,7.3-5.2,13.6-12.5,15-31.5,5.9-70.2,5.9-101.7,0-7.2-1.3-12.5-7.6-12.5-15v-10c0-8.4-6.8-15.2-15.2-15.2h-12.4c-10.2.3-18.9-7.8-19.1-18-.2-10.2,8.1-18.9,18.4-18.9h13.1c8.4,0,15.2-6.8,15.2-15.2v-13.8c40.9,8.9,85.7,8.9,126.6,0v13.8c0,8.4,6.8,15.2,15.2,15.2h12.4c10.2-.3,18.9,7.8,19.1,18h.1Z"/>
</svg>