<?xml version="1.0" encoding="UTF-8"?>
<svg id="svg5610" xmlns="http://www.w3.org/2000/svg" version="1.1" xmlns:svg="http://www.w3.org/2000/svg" viewBox="0 0 682.7 682.7">
  <defs>
    <style>
      .cls-1 {
        fill: #525252;
        stroke-width: 0px;
      }
    </style>
  </defs>
  <path class="cls-1" d="M654.3,351v36.8c-1.9.9-1.9,2.8-2.1,4.4-1.7,12-4.9,23.7-8.4,35.3-.4,1-.9,1.9-1.3,2.9-1.3,2.4-2.6,4.8-3.9,7.2-9.7,14.3-23.8,20.6-40.4,22.4-28.3,3.1-56.6,5.8-84.8,9.3-37.4,4.6-74,12.1-108.3,28.7-31.2,15.1-60.6,33.2-89.7,51.9-35.3,22.7-70.1,46.1-107.7,65-19.5,9.8-39.6,18-60.3,24.9h-23.6c-14.5-3.9-27.1-11.1-38.1-21.3,0-.3,0-.6-.4-.8-19.5-24.1-30.9-51-28.9-82.6.3-1.5.5-3,.8-4.5,3.8-18,11.5-34.5,20-50.5,9.3-17.3,7.2-32.2-6.4-46.2-3.8-3.9-7.9-7.9-10.4-15,11.2,4.6,21.4-3.1,31.9,1.3,2.9,1.2,6.5.5,9.3-1.3,5.9-3.7,11.5-2.9,17.5-.4,5.6,2.3,11.5,2.9,17.1,0,5-2.6,9.7-2.4,14.9-.5,7.7,2.9,15.6,2.3,22.9-1,6.1-2.8,12-3,18.6-1.8,11.1,2,22,1.4,31.7-5.7,3-2.2,6.2-3.8,10.3-3,12,2.3,22.8-1,33-7.3,2.8-1.7,5.6-3.2,9-2,14.3,5.4,27.5,2.3,40.2-4.8,4.9-2.7,10.1-3.9,15.6-2.7,16.3,3.5,30.5-1.6,43.7-10.5h0c7-3.2,11.9-1.8,14.6,4.2,0,1,.1,2,.2,3-1.7,11.1-8,20.5-11.3,31-.6,2-1.7,4.7.5,6.1,2.3,1.6,4.1-.7,5.6-2.2,2.4-2.4,4.8-4.9,7-7.5,18.9-23.2,37.1-47,52.9-72.4,6.8-11,15-21.3,17.9-34.3.4,0,.7,0,1-.3,3-3.4,4.5-7.4,5.7-11.7.3-.3.4-.7.4-1.2,4.5-8.4,7.2-17.4,8.5-26.8.1-1.5.2-2.9.4-4.4,1.9-5.5,1.5-10.9-.3-16.3-.6-2.5-1.1-4.9-1.7-7.4-.6-2.4-.9-4.8-1.7-7.1-11.2-34.2-23.5-68-30.7-103.4-.4-2.5-.8-4.9-1.2-7.4-.5-11.8-1.1-23.5.2-35.3.8-2.5,1.7-5,2.5-7.5,5.5-12.6,15.5-20.9,26.8-28h16.2c11,5.5,17.9,14.7,22.9,25.7,4.2,9.1,9,18,13.5,26.9,2.9,5.7,6.4,11,11.1,15.4,10.6,10,25,8,31.8-4.6,7.3-13.6,14.3-27.3,24.1-39.3.9-1.1,1.8-2.2,2.7-3.3,5.9-3.5,10.4-8.8,16.7-11.9,16.7-8.2,32.3-1.4,37.6,16.4,2.4,8.2,1.8,16.5,1.7,24.8-1.1,4.6-2.2,9.2-3.2,13.8-1.6,2-2.5,4.2-2.8,6.7-10.4,17.5-19.9,35.3-23.8,55.7-5.3,28-.9,55.1,6.5,82,6.6,23.8,14,47.4,21,71.1,2.1,7,1.9,14.5,5.2,21.1l-.3.2Z"/>
  <path class="cls-1" d="M50.1,362.9c3.5,10.2,4.4,21.2,9.9,30.7.9,1.5,2.1,2.9,2.4,4.5.7,3.9,8.1,6,4,10.5-3.5,3.9-14.9,1.1-18.5-3.7-6.7-8.8-12.5-18.2-16.4-28.6-.6-1.6-1.4-3.1-2.1-4.7v-8.8c3.4-.9,6.5-3,10.3-2.8,1.5.2,3,.5,4.5.7,2,.7,3.9,1.5,5.9,2.2h0Z"/>
  <path class="cls-1" d="M371.1,369.6c-10.3,4-20.9,6.9-31.8,9-6,1.2-9.8.2-10.9-6.8-.9-6-2.7-11.9-3.1-18.1-.6-10.5,1-12.9,11.2-15.6,1.7-.4,3.3-.8,5-1.2,1.6-.2,3.2-.5,4.8-.7,5.4-.4,10.7-.8,16.1-1.1,5.9-.3,9.3,2.2,9.1,8.5-.2,6.3-.1,12.7-.2,19.1,0,2.3-.2,4.6-.3,6.9h0Z"/>
  <path class="cls-1" d="M166.5,355.4c5.3,7.2,4.4,15.9,5.7,24,1,6.5,1.3,13.2,3.9,19.3,1.6,3.8-.1,4.9-3.4,5.2-6.4.6-12.7.5-19.1,0-2.1-.2-4-.7-5-2.6-6.9-13.5-14.5-26.7-13.9-42.7,9.9-8.4,20.7-7.6,31.8-3.2h0Z"/>
  <path class="cls-1" d="M126.3,358.5c6.6,13.9,7.2,29.5,12,43.9,1,3-1,4-3.4,4.2-6.1.5-12.2.9-18.3-.6-1.7-.4-3.4-.9-4.4-2.5-6.9-11-13.9-22-16.6-35-.6-2.8,0-5.8,0-8.8,10-4.2,20.2-4.1,30.5-1.3h0Z"/>
  <path class="cls-1" d="M81,358.6c6.4,1.4,9,5.2,9.6,11.8,1,11.3,3.7,22.3,9.8,32.1,2,3.2,1.5,5-2.5,5.2-5.1.2-10.3.5-15.4.6-2.3,0-4.3-.5-5.7-2.6-6.7-10-13-20.3-16.1-32.1-2.6-9.7.3-13.7,10.2-14.9,2.4-.3,4.9-.3,7.3-.5,1,.1,1.9.3,2.9.4h-.1Z"/>
  <path class="cls-1" d="M202.5,348c11.7-.3,13,.7,14.8,12.2,1.7,10.9,1.3,22,3.8,32.8.7,3.1-.8,4.6-3.7,5-7.3,1.1-14.6,2-21.8,3.4-5.8,1.1-9.2-2.1-10.7-6.4-3.6-10.6-6.5-21.4-9.5-32.2-1.8-6.5,1.4-10.3,7.5-12.1,6.4-1.9,12.9-2.7,19.6-2.7h0Z"/>
  <path class="cls-1" d="M264.8,347.1c2.9,12.4,0,25,1.8,37.4.4,2.4-1.1,3.6-3.2,4.2-7.4,2.5-14.8,5.3-22.6,6.5-4.8.8-7.8-.7-9.5-5.6-3.8-10.4-7-20.9-8.5-31.9-.9-6.3,1.5-10.1,7.7-11.1,11.4-1.8,22.9-2.7,34.2.5l.5-.4-.5.4h.1Z"/>
  <path class="cls-1" d="M318.4,363.9c-.9,17.8,3.1,14.4-15.6,19.7-6.3,1.8-12.9,2.6-19.5,3.8-3.8.7-5.9-.8-6.8-4.7-2-9.1-3.7-18.2-4.4-27.6-.4-5.3,1.9-8.4,6.7-10,10.5-3.4,21.3-3.4,32-2.6,3.8.3,6.2,2.7,6.5,6.8.3,4.9.7,9.8,1.1,14.6h0Z"/>
</svg>