<?xml version="1.0" encoding="UTF-8"?>
<svg id="Capa_1" data-name="Capa 1" xmlns="http://www.w3.org/2000/svg" version="1.1" viewBox="0 0 512 512">
  <defs>
    <style>
      .cls-1 {
        fill: #525252;
        stroke-width: 0px;
      }
    </style>
  </defs>
  <path class="cls-1" d="M334.9,9.6C228-24.3,114.7,34.5,80.8,141.4c-17.6,55.6-10,113.1,16.4,160.3,12.8,22.8,15.1,50.1,6.1,74.6l-50,135.6h227l9.4-49.8,59.4,18.8c16.4,5.2,33.9-3.9,39.1-20.3l22.2-70,61.7-2.3-11.9-121.3,13.2-41.5c16.5-87.8-44.4-187.1-138.3-215.9h-.2ZM250.8,216.4l-28.6-9.1c3.4-10.6-2.5-22.1-13.2-25.4-5.2-1.6-10.6-1.2-15.4,1.3-4.8,2.5-8.3,6.7-10,11.9l-11.2,35.3c-5.5,17.2.3,37,14.3,48.3h.1c3.1,2.6,6.6,2,8,1.6s4.8-1.8,6.1-5.8l28.5,9.3c-4,12.2-13.8,21.7-26.3,25.3-3.6,1.1-7.4,1.6-11.1,1.6-8.8,0-17.4-3-24.4-8.6-23.3-18.9-33.2-52.1-24-80.7l11.2-35.2c8.4-26.4,36.7-41.1,63.1-32.7,26.4,8.4,41.1,36.7,32.7,63.1h0l.2-.2Z"/>
</svg>