<?xml version="1.0" encoding="UTF-8"?>
<svg id="Layer_1" data-name="Layer 1" xmlns="http://www.w3.org/2000/svg" version="1.1" viewBox="0 0 512 512">
  <defs>
    <style>
      .cls-1 {
        fill: #525252;
        stroke-width: 0px;
      }
    </style>
  </defs>
  <g id="Pelvis">
    <path class="cls-1" d="M285.8,88.3v22.7c-2-.8-4.1-1.2-6.3-1.2-53.8,0-51.3-.4-55.3,1.2v-22.7c0-3.5,2.8-6.3,6.3-6.3h49c3.5,0,6.3,2.8,6.3,6.3h0Z"/>
    <path class="cls-1" d="M285.8,126.7v9.4c-20.6,16-39.9,16-61.6-1.7v-7.7c0-3.5,2.8-6.3,6.3-6.3h49c3.5,0,6.3,2.8,6.3,6.3h0Z"/>
    <path class="cls-1" d="M285.8,11.6v22.6c-2-.8-4.1-1.2-6.3-1.2-53.8,0-51.3-.4-55.3,1.2V11.6c0-3.5,2.8-6.3,6.3-6.3h49c3.5,0,6.3,2.8,6.3,6.3,0,0,0,0,0,0Z"/>
    <path class="cls-1" d="M285.8,50v22.6c-2-.8-4.1-1.2-6.3-1.2-53.8,0-51.3-.4-55.3,1.2v-22.6c0-3.5,2.8-6.3,6.3-6.3h49c3.5,0,6.3,2.8,6.3,6.3h0Z"/>
    <path class="cls-1" d="M324.5,119.1h2.7-2.7ZM184.9,119.1c1.5,0,4.1,0,1.7,0h-1.7ZM170.7,134.8c0-2.5.7-5,1.8-7.3-1.2,2.3-1.8,4.8-1.8,7.3Z"/>
    <path class="cls-1" d="M448.5,38.1c-57.8-25-89.2,27-122.7,70.4,14.5,0,26.2,11.8,26.2,26.3.2,20.4-6.3,40.3-18.3,56.8,11.5,5,18.8,16.5,18.3,29.1,0,37.8-45.1,89.1-96,89.1s-96-51.4-96-89.1c-.5-12.6,6.9-24.1,18.5-29.1-12-16.3-18.5-36.1-18.5-56.4,0-14.5,11.5-26.3,26-26.7C152.6,65.1,121.2,13.2,63.4,38.2,3.6,64,16.3,182.9,54.2,278.5c3.8-2.2,7-5.3,9.4-9,12.7-20.3,39.4-26.5,59.7-13.8,20.3,12.7,26.5,39.4,13.8,59.7-1.7,2.7-3.7,5.2-5.9,7.5-12.3,12.8-21.8,28-28.1,44.7,18.3,23.4,37.9,38,56.1,38,54.8,0,32-47.4,96.8-47.4s41.9,47.4,96.7,47.4,37.8-14.6,56.1-38c-6.2-16.6-15.8-31.8-28.1-44.7-16.8-17-16.6-44.4.4-61.2,17-16.8,44.4-16.6,61.2.4,2.2,2.3,4.2,4.8,5.9,7.5,2.4,3.7,5.6,6.8,9.4,9,38.2-95.6,50.7-214.5-9.3-240.4h0ZM192.5,348.3l-19.2,19.2c-2.8,2.9-7.5,3-10.4.2-.3-.3-.6-.6-.8-1-10.1-13.1-12.7-27.8-5.3-35.1s22-4.6,35.1,5.3c3.3,2.4,4,7,1.7,10.3-.3.4-.6.8-1,1.1ZM347.8,366.7c-2.4,3.3-6.9,4-10.2,1.7-.4-.3-.7-.5-1-.9l-19.2-19.2c-2.9-2.8-3-7.4-.3-10.3.3-.3.7-.7,1.1-.9,13.1-10.1,27.8-12.7,35.1-5.3s4.6,21.9-5.5,35Z"/>
    <path class="cls-1" d="M341.3,134.8c.2,24.9-10.6,48.6-29.5,64.9-9.2,7.7-14.5,19-14.6,31v55.8c-12.3,8-26.6,12.4-41.2,12.6-15.7-.3-30.9-5.3-43.8-14.3v-56.3c-.1-11.6-5.1-22.6-13.8-30.3-17.7-16.1-27.8-39-27.8-62.9-.3-8.8,6.6-16.3,15.4-16.6,5-.2,9.9,2,13,5.9,39.4,45.3,74,45.7,113.4,0,5.3-7.1,15.3-8.5,22.4-3.2,4.2,3.2,6.6,8.2,6.4,13.5h0Z"/>
    <path class="cls-1" d="M123.4,315.7l-6.3,7.4c-20.4,23.8-31.6,54-31.7,85.3v98.3h-35.6v-49.4c.2-32.5-9.6-64.3-27.9-91.1-32.5-47.1,1.4-70.5,22.5-73.2,11.6-1.4,21.9-7.9,28.2-17.7,9.6-15.3,29.7-19.9,45-10.3s19.9,29.7,10.3,45c-1.3,2.1-2.8,4-4.6,5.7h0Z"/>
    <path class="cls-1" d="M388.6,315.7l6.3,7.4c20.4,23.8,31.6,54,31.7,85.3v98.3h35.6v-49.4c-.2-32.5,9.6-64.3,27.9-91.1,32.5-47.1-1.4-70.5-22.5-73.2-11.6-1.4-21.9-7.9-28.2-17.7-9.6-15.3-29.7-19.9-45-10.3-15.3,9.6-19.9,29.7-10.3,45,1.3,2.1,2.8,4,4.6,5.7h0Z"/>
  </g>
</svg>