<?xml version="1.0" encoding="UTF-8"?>
<svg id="Layer_1" data-name="Layer 1" xmlns="http://www.w3.org/2000/svg" version="1.1" viewBox="0 0 512 512">
  <defs>
    <style>
      .cls-1 {
        fill: #525252;
        stroke-width: 0px;
      }
    </style>
  </defs>
  <path class="cls-1" d="M378.1,314.2c8.5-2.4,17.4,2.6,19.8,11.1,2.4,8.5-2.6,17.4-11.1,19.8-9.7,2.7-19.7,3.1-29.8,2.3v26c2.1,1.2,4.3,2.4,6.5,3.7,4-6.9,12.5-10,20.1-6.9,8,3.3,11.9,12.4,8.9,20.4,4.5,1.8,9.2,3.4,14,5,2.5-8.5,11.5-13.4,20-10.8,8.1,2.4,12.8,10.6,11.1,18.7,14.8,2.7,30.8,4.3,47.9,4,2.5-16.1,3.8-30.8.6-43.8l5.3-4.7c17.1-15.3,13.3-42.7-7.5-52.9-2.1-1-4.1-2.1-6.1-3.3,13.3-12.4,23.7-24.2,31.5-35.8,5.5-8.1,2.5-19.1-6.2-23.4-13.8-6.7-15.2-11.7-15.2-14.5,16.8-55.8,10.3-106.1-18.8-145.7C422.4,20.5,331.7,0,252.9,0,120.2.3,24,47.8,3,180c-18.4,95,50.3,182.1,162.8,196.9,23.2,3,46.2-9.1,56-29.6,38.1-79.4,116.3-21.9,156.3-33.1h0ZM383.5,233.2c24.4-39.7,56.8-34.6,63-11.4,6.9,25.9-22.1,71.6-50.1,71.6-20.6,0-34.8-24.7-12.9-60.2Z"/>
  <path class="cls-1" d="M428.4,434.5l-1.1,3.8c-2.1,7-8.5,11.5-15.4,11.5-10.7,0-18.5-10.3-15.4-20.7l.8-2.7c-5.9-1.9-11.7-4-17.1-6.1-3.5,8-12.7,11.8-20.9,8.4-7.5-3.1-12.5-11.8-8.3-21.9-6.8-3.6-13-7.3-18.7-10.9-4.6-2.9-7.5-8.1-7.5-13.6v-40.2c-38.7-8-61.9-13-75.4,22.5-.4,1-.9,2-1.5,2.9,3.9,19.7,6,41.8,7.7,63,1.8,22.5,19.2,41.5,42.5,46.2,33.9,6.9,72.8,22.8,116.7,33.6,31.5,7.7,62-14.7,63.1-45.7.3-8.5,1.2-16.8,2.4-25-18.5-.1-35.8-2.1-51.9-5.2h0Z"/>
</svg>