<?xml version="1.0" encoding="UTF-8"?>
<svg id="Capa_1" data-name="Capa 1" xmlns="http://www.w3.org/2000/svg" version="1.1" viewBox="0 0 512 512">
  <defs>
    <style>
      .cls-1 {
        fill: #525252;
        stroke-width: 0px;
      }
    </style>
  </defs>
  <path class="cls-1" d="M379.6,15c-25.9,0-47.1,20.2-48.8,45.7,0,28.8-.5,62.5-.5,62.6,0,7.3-5.4,13.6-12.7,14.7l-183.8,29.1,10.7,221.8c2.9,60.6,52.7,108,113.4,108h.4c58.6-.2,107.4-44.9,112.7-103.4l6-66.9c1.8-20.1,8.7-39.6,19.9-56.3,15.1-22.7,23.9-49.1,25.2-76.3l6.4-127.7c1.4-27.9-20.9-51.3-48.8-51.3h-.1Z"/>
  <path class="cls-1" d="M300.9,49.5l-123.1,20.5c-27.5,4.6-47.2,29-45.9,56.9l.5,10,168-26.6.5-60.9h0Z"/>
</svg>