<?xml version="1.0" encoding="UTF-8"?>
<svg id="Layer_1" data-name="Layer 1" xmlns="http://www.w3.org/2000/svg" version="1.1" viewBox="0 0 512 512">
  <defs>
    <style>
      .cls-1 {
        fill: #525252;
        stroke-width: 0px;
      }
    </style>
  </defs>
  <g id="_28-Muscle" data-name=" 28-Muscle">
    <path class="cls-1" d="M496,384c0,28.8-75.4,112-192,112-50.6.3-100.8-9.2-147.8-28.1,7.2-13.8,19.6-24.1,34.4-28.9,4.2-1.2,6.7-5.7,5.4-9.9-1.2-4.2-5.7-6.7-9.9-5.4-1.6.5-50.2,16.3-50.2,64.3,0,4.4-3.6,8-8,8H24c-4.4,0-8-3.6-8-8v-248c0-4.4,3.5-8,7.9-8,0,0,0,0,0,0,3.5,0,7.2,0,11,0,39.9-.5,92.9-1.1,136.5,45.5-13.1,7.6-24.3,18.2-32.4,31-2.2,3.8-.8,8.7,3,10.9,3.8,2.2,8.7.8,10.9-3,0,0,0,0,0,0,.6-1,24.5-44.2,103-44.2s102.4,43,103,44.2c1.4,2.5,4.1,4.1,7,4.1,1.4,0,2.7-.3,3.9-1,3.8-2.2,5.2-7,3-10.9-10.4-16-25.2-28.7-42.6-36.6,6.2-16.1,13.3-31.8,21.4-47,.1-19-2.1-38-6.8-56.5,15.1-5.1,29.6-11.7,43.3-19.8,3.8-2.2,5.1-7.1,2.8-10.9-2.2-3.8-7.1-5.1-10.9-2.8,0,0,0,0,0,0-1.2.6-42.6,25.5-76.2,25.1-19.3-.7-38.3-4.2-56.6-10.2-12.7-4-19.8-17.5-15.8-30.2.4-1.2.8-2.4,1.4-3.5,1.4-2.6,4.1-4.2,7-4.2h48c13.2,0,24-10.7,24-23.9,0,0,0,0,0,0v-8c0-4.4-3.6-8-8-8s-8,3.6-8,8v8c0,4.4-3.6,8-8,8h-46.6c-3.2,0-6-1.9-7.2-4.9l-4.7-11.8c-4.3-10.8-.3-23,9.5-29.2l41-25.7c8.9-5.5,19.2-8.5,29.7-8.5h61.9c21.2,0,40.5,11.8,50.1,30.7,27.7,55.1,74.2,172.4,74.2,337.3h0Z"/>
  </g>
</svg>