<?xml version="1.0" encoding="UTF-8"?>
<svg id="Capa_1" data-name="Capa 1" xmlns="http://www.w3.org/2000/svg" version="1.1" viewBox="0 0 512 512">
  <defs>
    <style>
      .cls-1 {
        fill: #525252;
        stroke-width: 0px;
      }
    </style>
  </defs>
  <path class="cls-1" d="M173.2,342.3l-6.6-2.4-2.4-6.6c-1.4-4-5-5.4-6.4-5.8-1.8-.5-5.3-.9-8.6,1.8l-5.4,4.5-6.9-1.3c-.6-.1-1.2-.2-1.8-.2-3.4,0-5.7,1.9-6.6,2.8-1,1-3.4,3.9-2.6,8.3l1.3,7-4.6,5.4c-2.7,3.2-2.2,6.9-1.8,8.4.4,1.5,1.7,5,5.9,6.5l6.6,2.4,2.4,6.6c1.4,4,5,5.4,6.4,5.8,1.8.5,5.3.9,8.6-1.8l5.4-4.5,6.9,1.3c4.2.8,7.1-1.6,8.2-2.7,1.1-1.1,3.5-4,2.7-8.3l-1.2-6.9,4.6-5.4c2.7-3.2,2.2-6.9,1.8-8.4s-1.7-5-5.9-6.5h0Z"/>
  <path class="cls-1" d="M506.2,196c-7.7-7.7-20.2-7.7-27.9,0l-64.7,64.7-21.1-21.1,107.8-107.8c7.7-7.7,7.7-20.2,0-27.9-7.7-7.7-20.2-7.7-27.9,0h0l-107.8,107.9-21.1-21.1L487.1,46.8c7.7-7.7,7.7-20.2,0-28-3.7-3.7-8.7-5.7-14-5.7s-10.3,2-14,5.7l-143.8,143.8-21.1-21.1,107.8-107.8c7.7-7.7,7.7-20.2,0-27.9-3.6-3.8-8.6-5.8-13.9-5.8s-10.3,2-14,5.7l-92.6,92.6-51.4,51.4c19.3,19.8,29.9,45.9,29.9,73.6s-11,54.7-30.9,74.7l-21.1-21.1c14.3-14.3,22.2-33.3,22.2-53.5s-7.9-39.2-22.2-53.5l-20.1-20.1,72.5-72.5c7.8-7.8,7.8-20.4,0-28.1-3.7-3.7-8.6-5.8-13.9-5.8s-10.2,2-13.9,5.8l-95.5,95.5c-34.5,34.5-50.9,82.3-45.1,131.2l.9,7.2L0,376l130,130,93-93,7.2.9c48.9,5.9,96.7-10.6,131.2-45.1l144.8-144.8c7.7-7.7,7.7-20.2,0-27.9h0ZM204,371.1c0,10.4-4.1,20.5-11.7,28-7.5,7.4-17.5,11.5-27.7,11.5s-.1,0-.2,0c-6,3.5-12.8,5.3-19.7,5.3s-7-.5-10.4-1.4c-10.2-2.8-18.8-9.5-23.9-18.4-9-5.2-15.7-13.9-18.4-24.2-2.7-10.2-1.2-20.9,4-29.8,0-10.4,4-20.5,11.5-28,7.4-7.4,17.4-11.5,27.8-11.5s.2,0,.3,0c9-5.2,19.8-6.7,30.1-3.9,10.2,2.8,18.8,9.5,23.9,18.4,9,5.2,15.7,13.9,18.4,24.2,2.7,10.2,1.2,21-4,29.8h0Z"/>
</svg>